G75*
G70*
%OFA0B0*%
%FSLAX24Y24*%
%IPPOS*%
%LPD*%
%AMOC8*
5,1,8,0,0,1.08239X$1,22.5*
%
%ADD10C,0.0000*%
%ADD11C,0.0060*%
%ADD12C,0.0100*%
%ADD13C,0.0040*%
%ADD14C,0.0050*%
D10*
X000210Y000805D02*
X000201Y014960D01*
X019774Y014960D01*
X019754Y000805D01*
X000210Y000805D01*
X001333Y006024D02*
X001335Y006074D01*
X001341Y006124D01*
X001351Y006174D01*
X001364Y006222D01*
X001381Y006270D01*
X001402Y006316D01*
X001426Y006360D01*
X001454Y006402D01*
X001485Y006442D01*
X001519Y006479D01*
X001556Y006514D01*
X001595Y006545D01*
X001636Y006574D01*
X001680Y006599D01*
X001726Y006621D01*
X001773Y006639D01*
X001821Y006653D01*
X001870Y006664D01*
X001920Y006671D01*
X001970Y006674D01*
X002021Y006673D01*
X002071Y006668D01*
X002121Y006659D01*
X002169Y006647D01*
X002217Y006630D01*
X002263Y006610D01*
X002308Y006587D01*
X002351Y006560D01*
X002391Y006530D01*
X002429Y006497D01*
X002464Y006461D01*
X002497Y006422D01*
X002526Y006381D01*
X002552Y006338D01*
X002575Y006293D01*
X002594Y006246D01*
X002609Y006198D01*
X002621Y006149D01*
X002629Y006099D01*
X002633Y006049D01*
X002633Y005999D01*
X002629Y005949D01*
X002621Y005899D01*
X002609Y005850D01*
X002594Y005802D01*
X002575Y005755D01*
X002552Y005710D01*
X002526Y005667D01*
X002497Y005626D01*
X002464Y005587D01*
X002429Y005551D01*
X002391Y005518D01*
X002351Y005488D01*
X002308Y005461D01*
X002263Y005438D01*
X002217Y005418D01*
X002169Y005401D01*
X002121Y005389D01*
X002071Y005380D01*
X002021Y005375D01*
X001970Y005374D01*
X001920Y005377D01*
X001870Y005384D01*
X001821Y005395D01*
X001773Y005409D01*
X001726Y005427D01*
X001680Y005449D01*
X001636Y005474D01*
X001595Y005503D01*
X001556Y005534D01*
X001519Y005569D01*
X001485Y005606D01*
X001454Y005646D01*
X001426Y005688D01*
X001402Y005732D01*
X001381Y005778D01*
X001364Y005826D01*
X001351Y005874D01*
X001341Y005924D01*
X001335Y005974D01*
X001333Y006024D01*
D11*
X008721Y003258D02*
X008721Y002831D01*
X008828Y002613D02*
X008721Y002506D01*
X008721Y002186D01*
X009362Y002186D01*
X009362Y002506D01*
X009255Y002613D01*
X009148Y002613D01*
X009042Y002506D01*
X009042Y002186D01*
X009042Y002506D02*
X008935Y002613D01*
X008828Y002613D01*
X009148Y002831D02*
X009362Y003044D01*
X008721Y003044D01*
X009784Y002937D02*
X009891Y002831D01*
X010318Y003258D01*
X009891Y003258D01*
X009784Y003151D01*
X009784Y002937D01*
X009891Y002831D02*
X010318Y002831D01*
X010425Y002937D01*
X010425Y003151D01*
X010318Y003258D01*
X010729Y002831D02*
X010836Y002831D01*
X011263Y003258D01*
X011370Y003258D01*
X011370Y002831D01*
X011263Y002613D02*
X011370Y002506D01*
X011370Y002186D01*
X010729Y002186D01*
X010729Y002506D01*
X010836Y002613D01*
X011263Y002613D01*
X011832Y002506D02*
X011832Y002186D01*
X012472Y002186D01*
X012472Y002506D01*
X012365Y002613D01*
X011938Y002613D01*
X011832Y002506D01*
X011938Y002831D02*
X011832Y002937D01*
X011832Y003151D01*
X011938Y003258D01*
X012045Y003258D01*
X012152Y003151D01*
X012152Y002831D01*
X011938Y002831D01*
X012152Y002831D02*
X012365Y003044D01*
X012472Y003258D01*
X012737Y003151D02*
X012737Y002937D01*
X012844Y002831D01*
X013057Y002831D02*
X013164Y003044D01*
X013164Y003151D01*
X013057Y003258D01*
X012844Y003258D01*
X012737Y003151D01*
X013057Y002831D02*
X013378Y002831D01*
X013378Y003258D01*
X013761Y003151D02*
X014401Y003151D01*
X014081Y002831D01*
X014081Y003258D01*
X013868Y002613D02*
X014295Y002613D01*
X014401Y002506D01*
X014401Y002186D01*
X013761Y002186D01*
X013761Y002506D01*
X013868Y002613D01*
X013378Y002506D02*
X013378Y002186D01*
X012737Y002186D01*
X012737Y002506D01*
X012844Y002613D01*
X013271Y002613D01*
X013378Y002506D01*
X014784Y002506D02*
X014784Y002186D01*
X015425Y002186D01*
X015425Y002506D01*
X015318Y002613D01*
X014891Y002613D01*
X014784Y002506D01*
X014891Y002831D02*
X014784Y002937D01*
X014784Y003151D01*
X014891Y003258D01*
X014998Y003258D01*
X015105Y003151D01*
X015105Y003044D01*
X015105Y003151D02*
X015211Y003258D01*
X015318Y003258D01*
X015425Y003151D01*
X015425Y002937D01*
X015318Y002831D01*
X015808Y002831D02*
X015808Y003258D01*
X016235Y003258D02*
X016342Y003258D01*
X016449Y003151D01*
X016449Y002937D01*
X016342Y002831D01*
X016342Y002613D02*
X016449Y002506D01*
X016449Y002186D01*
X015808Y002186D01*
X015808Y002506D01*
X015915Y002613D01*
X016342Y002613D01*
X015808Y002831D02*
X016235Y003258D01*
X017472Y003840D02*
X017899Y003840D01*
X017472Y004267D01*
X017472Y004373D01*
X017578Y004480D01*
X017792Y004480D01*
X017899Y004373D01*
X018116Y004373D02*
X018116Y004267D01*
X018223Y004160D01*
X018543Y004160D01*
X018223Y004160D02*
X018116Y004053D01*
X018116Y003946D01*
X018223Y003840D01*
X018543Y003840D01*
X018543Y004480D01*
X018223Y004480D01*
X018116Y004373D01*
X018184Y004863D02*
X018077Y004970D01*
X018077Y005077D01*
X018184Y005183D01*
X018504Y005183D01*
X018184Y005183D02*
X018077Y005290D01*
X018077Y005397D01*
X018184Y005504D01*
X018504Y005504D01*
X018504Y004863D01*
X018184Y004863D01*
X017859Y004970D02*
X017753Y004863D01*
X017539Y004863D01*
X017432Y004970D01*
X017432Y005077D01*
X017539Y005183D01*
X017646Y005183D01*
X017539Y005183D02*
X017432Y005290D01*
X017432Y005397D01*
X017539Y005504D01*
X017753Y005504D01*
X017859Y005397D01*
X018144Y005887D02*
X018465Y005887D01*
X018465Y006527D01*
X018144Y006527D01*
X018038Y006421D01*
X018038Y006314D01*
X018144Y006207D01*
X018465Y006207D01*
X018144Y006207D02*
X018038Y006100D01*
X018038Y005994D01*
X018144Y005887D01*
X017820Y006207D02*
X017393Y006207D01*
X017500Y005887D02*
X017500Y006527D01*
X017820Y006207D01*
X017713Y006792D02*
X017500Y006792D01*
X017393Y006899D01*
X017393Y007113D01*
X017500Y007219D01*
X017607Y007219D01*
X017820Y007113D01*
X017820Y007433D01*
X017393Y007433D01*
X017087Y007433D02*
X016873Y007219D01*
X016660Y007433D01*
X016660Y006792D01*
X016442Y006899D02*
X016335Y006792D01*
X016122Y006792D01*
X016015Y006899D01*
X016015Y007326D01*
X016122Y007433D01*
X016335Y007433D01*
X016442Y007326D01*
X016442Y006899D01*
X016442Y006488D02*
X016229Y006488D01*
X016335Y006488D02*
X016335Y005847D01*
X016229Y005847D02*
X016442Y005847D01*
X016660Y005847D02*
X016660Y006488D01*
X016873Y006274D01*
X017087Y006488D01*
X017087Y005847D01*
X017019Y005504D02*
X016806Y005504D01*
X016699Y005397D01*
X016481Y005397D02*
X016375Y005504D01*
X016161Y005504D01*
X016054Y005397D01*
X015837Y005504D02*
X015837Y004863D01*
X015837Y005077D02*
X015410Y005504D01*
X015261Y005847D02*
X015048Y005847D01*
X014941Y005954D01*
X014941Y006381D01*
X015048Y006488D01*
X015261Y006488D01*
X015368Y006381D01*
X015368Y005954D01*
X015261Y005847D01*
X015585Y005954D02*
X015692Y005847D01*
X015906Y005847D01*
X016012Y005954D01*
X015906Y006168D02*
X015692Y006168D01*
X015585Y006061D01*
X015585Y005954D01*
X015906Y006168D02*
X016012Y006274D01*
X016012Y006381D01*
X015906Y006488D01*
X015692Y006488D01*
X015585Y006381D01*
X015477Y006792D02*
X015691Y006792D01*
X015798Y006899D01*
X015691Y007113D02*
X015477Y007113D01*
X015370Y007006D01*
X015370Y006899D01*
X015477Y006792D01*
X015153Y006792D02*
X014939Y006792D01*
X015046Y006792D02*
X015046Y007433D01*
X015153Y007433D02*
X014939Y007433D01*
X015370Y007326D02*
X015477Y007433D01*
X015691Y007433D01*
X015798Y007326D01*
X015798Y007219D01*
X015691Y007113D01*
X015758Y007934D02*
X015331Y007934D01*
X015758Y007934D02*
X015758Y008575D01*
X015976Y008468D02*
X016082Y008575D01*
X016296Y008575D01*
X016403Y008468D01*
X016403Y008041D01*
X016296Y007934D01*
X016082Y007934D01*
X015976Y008041D01*
X016620Y008041D02*
X016727Y007934D01*
X016940Y007934D01*
X017047Y008041D01*
X016940Y008254D02*
X016727Y008254D01*
X016620Y008148D01*
X016620Y008041D01*
X016940Y008254D02*
X017047Y008361D01*
X017047Y008468D01*
X016940Y008575D01*
X016727Y008575D01*
X016620Y008468D01*
X016727Y008840D02*
X016940Y008840D01*
X017047Y008946D01*
X016940Y009160D02*
X016727Y009160D01*
X016620Y009053D01*
X016620Y008946D01*
X016727Y008840D01*
X016403Y008840D02*
X016082Y008840D01*
X015976Y008946D01*
X015976Y009373D01*
X016082Y009480D01*
X016403Y009480D01*
X016403Y008840D01*
X016620Y009373D02*
X016727Y009480D01*
X016940Y009480D01*
X017047Y009373D01*
X017047Y009267D01*
X016940Y009160D01*
X017432Y009199D02*
X017859Y009199D01*
X017539Y009519D01*
X017539Y008879D01*
X017432Y008535D02*
X017859Y008535D01*
X017859Y008215D01*
X017646Y008322D01*
X017539Y008322D01*
X017432Y008215D01*
X017432Y008001D01*
X017539Y007895D01*
X017753Y007895D01*
X017859Y008001D01*
X018077Y008001D02*
X018184Y007895D01*
X018397Y007895D01*
X018504Y008001D01*
X018504Y008428D01*
X018397Y008535D01*
X018184Y008535D01*
X018077Y008428D01*
X018184Y008879D02*
X018077Y008986D01*
X018184Y008879D02*
X018397Y008879D01*
X018504Y008986D01*
X018504Y009413D01*
X018397Y009519D01*
X018184Y009519D01*
X018077Y009413D01*
X018223Y009824D02*
X018116Y009931D01*
X018223Y009824D02*
X018437Y009824D01*
X018543Y009931D01*
X018543Y010358D01*
X018437Y010464D01*
X018223Y010464D01*
X018116Y010358D01*
X017899Y010358D02*
X017792Y010464D01*
X017578Y010464D01*
X017472Y010358D01*
X017472Y010251D01*
X017578Y010144D01*
X017472Y010037D01*
X017472Y009931D01*
X017578Y009824D01*
X017792Y009824D01*
X017899Y009931D01*
X017685Y010144D02*
X017578Y010144D01*
X017511Y010847D02*
X017938Y010847D01*
X017511Y011274D01*
X017511Y011381D01*
X017618Y011488D01*
X017831Y011488D01*
X017938Y011381D01*
X018156Y011381D02*
X018262Y011488D01*
X018476Y011488D01*
X018583Y011381D01*
X018583Y010954D01*
X018476Y010847D01*
X018262Y010847D01*
X018156Y010954D01*
X015758Y009267D02*
X015545Y009480D01*
X015331Y009267D01*
X015331Y008840D01*
X015331Y009160D02*
X015758Y009160D01*
X015758Y009267D02*
X015758Y008840D01*
X017087Y007433D02*
X017087Y006792D01*
X017713Y006792D02*
X017820Y006899D01*
X018038Y006899D02*
X018038Y007006D01*
X018144Y007113D01*
X018465Y007113D01*
X018144Y007113D02*
X018038Y007219D01*
X018038Y007326D01*
X018144Y007433D01*
X018465Y007433D01*
X018465Y006792D01*
X018144Y006792D01*
X018038Y006899D01*
X017019Y005504D02*
X017126Y005397D01*
X017126Y005290D01*
X017019Y005183D01*
X016806Y005183D01*
X016699Y005077D01*
X016699Y004970D01*
X016806Y004863D01*
X017019Y004863D01*
X017126Y004970D01*
X016481Y004970D02*
X016375Y004863D01*
X016161Y004863D01*
X016054Y004970D01*
X015730Y005183D02*
X015410Y004863D01*
X016481Y004970D02*
X016481Y005397D01*
X010425Y002506D02*
X010425Y002186D01*
X009784Y002186D01*
X009784Y002506D01*
X009891Y002613D01*
X009998Y002613D01*
X010105Y002506D01*
X010105Y002186D01*
X010105Y002506D02*
X010211Y002613D01*
X010318Y002613D01*
X010425Y002506D01*
D12*
X008770Y003494D02*
X008730Y003492D01*
X008690Y003487D01*
X008652Y003477D01*
X008614Y003465D01*
X008577Y003449D01*
X008542Y003429D01*
X008509Y003407D01*
X008478Y003381D01*
X008450Y003353D01*
X008424Y003322D01*
X008402Y003289D01*
X008382Y003254D01*
X008366Y003217D01*
X008354Y003179D01*
X008344Y003141D01*
X008339Y003101D01*
X008337Y003061D01*
X008337Y001329D01*
X008339Y001290D01*
X008345Y001252D01*
X008354Y001215D01*
X008367Y001178D01*
X008384Y001143D01*
X008403Y001110D01*
X008426Y001079D01*
X008452Y001050D01*
X008481Y001024D01*
X008512Y001001D01*
X008545Y000982D01*
X008580Y000965D01*
X008617Y000952D01*
X008654Y000943D01*
X008692Y000937D01*
X008731Y000935D01*
X008967Y000935D01*
X008770Y003495D02*
X016211Y003495D01*
X016762Y003101D02*
X016762Y001487D01*
X016760Y001446D01*
X016755Y001405D01*
X016746Y001365D01*
X016734Y001326D01*
X016718Y001288D01*
X016699Y001251D01*
X016677Y001216D01*
X016652Y001184D01*
X016624Y001153D01*
X016593Y001125D01*
X016561Y001100D01*
X016526Y001078D01*
X016489Y001059D01*
X016451Y001043D01*
X016412Y001031D01*
X016372Y001022D01*
X016331Y001017D01*
X016290Y001015D01*
X016762Y003101D02*
X016754Y003142D01*
X016742Y003182D01*
X016726Y003220D01*
X016707Y003258D01*
X016685Y003293D01*
X016660Y003326D01*
X016632Y003358D01*
X016601Y003386D01*
X016568Y003412D01*
X016533Y003435D01*
X016496Y003454D01*
X016458Y003471D01*
X016418Y003483D01*
X016378Y003493D01*
X016336Y003499D01*
X016294Y003501D01*
X016253Y003500D01*
X016211Y003494D01*
X017274Y003770D02*
X017274Y011329D01*
X017274Y011369D02*
X017276Y011409D01*
X017281Y011449D01*
X017291Y011487D01*
X017303Y011525D01*
X017319Y011562D01*
X017339Y011597D01*
X017361Y011630D01*
X017387Y011661D01*
X017415Y011689D01*
X017446Y011715D01*
X017479Y011737D01*
X017514Y011757D01*
X017551Y011773D01*
X017589Y011785D01*
X017627Y011795D01*
X017667Y011800D01*
X017707Y011802D01*
X019046Y011802D01*
X019676Y003849D02*
X019669Y003810D01*
X019659Y003771D01*
X019645Y003734D01*
X019629Y003697D01*
X019609Y003663D01*
X019586Y003630D01*
X019560Y003600D01*
X019532Y003571D01*
X019502Y003546D01*
X019469Y003523D01*
X019435Y003503D01*
X019398Y003486D01*
X019361Y003472D01*
X019322Y003462D01*
X019283Y003455D01*
X019243Y003451D01*
X019204Y003451D01*
X019164Y003455D01*
X017825Y003495D01*
X017785Y003486D01*
X017744Y003480D01*
X017702Y003479D01*
X017661Y003481D01*
X017620Y003488D01*
X017579Y003498D01*
X017540Y003511D01*
X017502Y003528D01*
X017466Y003549D01*
X017433Y003573D01*
X017401Y003600D01*
X017372Y003629D01*
X017346Y003661D01*
X017323Y003696D01*
X017303Y003732D01*
X017287Y003770D01*
X017274Y003810D01*
D13*
X012451Y007901D02*
X012277Y007727D01*
X012104Y007901D01*
X012104Y008248D01*
X011849Y008074D02*
X011675Y008074D01*
X011588Y007987D01*
X011588Y007901D01*
X011935Y007901D01*
X011935Y007987D02*
X011849Y008074D01*
X011935Y007987D02*
X011935Y007814D01*
X011849Y007727D01*
X011675Y007727D01*
X011420Y007727D02*
X011420Y008074D01*
X011420Y007901D02*
X011246Y008074D01*
X011159Y008074D01*
X010990Y007987D02*
X010903Y008074D01*
X010643Y008074D01*
X010474Y008074D02*
X010388Y008074D01*
X010388Y007727D01*
X010474Y007727D02*
X010301Y007727D01*
X010131Y007814D02*
X010044Y007727D01*
X009870Y007727D01*
X009784Y007814D01*
X009784Y007987D01*
X009870Y008074D01*
X010044Y008074D01*
X010131Y007987D01*
X010131Y007814D01*
X009615Y007727D02*
X009615Y008074D01*
X009355Y008074D01*
X009268Y007987D01*
X009268Y007727D01*
X008584Y007727D02*
X008237Y007727D01*
X008410Y007727D02*
X008410Y008248D01*
X008584Y008074D01*
X008368Y008302D02*
X008281Y008302D01*
X008194Y008388D01*
X008194Y008822D01*
X008026Y008909D02*
X008026Y008562D01*
X007939Y008475D01*
X007766Y008475D01*
X007679Y008562D01*
X007510Y008562D02*
X007423Y008475D01*
X007163Y008475D01*
X007163Y008735D01*
X007250Y008822D01*
X007423Y008822D01*
X007423Y008649D02*
X007163Y008649D01*
X006994Y008735D02*
X006908Y008822D01*
X006647Y008822D01*
X006479Y008822D02*
X006305Y008822D01*
X006392Y008909D02*
X006392Y008562D01*
X006305Y008475D01*
X006135Y008475D02*
X005962Y008475D01*
X006048Y008475D02*
X006048Y008996D01*
X006135Y008996D01*
X005791Y008735D02*
X005705Y008822D01*
X005531Y008822D01*
X005444Y008735D01*
X005444Y008649D01*
X005791Y008649D01*
X005791Y008735D02*
X005791Y008562D01*
X005705Y008475D01*
X005531Y008475D01*
X005745Y008248D02*
X006005Y008248D01*
X006005Y007727D01*
X005745Y007727D01*
X005658Y007814D01*
X005658Y008161D01*
X005745Y008248D01*
X005403Y008074D02*
X005230Y008074D01*
X005143Y007987D01*
X005143Y007727D01*
X005403Y007727D01*
X005490Y007814D01*
X005403Y007901D01*
X005143Y007901D01*
X004974Y008074D02*
X004714Y008074D01*
X004627Y007987D01*
X004627Y007727D01*
X004459Y007727D02*
X004285Y007727D01*
X004372Y007727D02*
X004372Y008074D01*
X004459Y008074D01*
X004372Y008248D02*
X004372Y008334D01*
X004416Y008475D02*
X004069Y008996D01*
X003901Y008909D02*
X003901Y008562D01*
X003814Y008475D01*
X003640Y008475D01*
X003554Y008562D01*
X003554Y008909D01*
X003640Y008996D01*
X003814Y008996D01*
X003901Y008909D01*
X004587Y008996D02*
X004760Y008996D01*
X004673Y008996D02*
X004673Y008475D01*
X004587Y008475D02*
X004760Y008475D01*
X004974Y008074D02*
X004974Y007727D01*
X004115Y007814D02*
X004028Y007727D01*
X003855Y007727D01*
X003599Y007727D02*
X003426Y007727D01*
X003512Y007727D02*
X003512Y008248D01*
X003599Y008248D01*
X003855Y008074D02*
X003768Y007987D01*
X003768Y007901D01*
X004115Y007901D01*
X004115Y007987D02*
X004028Y008074D01*
X003855Y008074D01*
X004115Y007987D02*
X004115Y007814D01*
X002869Y008475D02*
X002609Y008475D01*
X002522Y008562D01*
X002522Y008649D01*
X002609Y008735D01*
X002869Y008735D01*
X002609Y008735D02*
X002522Y008822D01*
X002522Y008909D01*
X002609Y008996D01*
X002869Y008996D01*
X002869Y008475D01*
X002740Y008248D02*
X002480Y008248D01*
X002393Y008161D01*
X002393Y008074D01*
X002480Y007987D01*
X002740Y007987D01*
X002480Y007987D02*
X002393Y007901D01*
X002393Y007814D01*
X002480Y007727D01*
X002740Y007727D01*
X002740Y008248D01*
X002354Y008562D02*
X002267Y008475D01*
X002093Y008475D01*
X002007Y008562D01*
X002007Y008735D01*
X002093Y008822D01*
X002267Y008822D01*
X002354Y008735D01*
X002354Y008562D01*
X002224Y008248D02*
X002137Y008248D01*
X002137Y007727D01*
X002051Y007727D02*
X002224Y007727D01*
X001880Y007814D02*
X001794Y007901D01*
X001533Y007901D01*
X001533Y007987D02*
X001533Y007727D01*
X001794Y007727D01*
X001880Y007814D01*
X001794Y008074D02*
X001620Y008074D01*
X001533Y007987D01*
X001365Y007987D02*
X001365Y007814D01*
X001278Y007727D01*
X001018Y007727D01*
X000849Y007727D02*
X000849Y008248D01*
X000806Y008475D02*
X000893Y008562D01*
X000893Y008735D01*
X000806Y008822D01*
X000546Y008822D01*
X000546Y008996D02*
X000546Y008475D01*
X000806Y008475D01*
X001018Y008074D02*
X001278Y008074D01*
X001365Y007987D01*
X000849Y007901D02*
X000589Y008074D01*
X000849Y007901D02*
X000589Y007727D01*
X001322Y008475D02*
X001322Y008822D01*
X001322Y008649D02*
X001149Y008822D01*
X001062Y008822D01*
X001491Y008735D02*
X001491Y008475D01*
X001751Y008475D01*
X001838Y008562D01*
X001751Y008649D01*
X001491Y008649D01*
X001491Y008735D02*
X001578Y008822D01*
X001751Y008822D01*
X001731Y009962D02*
X001904Y009962D01*
X001817Y009962D02*
X001817Y010483D01*
X001904Y010483D01*
X002159Y010309D02*
X002073Y010223D01*
X002073Y010136D01*
X002420Y010136D01*
X002420Y010049D02*
X002420Y010223D01*
X002333Y010309D01*
X002159Y010309D01*
X002420Y010049D02*
X002333Y009962D01*
X002159Y009962D01*
X002588Y010049D02*
X002588Y010309D01*
X002935Y010309D02*
X002935Y010049D01*
X002849Y009962D01*
X002762Y010049D01*
X002675Y009962D01*
X002588Y010049D01*
X002508Y010798D02*
X002247Y010798D01*
X002247Y011318D01*
X002247Y011145D02*
X002508Y011145D01*
X002594Y011058D01*
X002594Y010885D01*
X002508Y010798D01*
X002079Y010885D02*
X002079Y011145D01*
X002079Y010885D02*
X001992Y010798D01*
X001905Y010885D01*
X001818Y010798D01*
X001732Y010885D01*
X001732Y011145D01*
X001563Y011058D02*
X001476Y011145D01*
X001303Y011145D01*
X001216Y011058D01*
X001216Y010971D01*
X001563Y010971D01*
X001563Y010885D02*
X001563Y011058D01*
X001563Y010885D02*
X001476Y010798D01*
X001303Y010798D01*
X001047Y010798D02*
X000874Y010798D01*
X000961Y010798D02*
X000961Y011318D01*
X001047Y011318D01*
X000704Y011318D02*
X000617Y011318D01*
X000617Y010798D01*
X000704Y010798D02*
X000530Y010798D01*
X000614Y010049D02*
X000614Y009962D01*
X000701Y009962D01*
X000701Y010049D01*
X000614Y010049D01*
X000872Y010049D02*
X000872Y009962D01*
X000959Y009962D01*
X000959Y010049D01*
X000872Y010049D01*
X001130Y010049D02*
X001130Y009962D01*
X001217Y009962D01*
X001217Y010049D01*
X001130Y010049D01*
X001387Y009962D02*
X001560Y009962D01*
X001474Y009962D02*
X001474Y010483D01*
X001560Y010483D01*
X003279Y010885D02*
X003365Y010971D01*
X003539Y010971D01*
X003626Y011058D01*
X003539Y011145D01*
X003279Y011145D01*
X003279Y010885D02*
X003365Y010798D01*
X003626Y010798D01*
X003794Y010798D02*
X004055Y010798D01*
X004141Y010885D01*
X004141Y011058D01*
X004055Y011145D01*
X003794Y011145D01*
X003794Y010711D01*
X003881Y010625D01*
X003968Y010625D01*
X003880Y010309D02*
X003706Y010309D01*
X003620Y010223D01*
X003620Y010136D01*
X003967Y010136D01*
X003967Y010049D02*
X003967Y010223D01*
X003880Y010309D01*
X004135Y010223D02*
X004222Y010309D01*
X004482Y010309D01*
X004482Y010483D02*
X004482Y009962D01*
X004222Y009962D01*
X004135Y010049D01*
X004135Y010223D01*
X003967Y010049D02*
X003880Y009962D01*
X003706Y009962D01*
X004310Y010798D02*
X004310Y011058D01*
X004397Y011145D01*
X004657Y011145D01*
X004657Y010798D01*
X004827Y010798D02*
X005001Y010798D01*
X004914Y010798D02*
X004914Y011145D01*
X005001Y011145D01*
X005169Y011058D02*
X005169Y010798D01*
X005169Y011058D02*
X005256Y011145D01*
X005430Y011145D01*
X005516Y011058D01*
X005687Y011145D02*
X005860Y011145D01*
X005773Y011232D02*
X005773Y010885D01*
X005687Y010798D01*
X005516Y010798D02*
X005516Y011318D01*
X004914Y011318D02*
X004914Y011405D01*
X005255Y010483D02*
X005255Y009962D01*
X005342Y009962D02*
X005168Y009962D01*
X005512Y009962D02*
X005685Y009962D01*
X005599Y009962D02*
X005599Y010483D01*
X005685Y010483D01*
X005941Y010309D02*
X005854Y010223D01*
X005854Y009962D01*
X006114Y009962D01*
X006201Y010049D01*
X006114Y010136D01*
X005854Y010136D01*
X005941Y010309D02*
X006114Y010309D01*
X006370Y010223D02*
X006370Y009962D01*
X006717Y009962D02*
X006717Y010483D01*
X006718Y010625D02*
X006631Y010625D01*
X006544Y010711D01*
X006544Y011145D01*
X006544Y010798D02*
X006805Y010798D01*
X006891Y010885D01*
X006891Y011145D01*
X007060Y011058D02*
X007060Y010798D01*
X007060Y011058D02*
X007147Y011145D01*
X007407Y011145D01*
X007407Y010798D01*
X007576Y010798D02*
X007576Y011058D01*
X007662Y011145D01*
X007836Y011145D01*
X007836Y010971D02*
X007576Y010971D01*
X007576Y010798D02*
X007836Y010798D01*
X007923Y010885D01*
X007836Y010971D01*
X008091Y011058D02*
X008091Y010798D01*
X008265Y010798D02*
X008265Y011058D01*
X008178Y011145D01*
X008091Y011058D01*
X008265Y011058D02*
X008352Y011145D01*
X008438Y011145D01*
X008438Y010798D01*
X008436Y010483D02*
X008349Y010483D01*
X008349Y009962D01*
X008436Y009962D02*
X008262Y009962D01*
X008092Y009962D02*
X007918Y009962D01*
X008005Y009962D02*
X008005Y010483D01*
X008092Y010483D01*
X008604Y010223D02*
X008604Y009962D01*
X008864Y009962D01*
X008951Y010049D01*
X008864Y010136D01*
X008604Y010136D01*
X008604Y010223D02*
X008691Y010309D01*
X008864Y010309D01*
X009209Y010798D02*
X009123Y010885D01*
X009209Y010971D01*
X009383Y010971D01*
X009470Y011058D01*
X009383Y011145D01*
X009123Y011145D01*
X009209Y010798D02*
X009470Y010798D01*
X009640Y010798D02*
X009813Y010798D01*
X009727Y010798D02*
X009727Y011318D01*
X009813Y011318D01*
X010070Y011318D02*
X010070Y010798D01*
X009984Y010798D02*
X010157Y010798D01*
X010326Y010798D02*
X010586Y010798D01*
X010673Y010885D01*
X010586Y010971D01*
X010326Y010971D01*
X010326Y011058D02*
X010326Y010798D01*
X010326Y011058D02*
X010412Y011145D01*
X010586Y011145D01*
X010841Y011058D02*
X010841Y010798D01*
X010841Y011058D02*
X010928Y011145D01*
X011102Y011145D01*
X011188Y011058D01*
X011188Y011318D02*
X011188Y010798D01*
X010927Y010570D02*
X010927Y010483D01*
X010927Y010309D02*
X010927Y009962D01*
X011014Y009962D02*
X010840Y009962D01*
X010583Y010049D02*
X010496Y009962D01*
X010583Y010049D02*
X010583Y010396D01*
X010670Y010309D02*
X010496Y010309D01*
X010326Y010223D02*
X010239Y010309D01*
X009979Y010309D01*
X010239Y010136D02*
X010326Y010223D01*
X010239Y010136D02*
X010066Y010136D01*
X009979Y010049D01*
X010066Y009962D01*
X010326Y009962D01*
X009811Y009789D02*
X009637Y009962D01*
X009724Y009962D01*
X009724Y010049D01*
X009637Y010049D01*
X009637Y009962D01*
X008971Y008996D02*
X008971Y008475D01*
X009140Y008562D02*
X009140Y008735D01*
X009226Y008822D01*
X009400Y008822D01*
X009487Y008735D01*
X009487Y008562D01*
X009400Y008475D01*
X009226Y008475D01*
X009140Y008562D01*
X008971Y008649D02*
X008711Y008822D01*
X008541Y008822D02*
X008541Y008562D01*
X008455Y008475D01*
X008194Y008475D01*
X008711Y008475D02*
X008971Y008649D01*
X009655Y008562D02*
X009655Y008735D01*
X009742Y008822D01*
X009916Y008822D01*
X010002Y008735D01*
X010002Y008562D01*
X009916Y008475D01*
X009742Y008475D01*
X009655Y008562D01*
X010171Y008562D02*
X010258Y008475D01*
X010518Y008475D01*
X010518Y008302D02*
X010518Y008822D01*
X010258Y008822D01*
X010171Y008735D01*
X010171Y008562D01*
X010388Y008334D02*
X010388Y008248D01*
X010687Y008562D02*
X010773Y008475D01*
X010947Y008475D01*
X011034Y008562D01*
X010947Y008735D02*
X010773Y008735D01*
X010687Y008649D01*
X010687Y008562D01*
X010947Y008735D02*
X011034Y008822D01*
X011034Y008909D01*
X010947Y008996D01*
X010773Y008996D01*
X010687Y008909D01*
X010990Y007987D02*
X010903Y007901D01*
X010730Y007901D01*
X010643Y007814D01*
X010730Y007727D01*
X010990Y007727D01*
X012451Y007901D02*
X012451Y008248D01*
X013761Y009789D02*
X013848Y009789D01*
X013761Y009789D02*
X013675Y009876D01*
X013675Y010309D01*
X013506Y010223D02*
X013506Y010049D01*
X013419Y009962D01*
X013246Y009962D01*
X013159Y010049D01*
X013159Y010223D01*
X013246Y010309D01*
X013419Y010309D01*
X013506Y010223D01*
X013675Y009962D02*
X013935Y009962D01*
X014022Y010049D01*
X014022Y010309D01*
X014366Y010798D02*
X014539Y010798D01*
X014626Y010885D01*
X014626Y011058D01*
X014539Y011145D01*
X014366Y011145D01*
X014279Y011058D01*
X014279Y010971D01*
X014626Y010971D01*
X014795Y011058D02*
X014795Y010798D01*
X014795Y011058D02*
X014881Y011145D01*
X015055Y011145D01*
X015142Y011058D01*
X015312Y011145D02*
X015485Y011145D01*
X015399Y011232D02*
X015399Y010885D01*
X015312Y010798D01*
X015142Y010798D02*
X015142Y011318D01*
X016170Y011058D02*
X016170Y010798D01*
X016170Y011058D02*
X016256Y011145D01*
X016517Y011145D01*
X016517Y010798D01*
X016687Y010798D02*
X016860Y010798D01*
X016774Y010798D02*
X016774Y011318D01*
X016860Y011318D02*
X016687Y011318D01*
X016600Y010483D02*
X016600Y009962D01*
X016600Y010136D02*
X016253Y010483D01*
X015997Y010309D02*
X015824Y010309D01*
X015737Y010223D01*
X015737Y010136D01*
X016084Y010136D01*
X016084Y010049D02*
X016084Y010223D01*
X015997Y010309D01*
X016084Y010049D02*
X015997Y009962D01*
X015824Y009962D01*
X015569Y010049D02*
X015569Y010223D01*
X015482Y010309D01*
X015308Y010309D01*
X015222Y010223D01*
X015222Y010136D01*
X015569Y010136D01*
X015569Y010049D02*
X015482Y009962D01*
X015308Y009962D01*
X015053Y009962D02*
X014793Y009962D01*
X014706Y010049D01*
X014706Y010223D01*
X014793Y010309D01*
X015053Y010309D01*
X015053Y009789D01*
X016253Y009962D02*
X016513Y010223D01*
X013595Y010885D02*
X013595Y011058D01*
X013508Y011145D01*
X013248Y011145D01*
X013248Y011318D02*
X013248Y010798D01*
X013508Y010798D01*
X013595Y010885D01*
X013079Y010885D02*
X012992Y010971D01*
X012732Y010971D01*
X012732Y011058D02*
X012732Y010798D01*
X012992Y010798D01*
X013079Y010885D01*
X012992Y011145D02*
X012819Y011145D01*
X012732Y011058D01*
X012563Y010971D02*
X012390Y011145D01*
X012303Y011145D01*
X012134Y011318D02*
X012134Y010798D01*
X012134Y010971D02*
X011873Y011145D01*
X012134Y010971D02*
X011873Y010798D01*
X012214Y010309D02*
X012301Y010309D01*
X012475Y010136D01*
X012475Y010309D02*
X012475Y009962D01*
X012643Y009962D02*
X012643Y010309D01*
X012990Y010309D02*
X012990Y010049D01*
X012904Y009962D01*
X012643Y009962D01*
X012563Y010798D02*
X012563Y011145D01*
X011529Y010309D02*
X011529Y010049D01*
X011443Y009962D01*
X011356Y010049D01*
X011269Y009962D01*
X011182Y010049D01*
X011182Y010309D01*
X011014Y010309D02*
X010927Y010309D01*
X010157Y011318D02*
X010070Y011318D01*
X007232Y010223D02*
X007146Y010309D01*
X006885Y010309D01*
X006717Y010223D02*
X006630Y010309D01*
X006456Y010309D01*
X006370Y010223D01*
X006885Y010049D02*
X006972Y010136D01*
X007146Y010136D01*
X007232Y010223D01*
X007232Y009962D02*
X006972Y009962D01*
X006885Y010049D01*
X007766Y008996D02*
X007939Y008996D01*
X008026Y008909D01*
X007766Y008996D02*
X007679Y008909D01*
X007423Y008649D02*
X007510Y008562D01*
X007552Y008248D02*
X007292Y008248D01*
X007205Y008161D01*
X007205Y008074D01*
X007292Y007987D01*
X007552Y007987D01*
X007292Y007987D02*
X007205Y007901D01*
X007205Y007814D01*
X007292Y007727D01*
X007552Y007727D01*
X007552Y008248D01*
X007037Y008074D02*
X007037Y007814D01*
X006950Y007727D01*
X006690Y007727D01*
X006690Y007640D02*
X006777Y007554D01*
X006863Y007554D01*
X006690Y007640D02*
X006690Y008074D01*
X006734Y008475D02*
X006647Y008562D01*
X006734Y008649D01*
X006908Y008649D01*
X006994Y008735D01*
X006994Y008475D02*
X006734Y008475D01*
X005342Y010483D02*
X005255Y010483D01*
D14*
X004914Y004248D02*
X004609Y004248D01*
X004507Y004146D01*
X004507Y004045D01*
X004609Y003943D01*
X004914Y003943D01*
X005115Y003943D02*
X005522Y003943D01*
X005723Y004146D02*
X005824Y004248D01*
X006028Y004248D01*
X006130Y004146D01*
X006130Y003739D01*
X006028Y003638D01*
X005824Y003638D01*
X005723Y003739D01*
X006330Y003739D02*
X006432Y003638D01*
X006636Y003638D01*
X006737Y003739D01*
X006737Y004146D01*
X006636Y004248D01*
X006432Y004248D01*
X006330Y004146D01*
X004914Y004248D02*
X004914Y003638D01*
X004609Y003638D01*
X004507Y003739D01*
X004507Y003841D01*
X004609Y003943D01*
X004306Y004146D02*
X004306Y004248D01*
X004306Y004146D02*
X004103Y003943D01*
X004103Y003638D01*
X004103Y003943D02*
X003899Y004146D01*
X003899Y004248D01*
X003699Y003943D02*
X003292Y003943D01*
X003091Y004045D02*
X003091Y004146D01*
X002989Y004248D01*
X002786Y004248D01*
X002684Y004146D01*
X002483Y004045D02*
X002280Y004248D01*
X002076Y004045D01*
X002076Y003638D01*
X002076Y003943D02*
X002483Y003943D01*
X002483Y004045D02*
X002483Y003638D01*
X002684Y003739D02*
X002684Y003841D01*
X002786Y003943D01*
X002989Y003943D01*
X003091Y004045D01*
X003091Y003739D02*
X002989Y003638D01*
X002786Y003638D01*
X002684Y003739D01*
M02*
