G75*
G70*
%OFA0B0*%
%FSLAX24Y24*%
%IPPOS*%
%LPD*%
%AMOC8*
5,1,8,0,0,1.08239X$1,22.5*
%
%ADD10C,0.0000*%
%ADD11R,0.0780X0.0210*%
%ADD12C,0.0600*%
%ADD13R,0.0570X0.0360*%
%ADD14R,0.0740X0.0740*%
%ADD15C,0.0740*%
%ADD16R,0.0760X0.2100*%
%ADD17R,0.0472X0.0315*%
%ADD18R,0.0360X0.0570*%
%ADD19R,0.0500X0.0220*%
%ADD20R,0.0220X0.0500*%
%ADD21C,0.2300*%
%ADD22C,0.2100*%
%ADD23R,0.0360X0.1060*%
%ADD24R,0.0315X0.0472*%
%ADD25R,0.0800X0.0800*%
%ADD26C,0.0800*%
%ADD27C,0.0100*%
%ADD28C,0.0120*%
%ADD29OC8,0.0356*%
%ADD30C,0.0060*%
%ADD31C,0.0160*%
%ADD32R,0.0356X0.0356*%
%ADD33C,0.0360*%
%ADD34OC8,0.0360*%
%ADD35C,0.0240*%
D10*
X000210Y000805D02*
X000201Y014960D01*
X019774Y014960D01*
X019754Y000805D01*
X000210Y000805D01*
X001333Y006024D02*
X001335Y006074D01*
X001341Y006124D01*
X001351Y006174D01*
X001364Y006222D01*
X001381Y006270D01*
X001402Y006316D01*
X001426Y006360D01*
X001454Y006402D01*
X001485Y006442D01*
X001519Y006479D01*
X001556Y006514D01*
X001595Y006545D01*
X001636Y006574D01*
X001680Y006599D01*
X001726Y006621D01*
X001773Y006639D01*
X001821Y006653D01*
X001870Y006664D01*
X001920Y006671D01*
X001970Y006674D01*
X002021Y006673D01*
X002071Y006668D01*
X002121Y006659D01*
X002169Y006647D01*
X002217Y006630D01*
X002263Y006610D01*
X002308Y006587D01*
X002351Y006560D01*
X002391Y006530D01*
X002429Y006497D01*
X002464Y006461D01*
X002497Y006422D01*
X002526Y006381D01*
X002552Y006338D01*
X002575Y006293D01*
X002594Y006246D01*
X002609Y006198D01*
X002621Y006149D01*
X002629Y006099D01*
X002633Y006049D01*
X002633Y005999D01*
X002629Y005949D01*
X002621Y005899D01*
X002609Y005850D01*
X002594Y005802D01*
X002575Y005755D01*
X002552Y005710D01*
X002526Y005667D01*
X002497Y005626D01*
X002464Y005587D01*
X002429Y005551D01*
X002391Y005518D01*
X002351Y005488D01*
X002308Y005461D01*
X002263Y005438D01*
X002217Y005418D01*
X002169Y005401D01*
X002121Y005389D01*
X002071Y005380D01*
X002021Y005375D01*
X001970Y005374D01*
X001920Y005377D01*
X001870Y005384D01*
X001821Y005395D01*
X001773Y005409D01*
X001726Y005427D01*
X001680Y005449D01*
X001636Y005474D01*
X001595Y005503D01*
X001556Y005534D01*
X001519Y005569D01*
X001485Y005606D01*
X001454Y005646D01*
X001426Y005688D01*
X001402Y005732D01*
X001381Y005778D01*
X001364Y005826D01*
X001351Y005874D01*
X001341Y005924D01*
X001335Y005974D01*
X001333Y006024D01*
D11*
X008548Y009906D03*
X008548Y010406D03*
X008548Y010906D03*
X008548Y011406D03*
X010488Y011406D03*
X010488Y010906D03*
X010488Y010406D03*
X010488Y009906D03*
D12*
X008183Y007024D02*
X007583Y007024D01*
X007583Y006024D02*
X008183Y006024D01*
X008183Y005024D02*
X007583Y005024D01*
D13*
X009046Y004907D03*
X009046Y005547D03*
X009046Y006362D03*
X009046Y007002D03*
X017917Y006879D03*
X017917Y007519D03*
D14*
X019111Y004183D03*
X009061Y001650D03*
X006723Y001487D03*
X015817Y012560D03*
D15*
X016817Y012460D03*
X017817Y012560D03*
X018817Y012460D03*
X019211Y011183D03*
X019111Y010183D03*
X019211Y009183D03*
X019111Y008183D03*
X019211Y007183D03*
X019111Y006183D03*
X019211Y005183D03*
X016061Y001550D03*
X015061Y001650D03*
X014061Y001550D03*
X013061Y001650D03*
X012061Y001550D03*
X011061Y001650D03*
X010061Y001550D03*
X005723Y001487D03*
X004723Y001487D03*
X003723Y001487D03*
D16*
X011558Y005037D03*
X011558Y008837D03*
D17*
X009966Y007941D03*
X009966Y007232D03*
X009956Y006281D03*
X009956Y005572D03*
D18*
X009284Y009135D03*
X008644Y009135D03*
X013568Y009991D03*
X014208Y009991D03*
X005350Y002392D03*
X004710Y002392D03*
D19*
X013581Y006304D03*
X013581Y006619D03*
X013581Y006934D03*
X013581Y007249D03*
X013581Y007564D03*
X013581Y007879D03*
X013581Y008194D03*
X013581Y008509D03*
X016961Y008509D03*
X016961Y008194D03*
X016961Y007879D03*
X016961Y007564D03*
X016961Y007249D03*
X016961Y006934D03*
X016961Y006619D03*
X016961Y006304D03*
D20*
X016373Y005717D03*
X016058Y005717D03*
X015743Y005717D03*
X015428Y005717D03*
X015113Y005717D03*
X014798Y005717D03*
X014483Y005717D03*
X014169Y005717D03*
X014169Y009097D03*
X014483Y009097D03*
X014798Y009097D03*
X015113Y009097D03*
X015428Y009097D03*
X015743Y009097D03*
X016058Y009097D03*
X016373Y009097D03*
D21*
X012999Y013310D03*
X002132Y013034D03*
D22*
X001723Y002313D03*
X018298Y002235D03*
D23*
X009045Y003849D03*
X007945Y003849D03*
D24*
X013849Y010699D03*
X014558Y010699D03*
D25*
X009361Y013376D03*
D26*
X007983Y013376D03*
X006605Y013376D03*
X005227Y013376D03*
D27*
X008522Y009900D02*
X008548Y009906D01*
X008719Y009939D01*
X010488Y009906D02*
X010491Y009861D01*
X010491Y009546D01*
X010491Y010372D02*
X010488Y010406D01*
X010491Y010372D02*
X010687Y010412D01*
X010488Y010906D02*
X010491Y010924D01*
X010936Y010935D01*
X011239Y011160D01*
X011436Y011160D01*
X010412Y011396D02*
X009782Y011396D01*
X012561Y009109D02*
X012550Y009046D01*
X013061Y009085D02*
X014164Y009085D01*
X014169Y009097D01*
X014219Y009518D02*
X014252Y009516D01*
X014284Y009511D01*
X014316Y009502D01*
X014347Y009490D01*
X014376Y009475D01*
X014403Y009457D01*
X014479Y009306D02*
X014479Y009164D01*
X014483Y009097D01*
X014479Y009306D02*
X014477Y009331D01*
X014472Y009355D01*
X014464Y009379D01*
X014453Y009402D01*
X014439Y009422D01*
X014422Y009441D01*
X014403Y009457D01*
X014219Y009518D02*
X013196Y009518D01*
X013196Y009519D02*
X013146Y009517D01*
X013097Y009512D01*
X013047Y009503D01*
X012999Y009491D01*
X012952Y009475D01*
X012906Y009456D01*
X012861Y009433D01*
X012818Y009408D01*
X012777Y009379D01*
X012738Y009348D01*
X012702Y009314D01*
X012668Y009277D01*
X012637Y009238D01*
X012608Y009197D01*
X012583Y009154D01*
X012561Y009110D01*
X012904Y008416D02*
X013101Y008416D01*
X013534Y008455D01*
X013581Y008509D01*
X012229Y007217D02*
X012291Y007155D01*
X012357Y007096D01*
X012424Y007040D01*
X012494Y006987D01*
X012567Y006938D01*
X012642Y006892D01*
X012719Y006849D01*
X012797Y006810D01*
X012878Y006775D01*
X012960Y006743D01*
X013043Y006716D01*
X013128Y006692D01*
X013213Y006672D01*
X013299Y006656D01*
X013386Y006644D01*
X013474Y006636D01*
X013562Y006632D01*
X013561Y006632D02*
X013581Y006619D01*
X013581Y006304D02*
X013561Y006239D01*
X013394Y006045D01*
X014006Y006172D02*
X012550Y004518D01*
X012589Y003652D01*
X011558Y005037D02*
X011554Y005372D01*
X012004Y005372D01*
X011554Y005372D02*
X011554Y005058D01*
X011558Y005037D01*
X011554Y005609D01*
X011554Y005372D01*
X011554Y005609D02*
X009900Y005609D01*
X009956Y005572D01*
X009006Y006998D02*
X007883Y007024D01*
X009900Y007971D02*
X009966Y007941D01*
X009900Y007971D02*
X011554Y007971D01*
X011558Y008837D01*
X011554Y007892D01*
X012229Y007217D01*
X013394Y006045D02*
X013336Y005978D01*
X013275Y005914D01*
X013211Y005853D01*
X013144Y005795D01*
X013074Y005741D01*
X013002Y005689D01*
X012927Y005642D01*
X012851Y005598D01*
X012772Y005557D01*
X012691Y005521D01*
X012609Y005488D01*
X012526Y005459D01*
X012441Y005434D01*
X012355Y005414D01*
X012268Y005397D01*
X012180Y005385D01*
X012092Y005376D01*
X012003Y005372D01*
X014006Y006172D02*
X014344Y006172D01*
X014380Y006174D01*
X014416Y006179D01*
X014452Y006188D01*
X014486Y006200D01*
X014519Y006216D01*
X014550Y006235D01*
X014579Y006256D01*
X014606Y006281D01*
X014631Y006308D01*
X014652Y006337D01*
X014671Y006368D01*
X014687Y006401D01*
X014699Y006435D01*
X014708Y006471D01*
X014713Y006507D01*
X014715Y006543D01*
X014715Y007661D01*
X014713Y007703D01*
X014708Y007744D01*
X014699Y007785D01*
X014686Y007825D01*
X014670Y007863D01*
X014651Y007900D01*
X014628Y007936D01*
X014603Y007969D01*
X014575Y008000D01*
X014544Y008028D01*
X014511Y008053D01*
X014476Y008076D01*
X014438Y008095D01*
X014400Y008111D01*
X014360Y008124D01*
X014319Y008133D01*
X014278Y008138D01*
X014236Y008140D01*
X013613Y008140D01*
X013581Y008194D01*
X013601Y007577D02*
X013581Y007564D01*
X013770Y006959D02*
X013652Y006934D01*
X014833Y008376D02*
X014833Y008967D01*
X014794Y009006D01*
X014873Y009085D01*
X014798Y009097D01*
X015187Y009164D02*
X015187Y009872D01*
X016054Y010266D02*
X016447Y010542D01*
X016369Y010109D02*
X017392Y011132D01*
X016802Y012117D02*
X015522Y010680D01*
X014563Y010699D02*
X014208Y009991D01*
X015187Y009872D02*
X015189Y009936D01*
X015194Y010000D01*
X015203Y010063D01*
X015216Y010126D01*
X015232Y010188D01*
X015251Y010250D01*
X015274Y010309D01*
X015300Y010368D01*
X015330Y010425D01*
X015362Y010480D01*
X015398Y010533D01*
X015436Y010585D01*
X015478Y010634D01*
X015522Y010680D01*
X016369Y010109D02*
X016369Y009164D01*
X016684Y008770D02*
X016684Y009951D01*
X017707Y008573D02*
X017689Y008531D01*
X017667Y008490D01*
X017642Y008451D01*
X017614Y008414D01*
X017583Y008380D01*
X017550Y008347D01*
X017514Y008318D01*
X017477Y008291D01*
X017437Y008267D01*
X017396Y008246D01*
X017353Y008228D01*
X017309Y008214D01*
X017264Y008203D01*
X017218Y008195D01*
X017172Y008191D01*
X017126Y008190D01*
X016961Y008194D01*
X016999Y007904D02*
X018022Y007904D01*
X018022Y012313D01*
X018573Y011723D02*
X018573Y007668D01*
X016961Y008509D02*
X016920Y008534D01*
X016684Y008770D01*
X011558Y008837D02*
X011554Y008758D01*
X011554Y007971D01*
X011554Y007892D01*
D28*
X012600Y011229D02*
X012495Y011326D01*
X012386Y011419D01*
X012272Y011506D01*
X012155Y011587D01*
X012033Y011663D01*
X011909Y011733D01*
X011780Y011797D01*
X011650Y011854D01*
X011516Y011906D01*
X011380Y011950D01*
X011242Y011989D01*
X011103Y012021D01*
X010962Y012046D01*
X010820Y012064D01*
X010677Y012075D01*
X010534Y012080D01*
X010391Y012078D01*
X010391Y012077D02*
X008534Y012077D01*
X009782Y011396D02*
X010227Y011369D01*
X010660Y011369D01*
X010623Y011406D01*
X010488Y011406D01*
X010687Y010412D02*
X011605Y010424D01*
X011880Y010699D01*
X013751Y010699D02*
X013849Y010699D01*
X014558Y010699D02*
X014563Y010699D01*
X015502Y010699D01*
X015522Y010680D01*
X013752Y010699D02*
X013675Y010703D01*
X013599Y010711D01*
X013523Y010722D01*
X013448Y010736D01*
X013373Y010754D01*
X013300Y010776D01*
X013227Y010801D01*
X013156Y010830D01*
X013087Y010862D01*
X013019Y010897D01*
X012952Y010936D01*
X012888Y010977D01*
X012826Y011022D01*
X012766Y011070D01*
X012708Y011120D01*
X012653Y011173D01*
X012600Y011229D01*
X009006Y008407D02*
X008997Y008416D01*
X008573Y008416D01*
X008644Y009135D02*
X008548Y009906D01*
X009006Y007038D02*
X009042Y007002D01*
X009046Y007002D01*
X009050Y006880D01*
X009321Y006920D01*
X009352Y006905D01*
X009381Y006888D01*
X009408Y006867D01*
X009432Y006844D01*
X009454Y006818D01*
X009473Y006790D01*
X009489Y006760D01*
X009502Y006729D01*
X009511Y006696D01*
X009516Y006663D01*
X009518Y006629D01*
X009518Y005388D01*
X009046Y004907D02*
X008928Y005024D01*
X007883Y005024D01*
X007883Y004068D01*
X007945Y003849D01*
X004710Y005708D02*
X004712Y005781D01*
X004718Y005854D01*
X004727Y005926D01*
X004740Y005997D01*
X004757Y006068D01*
X004778Y006138D01*
X004802Y006207D01*
X004830Y006274D01*
X004862Y006340D01*
X004896Y006404D01*
X004935Y006466D01*
X004976Y006526D01*
X005020Y006584D01*
X005068Y006639D01*
X005118Y006692D01*
X005952Y007038D02*
X007869Y007038D01*
X007883Y007024D01*
X005952Y007038D02*
X005886Y007036D01*
X005820Y007031D01*
X005755Y007021D01*
X005690Y007008D01*
X005626Y006992D01*
X005563Y006972D01*
X005501Y006948D01*
X005440Y006921D01*
X005382Y006891D01*
X005325Y006857D01*
X005270Y006821D01*
X005217Y006781D01*
X005166Y006738D01*
X005118Y006693D01*
X004710Y005708D02*
X004710Y002392D01*
X004723Y002379D01*
X004723Y001487D01*
X003723Y001487D01*
X011963Y002943D02*
X013080Y002983D01*
X011963Y002943D02*
X011847Y002946D01*
X011731Y002954D01*
X011615Y002968D01*
X011500Y002987D01*
X011387Y003012D01*
X011274Y003042D01*
X011163Y003077D01*
X011054Y003118D01*
X010947Y003164D01*
X010843Y003215D01*
X010740Y003271D01*
X010641Y003331D01*
X010545Y003396D01*
X010452Y003466D01*
X010362Y003540D01*
X010276Y003618D01*
X010193Y003701D01*
X010115Y003787D01*
X010041Y003877D01*
X009971Y003970D01*
X009906Y004066D01*
X009846Y004166D01*
X009790Y004268D01*
X009739Y004372D01*
X009693Y004479D01*
X009652Y004588D01*
X009617Y004699D01*
X009587Y004812D01*
X009562Y004925D01*
X009543Y005040D01*
X009529Y005156D01*
X009521Y005272D01*
X009518Y005388D01*
X013080Y002983D02*
X013281Y002980D01*
X013482Y002987D01*
X013683Y003002D01*
X013882Y003028D01*
X014081Y003063D01*
X014277Y003107D01*
X014471Y003160D01*
X014663Y003223D01*
X014851Y003295D01*
X015035Y003375D01*
X015216Y003464D01*
X015392Y003562D01*
X015563Y003668D01*
X015729Y003782D01*
X015889Y003903D01*
X016044Y004032D01*
X016192Y004169D01*
X016192Y004168D02*
X017735Y004995D01*
X018397Y005590D02*
X018402Y005787D01*
X018052Y006665D02*
X017917Y006879D01*
X017716Y007001D01*
X017738Y006858D02*
X017917Y006879D01*
X017917Y007519D02*
X016961Y007564D01*
X017162Y006619D02*
X017215Y006621D01*
X017268Y006626D01*
X017321Y006635D01*
X017373Y006647D01*
X017424Y006662D01*
X017474Y006681D01*
X017522Y006703D01*
X017569Y006728D01*
X017615Y006756D01*
X017658Y006787D01*
X017699Y006821D01*
X017738Y006858D01*
X017162Y006619D02*
X016961Y006619D01*
X017116Y007249D02*
X017172Y007247D01*
X017227Y007242D01*
X017282Y007233D01*
X017336Y007220D01*
X017389Y007204D01*
X017441Y007184D01*
X017492Y007161D01*
X017541Y007135D01*
X017588Y007106D01*
X017633Y007074D01*
X017676Y007038D01*
X017716Y007000D01*
X017116Y007249D02*
X016961Y007249D01*
X016526Y007266D01*
X016485Y007270D01*
X016444Y007277D01*
X016403Y007287D01*
X016364Y007300D01*
X016325Y007317D01*
X016289Y007337D01*
X016254Y007360D01*
X016221Y007385D01*
X016190Y007413D01*
X015766Y007589D02*
X015069Y007589D01*
X014164Y007589D02*
X014164Y007331D01*
X014164Y007589D02*
X013601Y007577D01*
X013581Y007879D02*
X013375Y007872D01*
X014163Y007331D02*
X014161Y007295D01*
X014156Y007259D01*
X014147Y007223D01*
X014135Y007189D01*
X014119Y007156D01*
X014100Y007125D01*
X014079Y007096D01*
X014054Y007069D01*
X014027Y007044D01*
X013998Y007023D01*
X013967Y007004D01*
X013934Y006988D01*
X013900Y006976D01*
X013864Y006967D01*
X013828Y006962D01*
X013792Y006960D01*
X013792Y006959D02*
X013770Y006959D01*
X015766Y007589D02*
X015813Y007587D01*
X015860Y007582D01*
X015906Y007572D01*
X015951Y007560D01*
X015996Y007543D01*
X016038Y007524D01*
X016079Y007501D01*
X016119Y007474D01*
X016156Y007445D01*
X016190Y007413D01*
X018397Y005590D02*
X018366Y005533D01*
X018332Y005478D01*
X018295Y005424D01*
X018255Y005372D01*
X018213Y005323D01*
X018168Y005276D01*
X018121Y005231D01*
X018072Y005189D01*
X018020Y005149D01*
X017966Y005113D01*
X017911Y005079D01*
X017853Y005048D01*
X017795Y005020D01*
X017735Y004995D01*
X018402Y005787D02*
X018402Y005852D01*
X018398Y005916D01*
X018391Y005981D01*
X018381Y006044D01*
X018367Y006108D01*
X018349Y006170D01*
X018329Y006231D01*
X018305Y006291D01*
X018278Y006350D01*
X018247Y006407D01*
X018214Y006463D01*
X018178Y006516D01*
X018138Y006568D01*
X018096Y006617D01*
X018052Y006664D01*
D29*
X018061Y005699D03*
X018731Y005699D03*
X016408Y007628D03*
X015817Y007274D03*
X015069Y007589D03*
X014164Y007589D03*
X013022Y007983D03*
X012550Y007353D03*
X012156Y006841D03*
X011841Y007195D03*
X012550Y006565D03*
X014361Y006644D03*
X016369Y008534D03*
X014754Y009872D03*
X012235Y010384D03*
X009282Y009715D03*
X009243Y011408D03*
X010266Y006762D03*
X009046Y005975D03*
X008455Y003928D03*
X009518Y003888D03*
X011290Y003455D03*
D30*
X013613Y004676D02*
X013745Y004789D01*
X014479Y004676D02*
X014479Y005699D01*
X014483Y005717D01*
X014169Y005717D02*
X014164Y005699D01*
X014794Y005699D02*
X014798Y005717D01*
X014794Y005699D02*
X014794Y004676D01*
X015109Y004676D02*
X015109Y005699D01*
X015113Y005717D01*
X015428Y005717D02*
X015502Y005699D01*
X015502Y004676D01*
X015817Y005227D02*
X015817Y005699D01*
X015743Y005717D01*
X016058Y005717D02*
X016132Y005699D01*
X016132Y005227D01*
X016373Y005717D02*
X016369Y005857D01*
X017432Y005857D01*
X017747Y006329D02*
X016999Y006329D01*
X016961Y006304D01*
X016961Y006934D02*
X016920Y006959D01*
X016526Y006959D01*
X016961Y007879D02*
X016999Y007904D01*
X015817Y008613D02*
X015817Y009006D01*
X015739Y009085D01*
X015743Y009097D01*
X015502Y009085D02*
X015428Y009097D01*
X015502Y009085D02*
X015502Y008613D01*
X015113Y009097D02*
X015187Y009164D01*
X016369Y009164D02*
X016373Y009097D01*
X013652Y006934D02*
X013613Y006959D01*
X013581Y006934D01*
X014163Y005699D02*
X014161Y005630D01*
X014155Y005562D01*
X014145Y005493D01*
X014131Y005426D01*
X014114Y005359D01*
X014092Y005294D01*
X014067Y005230D01*
X014039Y005167D01*
X014006Y005107D01*
X013970Y005048D01*
X013931Y004991D01*
X013889Y004937D01*
X013844Y004885D01*
X013796Y004836D01*
X013745Y004789D01*
X018573Y011723D02*
X019046Y012235D01*
X018817Y012460D01*
X018022Y012313D02*
X017817Y012560D01*
X016817Y012460D02*
X016802Y012117D01*
D31*
X016937Y011893D02*
X017140Y011977D01*
X017301Y012137D01*
X017340Y012232D01*
X017495Y012077D01*
X017704Y011990D01*
X017772Y011990D01*
X017772Y008953D01*
X017632Y008953D01*
X017492Y008895D01*
X017385Y008789D01*
X017367Y008746D01*
X017294Y008819D01*
X016988Y008819D01*
X016934Y008874D01*
X016934Y009664D01*
X017006Y009736D01*
X017064Y009876D01*
X017064Y010027D01*
X017006Y010166D01*
X016899Y010273D01*
X016890Y010277D01*
X017426Y010812D01*
X017456Y010812D01*
X017573Y010861D01*
X017663Y010951D01*
X017712Y011069D01*
X017712Y011196D01*
X017663Y011314D01*
X017573Y011404D01*
X017456Y011452D01*
X017329Y011452D01*
X017211Y011404D01*
X017121Y011314D01*
X017072Y011196D01*
X017072Y011166D01*
X016674Y010768D01*
X016629Y010813D01*
X016511Y010862D01*
X016384Y010862D01*
X016266Y010813D01*
X016176Y010723D01*
X016138Y010630D01*
X016018Y010546D01*
X015998Y010546D01*
X015895Y010504D01*
X015816Y010425D01*
X015774Y010322D01*
X015774Y009547D01*
X015437Y009547D01*
X015437Y009872D01*
X015445Y009988D01*
X015505Y010213D01*
X015622Y010415D01*
X015656Y010453D01*
X015669Y010459D01*
X015743Y010532D01*
X015757Y010568D01*
X016937Y011893D01*
X017016Y011925D02*
X017772Y011925D01*
X017772Y011767D02*
X016825Y011767D01*
X016684Y011608D02*
X017772Y011608D01*
X017772Y011450D02*
X017462Y011450D01*
X017323Y011450D02*
X016543Y011450D01*
X016402Y011291D02*
X017112Y011291D01*
X017039Y011133D02*
X016261Y011133D01*
X016119Y010974D02*
X016881Y010974D01*
X016722Y010816D02*
X016622Y010816D01*
X016273Y010816D02*
X015978Y010816D01*
X015837Y010657D02*
X016149Y010657D01*
X015890Y010499D02*
X015709Y010499D01*
X015781Y010340D02*
X015579Y010340D01*
X015497Y010182D02*
X015774Y010182D01*
X015774Y010023D02*
X015455Y010023D01*
X015437Y009865D02*
X015774Y009865D01*
X015774Y009706D02*
X015437Y009706D01*
X015437Y009548D02*
X015774Y009548D01*
X016054Y009136D02*
X016054Y010266D01*
X016954Y010340D02*
X017772Y010340D01*
X017772Y010182D02*
X016990Y010182D01*
X017064Y010023D02*
X017772Y010023D01*
X017772Y009865D02*
X017059Y009865D01*
X016976Y009706D02*
X017772Y009706D01*
X017772Y009548D02*
X016934Y009548D01*
X016934Y009389D02*
X017772Y009389D01*
X017772Y009231D02*
X016934Y009231D01*
X016934Y009072D02*
X017772Y009072D01*
X017537Y008914D02*
X016934Y008914D01*
X017357Y008755D02*
X017371Y008755D01*
X017750Y008193D02*
X017711Y008154D01*
X017772Y008154D01*
X017772Y008193D01*
X017750Y008193D01*
X018272Y008121D02*
X018323Y008121D01*
X018323Y007963D02*
X018272Y007963D01*
X018272Y007866D02*
X018272Y012209D01*
X018295Y012232D01*
X018334Y012137D01*
X018495Y011977D01*
X018471Y011951D01*
X018432Y011935D01*
X018361Y011864D01*
X018323Y011773D01*
X018323Y007870D01*
X018302Y007849D01*
X018272Y007866D01*
X018302Y007849D02*
X018302Y007849D01*
X017907Y007529D02*
X017907Y007509D01*
X017452Y007509D01*
X017452Y007458D01*
X017391Y007475D01*
X017391Y007564D01*
X016961Y007564D01*
X016961Y007564D01*
X017391Y007564D01*
X017391Y007654D01*
X017452Y007654D01*
X017452Y007529D01*
X017907Y007529D01*
X017452Y007487D02*
X017391Y007487D01*
X017391Y007646D02*
X017452Y007646D01*
X016961Y007564D02*
X016961Y007564D01*
X016531Y007564D01*
X016531Y007527D01*
X016491Y007532D01*
X016409Y007568D01*
X016374Y007597D01*
X016372Y007599D01*
X016253Y007718D01*
X016253Y007718D01*
X016253Y007718D01*
X015937Y007849D01*
X015344Y007849D01*
X015226Y007967D01*
X014913Y007967D01*
X014903Y007957D01*
X014886Y007996D01*
X014991Y007996D01*
X015213Y008219D01*
X015213Y008475D01*
X015231Y008431D01*
X015321Y008341D01*
X015439Y008293D01*
X015566Y008293D01*
X015660Y008332D01*
X015754Y008293D01*
X015881Y008293D01*
X015999Y008341D01*
X016089Y008431D01*
X016137Y008549D01*
X016137Y008647D01*
X016464Y008647D01*
X016472Y008629D01*
X016511Y008589D01*
X016511Y007686D01*
X016531Y007666D01*
X016531Y007564D01*
X016961Y007564D01*
X016531Y007646D02*
X016325Y007646D01*
X016511Y007804D02*
X016045Y007804D01*
X016511Y007963D02*
X015230Y007963D01*
X015116Y008121D02*
X016511Y008121D01*
X016511Y008280D02*
X015213Y008280D01*
X015213Y008438D02*
X015228Y008438D01*
X015182Y008565D02*
X015100Y008647D01*
X015182Y008647D01*
X015182Y008565D01*
X015182Y008597D02*
X015150Y008597D01*
X014566Y008647D02*
X014453Y008534D01*
X014453Y008360D01*
X014381Y008390D01*
X014031Y008390D01*
X014031Y008647D01*
X014566Y008647D01*
X014516Y008597D02*
X014031Y008597D01*
X014031Y008438D02*
X014453Y008438D01*
X014900Y007963D02*
X014909Y007963D01*
X014465Y007355D02*
X014465Y006543D01*
X014463Y006519D01*
X014445Y006476D01*
X014411Y006442D01*
X014367Y006424D01*
X014344Y006422D01*
X014048Y006422D01*
X014040Y006424D01*
X014031Y006424D01*
X014031Y006746D01*
X014150Y006795D01*
X014328Y006973D01*
X014424Y007205D01*
X014424Y007314D01*
X014465Y007355D01*
X014465Y007329D02*
X014438Y007329D01*
X014410Y007170D02*
X014465Y007170D01*
X014465Y007012D02*
X014344Y007012D01*
X014328Y006973D02*
X014328Y006973D01*
X014208Y006853D02*
X014465Y006853D01*
X014465Y006695D02*
X014031Y006695D01*
X014150Y006795D02*
X014150Y006795D01*
X014031Y006536D02*
X014464Y006536D01*
X014882Y006219D02*
X016511Y006219D01*
X016511Y006167D02*
X014846Y006167D01*
X014870Y006191D01*
X014965Y006420D01*
X014965Y007211D01*
X015226Y007211D01*
X015344Y007329D01*
X015767Y007329D01*
X015766Y007329D02*
X015832Y007323D01*
X015955Y007272D01*
X016006Y007230D01*
X016108Y007128D01*
X016228Y007075D01*
X016206Y007023D01*
X016206Y006895D01*
X016255Y006778D01*
X016345Y006688D01*
X016462Y006639D01*
X016511Y006639D01*
X016511Y006167D01*
X016511Y006378D02*
X014948Y006378D01*
X014965Y006536D02*
X016511Y006536D01*
X016338Y006695D02*
X014965Y006695D01*
X014965Y006853D02*
X016223Y006853D01*
X016206Y007012D02*
X014965Y007012D01*
X014965Y007170D02*
X016065Y007170D01*
X016108Y007128D02*
X016108Y007128D01*
X015766Y007329D02*
X015344Y007329D01*
X016092Y008438D02*
X016511Y008438D01*
X016503Y008597D02*
X016137Y008597D01*
X016058Y009097D02*
X016054Y009136D01*
X014937Y009547D02*
X014660Y009547D01*
X014636Y009595D01*
X014588Y009630D01*
X014588Y010192D01*
X014624Y010263D01*
X014798Y010263D01*
X014915Y010380D01*
X014915Y010439D01*
X015050Y010439D01*
X015032Y010409D01*
X014937Y010055D01*
X014937Y009547D01*
X014937Y009548D02*
X014659Y009548D01*
X014636Y009595D02*
X014636Y009595D01*
X014588Y009706D02*
X014937Y009706D01*
X014937Y009865D02*
X014588Y009865D01*
X014588Y010023D02*
X014937Y010023D01*
X014971Y010182D02*
X014588Y010182D01*
X014875Y010340D02*
X015014Y010340D01*
X015032Y010409D02*
X015032Y010409D01*
X014915Y010959D02*
X014915Y011018D01*
X014798Y011135D01*
X014317Y011135D01*
X014203Y011021D01*
X014089Y011135D01*
X013609Y011135D01*
X013491Y011018D01*
X013491Y011002D01*
X013229Y011082D01*
X012923Y011276D01*
X012818Y011378D01*
X012787Y011409D01*
X012758Y011441D01*
X012750Y011445D01*
X012544Y011646D01*
X011985Y012004D01*
X011366Y012242D01*
X010712Y012350D01*
X010386Y012337D01*
X008912Y012337D01*
X008912Y012338D01*
X008795Y012455D01*
X008511Y012455D01*
X008875Y012779D01*
X008878Y012776D01*
X009844Y012776D01*
X009961Y012894D01*
X009961Y013859D01*
X009844Y013976D01*
X008878Y013976D01*
X008761Y013859D01*
X008761Y013427D01*
X008583Y013269D01*
X008583Y013496D01*
X008491Y013716D01*
X008323Y013885D01*
X008102Y013976D01*
X007863Y013976D01*
X007643Y013885D01*
X007474Y013716D01*
X007383Y013496D01*
X007383Y013371D01*
X007361Y013365D01*
X007168Y013233D01*
X007171Y013241D01*
X007185Y013331D01*
X007185Y013338D01*
X006643Y013338D01*
X006643Y012796D01*
X006650Y012796D01*
X006741Y012811D01*
X006827Y012839D01*
X006891Y012871D01*
X006813Y012653D01*
X006804Y012344D01*
X006837Y012234D01*
X006837Y011265D01*
X006837Y011136D01*
X006932Y010780D01*
X007116Y010461D01*
X007246Y010331D01*
X007286Y010292D01*
X007345Y010233D01*
X007602Y010126D01*
X007990Y010126D01*
X007958Y010094D01*
X007958Y009718D01*
X008075Y009601D01*
X008324Y009601D01*
X008328Y009568D01*
X008264Y009503D01*
X008264Y008767D01*
X008275Y008756D01*
X008195Y008677D01*
X008195Y008155D01*
X008312Y008038D01*
X008726Y008038D01*
X008726Y007382D01*
X008679Y007382D01*
X008605Y007309D01*
X008466Y007448D01*
X008282Y007524D01*
X007483Y007524D01*
X007299Y007448D01*
X007159Y007308D01*
X007155Y007298D01*
X005762Y007298D01*
X005396Y007200D01*
X005068Y007010D01*
X004934Y006876D01*
X004928Y006871D01*
X004780Y006723D01*
X004780Y006723D01*
X004563Y006346D01*
X004450Y005926D01*
X004450Y002877D01*
X004447Y002877D01*
X004330Y002760D01*
X004330Y002024D01*
X004392Y001962D01*
X004240Y001810D01*
X004223Y001769D01*
X004206Y001810D01*
X004046Y001970D01*
X003836Y002057D01*
X003610Y002057D01*
X003400Y001970D01*
X003240Y001810D01*
X003153Y001600D01*
X003153Y001373D01*
X003240Y001164D01*
X003398Y001005D01*
X000410Y001005D01*
X000401Y014760D01*
X019574Y014760D01*
X019569Y011631D01*
X019534Y011666D01*
X019324Y011753D01*
X019097Y011753D01*
X018888Y011666D01*
X018823Y011601D01*
X018823Y011655D01*
X019109Y011964D01*
X019140Y011977D01*
X019301Y012137D01*
X019387Y012347D01*
X019387Y012574D01*
X019301Y012783D01*
X019140Y012944D01*
X018931Y013030D01*
X018704Y013030D01*
X018495Y012944D01*
X018340Y012789D01*
X018301Y012883D01*
X018140Y013044D01*
X017931Y013130D01*
X017704Y013130D01*
X017495Y013044D01*
X017334Y012883D01*
X017295Y012789D01*
X017140Y012944D01*
X016931Y013030D01*
X016704Y013030D01*
X016495Y012944D01*
X016367Y012816D01*
X016367Y012954D01*
X016355Y013000D01*
X016331Y013041D01*
X016298Y013074D01*
X016257Y013098D01*
X016211Y013110D01*
X015837Y013110D01*
X015837Y012580D01*
X015797Y012580D01*
X015797Y012540D01*
X015267Y012540D01*
X015267Y012167D01*
X015280Y012121D01*
X015303Y012080D01*
X015337Y012046D01*
X015378Y012023D01*
X015424Y012010D01*
X015797Y012010D01*
X015797Y012540D01*
X015837Y012540D01*
X015837Y012010D01*
X016211Y012010D01*
X016257Y012023D01*
X016298Y012046D01*
X016331Y012080D01*
X016354Y012118D01*
X016414Y012057D01*
X015436Y010959D01*
X014915Y010959D01*
X014915Y010974D02*
X015450Y010974D01*
X015591Y011133D02*
X014800Y011133D01*
X014315Y011133D02*
X014092Y011133D01*
X013606Y011133D02*
X013149Y011133D01*
X012907Y011291D02*
X015732Y011291D01*
X015873Y011450D02*
X012745Y011450D01*
X012818Y011378D02*
X012818Y011378D01*
X012582Y011608D02*
X016014Y011608D01*
X016156Y011767D02*
X012355Y011767D01*
X012544Y011646D02*
X012544Y011646D01*
X012477Y012052D02*
X012821Y011960D01*
X013176Y011960D01*
X013520Y012052D01*
X013827Y012229D01*
X014079Y012481D01*
X014257Y012788D01*
X014349Y013132D01*
X014349Y013487D01*
X014257Y013831D01*
X014079Y014138D01*
X013827Y014390D01*
X013520Y014567D01*
X013176Y014659D01*
X012821Y014659D01*
X012477Y014567D01*
X012170Y014390D01*
X011918Y014138D01*
X011741Y013831D01*
X011649Y013487D01*
X011649Y013132D01*
X011741Y012788D01*
X011918Y012481D01*
X012170Y012229D01*
X012477Y012052D01*
X012421Y012084D02*
X011777Y012084D01*
X011985Y012004D02*
X011985Y012004D01*
X012108Y011925D02*
X016297Y011925D01*
X016334Y012084D02*
X016388Y012084D01*
X015837Y012084D02*
X015797Y012084D01*
X015797Y012242D02*
X015837Y012242D01*
X015837Y012401D02*
X015797Y012401D01*
X015797Y012559D02*
X014124Y012559D01*
X014216Y012718D02*
X015267Y012718D01*
X015267Y012580D02*
X015797Y012580D01*
X015797Y013110D01*
X015424Y013110D01*
X015378Y013098D01*
X015337Y013074D01*
X015303Y013041D01*
X015280Y013000D01*
X015267Y012954D01*
X015267Y012580D01*
X015267Y012876D02*
X014280Y012876D01*
X014323Y013035D02*
X015300Y013035D01*
X015797Y013035D02*
X015837Y013035D01*
X015837Y012876D02*
X015797Y012876D01*
X015797Y012718D02*
X015837Y012718D01*
X016367Y012876D02*
X016427Y012876D01*
X016335Y013035D02*
X017486Y013035D01*
X017331Y012876D02*
X017207Y012876D01*
X017247Y012084D02*
X017488Y012084D01*
X018272Y012084D02*
X018388Y012084D01*
X018495Y011977D02*
X018495Y011977D01*
X018422Y011925D02*
X018272Y011925D01*
X018272Y011767D02*
X018323Y011767D01*
X018323Y011608D02*
X018272Y011608D01*
X018272Y011450D02*
X018323Y011450D01*
X018323Y011291D02*
X018272Y011291D01*
X018272Y011133D02*
X018323Y011133D01*
X018323Y010974D02*
X018272Y010974D01*
X018272Y010816D02*
X018323Y010816D01*
X018323Y010657D02*
X018272Y010657D01*
X018272Y010499D02*
X018323Y010499D01*
X018323Y010340D02*
X018272Y010340D01*
X018272Y010182D02*
X018323Y010182D01*
X018323Y010023D02*
X018272Y010023D01*
X018272Y009865D02*
X018323Y009865D01*
X018323Y009706D02*
X018272Y009706D01*
X018272Y009548D02*
X018323Y009548D01*
X018323Y009389D02*
X018272Y009389D01*
X018272Y009231D02*
X018323Y009231D01*
X018323Y009072D02*
X018272Y009072D01*
X018272Y008914D02*
X018323Y008914D01*
X018323Y008755D02*
X018272Y008755D01*
X018272Y008597D02*
X018323Y008597D01*
X018323Y008438D02*
X018272Y008438D01*
X018272Y008280D02*
X018323Y008280D01*
X018823Y008681D02*
X018823Y008764D01*
X018882Y008705D01*
X018823Y008681D01*
X018823Y008755D02*
X018832Y008755D01*
X019439Y008661D02*
X019534Y008700D01*
X019565Y008731D01*
X019565Y008535D01*
X019439Y008661D01*
X019503Y008597D02*
X019565Y008597D01*
X019564Y007830D02*
X019564Y007636D01*
X019534Y007666D01*
X019439Y007705D01*
X019564Y007830D01*
X019564Y007804D02*
X019539Y007804D01*
X019554Y007646D02*
X019564Y007646D01*
X018667Y007360D02*
X018641Y007296D01*
X018641Y007070D01*
X018728Y006860D01*
X018882Y006705D01*
X018788Y006666D01*
X018628Y006506D01*
X018570Y006366D01*
X018402Y006664D01*
X018402Y007142D01*
X018330Y007213D01*
X018346Y007229D01*
X018369Y007270D01*
X018382Y007315D01*
X018382Y007407D01*
X018392Y007396D01*
X018510Y007348D01*
X018637Y007348D01*
X018667Y007360D01*
X018654Y007329D02*
X018382Y007329D01*
X018373Y007170D02*
X018641Y007170D01*
X018665Y007012D02*
X018402Y007012D01*
X018402Y006853D02*
X018734Y006853D01*
X018858Y006695D02*
X018402Y006695D01*
X018474Y006536D02*
X018658Y006536D01*
X018575Y006378D02*
X018563Y006378D01*
X018076Y006166D02*
X018137Y005921D01*
X018142Y005794D01*
X018142Y005789D01*
X018141Y005743D01*
X018139Y005663D01*
X018104Y005605D01*
X017947Y005424D01*
X017751Y005288D01*
X017668Y005250D01*
X017657Y005249D01*
X017627Y005232D01*
X017594Y005220D01*
X017581Y005208D01*
X016083Y004404D01*
X016049Y004391D01*
X016038Y004380D01*
X016024Y004373D01*
X016003Y004348D01*
X015772Y004142D01*
X015244Y003776D01*
X014665Y003500D01*
X014048Y003321D01*
X013411Y003243D01*
X013127Y003243D01*
X013122Y003244D01*
X013080Y003243D01*
X013038Y003245D01*
X013029Y003241D01*
X011961Y003203D01*
X011718Y003217D01*
X011241Y003326D01*
X010801Y003538D01*
X010418Y003843D01*
X010113Y004226D01*
X009901Y004667D01*
X009792Y005143D01*
X009788Y005215D01*
X010276Y005215D01*
X010393Y005332D01*
X010393Y005359D01*
X010978Y005359D01*
X010978Y003904D01*
X011095Y003787D01*
X012021Y003787D01*
X012138Y003904D01*
X012138Y005125D01*
X012236Y005127D01*
X012677Y005233D01*
X012972Y005376D01*
X012364Y004685D01*
X012332Y004650D01*
X012331Y004648D01*
X012329Y004646D01*
X012314Y004601D01*
X012298Y004556D01*
X012298Y004554D01*
X012297Y004552D01*
X012300Y004505D01*
X012326Y003927D01*
X012267Y003867D01*
X012209Y003728D01*
X012209Y003576D01*
X012267Y003437D01*
X012374Y003330D01*
X012513Y003272D01*
X012665Y003272D01*
X012804Y003330D01*
X012911Y003437D01*
X012969Y003576D01*
X012969Y003728D01*
X012911Y003867D01*
X012826Y003953D01*
X012804Y004429D01*
X013859Y005626D01*
X013859Y005384D01*
X013869Y005374D01*
X013845Y005295D01*
X013694Y005062D01*
X013628Y004996D01*
X013549Y004996D01*
X013431Y004947D01*
X013341Y004857D01*
X013293Y004739D01*
X013293Y004612D01*
X013341Y004494D01*
X013431Y004404D01*
X013549Y004356D01*
X013676Y004356D01*
X013794Y004404D01*
X013884Y004494D01*
X013933Y004612D01*
X013933Y004647D01*
X013967Y004677D01*
X014052Y004749D01*
X014052Y004749D01*
X014052Y004749D01*
X014249Y005053D01*
X014249Y004898D01*
X014208Y004857D01*
X014159Y004739D01*
X014159Y004612D01*
X014208Y004494D01*
X014298Y004404D01*
X014415Y004356D01*
X014542Y004356D01*
X014636Y004395D01*
X014730Y004356D01*
X014857Y004356D01*
X014951Y004395D01*
X015045Y004356D01*
X015172Y004356D01*
X015290Y004404D01*
X015306Y004420D01*
X015321Y004404D01*
X015439Y004356D01*
X015566Y004356D01*
X015684Y004404D01*
X015774Y004494D01*
X015822Y004612D01*
X015822Y004739D01*
X015774Y004857D01*
X015732Y004898D01*
X015732Y004916D01*
X015754Y004907D01*
X015881Y004907D01*
X015975Y004946D01*
X016069Y004907D01*
X016196Y004907D01*
X016314Y004956D01*
X016404Y005046D01*
X016452Y005163D01*
X016452Y005267D01*
X016566Y005267D01*
X016683Y005384D01*
X016683Y005627D01*
X017209Y005627D01*
X017250Y005585D01*
X017368Y005537D01*
X017495Y005537D01*
X017613Y005585D01*
X017703Y005675D01*
X017752Y005793D01*
X017752Y005920D01*
X017715Y006009D01*
X017810Y006009D01*
X017928Y006058D01*
X018018Y006148D01*
X018047Y006218D01*
X018076Y006166D01*
X018102Y006061D02*
X017931Y006061D01*
X017752Y005902D02*
X018138Y005902D01*
X018141Y005744D02*
X017731Y005744D01*
X017613Y005585D02*
X018088Y005585D01*
X017950Y005427D02*
X016683Y005427D01*
X016683Y005585D02*
X017250Y005585D01*
X017709Y005268D02*
X016568Y005268D01*
X016430Y005110D02*
X017398Y005110D01*
X017103Y004951D02*
X016304Y004951D01*
X016512Y004634D02*
X015822Y004634D01*
X015800Y004793D02*
X016807Y004793D01*
X017316Y004476D02*
X018541Y004476D01*
X018541Y004634D02*
X017612Y004634D01*
X017843Y004758D02*
X017999Y004818D01*
X018302Y005029D01*
X018545Y005307D01*
X018608Y005432D01*
X018613Y005437D01*
X018632Y005478D01*
X018652Y005518D01*
X018652Y005525D01*
X018655Y005531D01*
X018656Y005576D01*
X018660Y005621D01*
X018658Y005628D01*
X018663Y005825D01*
X018788Y005700D01*
X018882Y005661D01*
X018728Y005506D01*
X018641Y005296D01*
X018641Y005070D01*
X018728Y004860D01*
X018835Y004753D01*
X018658Y004753D01*
X018541Y004636D01*
X018541Y003730D01*
X018658Y003613D01*
X019558Y003613D01*
X019554Y001005D01*
X018540Y001005D01*
X018780Y001070D01*
X019065Y001234D01*
X019298Y001467D01*
X019463Y001752D01*
X019548Y002070D01*
X019548Y002399D01*
X019463Y002717D01*
X019298Y003002D01*
X019065Y003235D01*
X018780Y003400D01*
X018462Y003485D01*
X018133Y003485D01*
X017815Y003400D01*
X017530Y003235D01*
X017297Y003002D01*
X017133Y002717D01*
X017048Y002399D01*
X017048Y002070D01*
X017133Y001752D01*
X017297Y001467D01*
X017530Y001234D01*
X017815Y001070D01*
X018056Y001005D01*
X016235Y001005D01*
X016384Y001067D01*
X016544Y001228D01*
X016631Y001437D01*
X016631Y001664D01*
X016544Y001873D01*
X016384Y002034D01*
X016174Y002120D01*
X015948Y002120D01*
X015738Y002034D01*
X015583Y001879D01*
X015544Y001973D01*
X015384Y002134D01*
X015174Y002220D01*
X014948Y002220D01*
X014738Y002134D01*
X014578Y001973D01*
X014539Y001879D01*
X014384Y002034D01*
X014174Y002120D01*
X013948Y002120D01*
X013738Y002034D01*
X013583Y001879D01*
X013544Y001973D01*
X013384Y002134D01*
X013174Y002220D01*
X012948Y002220D01*
X012738Y002134D01*
X012578Y001973D01*
X012539Y001879D01*
X012384Y002034D01*
X012174Y002120D01*
X011948Y002120D01*
X011738Y002034D01*
X011583Y001879D01*
X011544Y001973D01*
X011384Y002134D01*
X011174Y002220D01*
X010948Y002220D01*
X010738Y002134D01*
X010578Y001973D01*
X010539Y001879D01*
X010384Y002034D01*
X010174Y002120D01*
X009948Y002120D01*
X009738Y002034D01*
X009631Y001927D01*
X009631Y002103D01*
X009514Y002220D01*
X008608Y002220D01*
X008491Y002103D01*
X008491Y001198D01*
X008608Y001080D01*
X009514Y001080D01*
X009619Y001186D01*
X009738Y001067D01*
X009887Y001005D01*
X007236Y001005D01*
X007237Y001006D01*
X007261Y001047D01*
X007273Y001093D01*
X007273Y001467D01*
X006743Y001467D01*
X006743Y001507D01*
X006703Y001507D01*
X006703Y002037D01*
X006329Y002037D01*
X006283Y002024D01*
X006242Y002001D01*
X006209Y001967D01*
X006185Y001926D01*
X006173Y001880D01*
X006173Y001803D01*
X006142Y001845D01*
X006081Y001906D01*
X006011Y001957D01*
X005934Y001996D01*
X005852Y002023D01*
X005766Y002037D01*
X005743Y002037D01*
X005743Y001507D01*
X005703Y001507D01*
X005703Y002037D01*
X005697Y002037D01*
X005698Y002038D01*
X005710Y002083D01*
X005710Y002382D01*
X005360Y002382D01*
X005360Y001927D01*
X005394Y001927D01*
X005365Y001906D01*
X005303Y001845D01*
X005253Y001775D01*
X005235Y001740D01*
X005206Y001810D01*
X005046Y001970D01*
X005039Y001973D01*
X005044Y001978D01*
X005059Y001963D01*
X005101Y001939D01*
X005146Y001927D01*
X005340Y001927D01*
X005340Y002382D01*
X005360Y002382D01*
X005360Y002402D01*
X005710Y002402D01*
X005710Y002701D01*
X005698Y002747D01*
X005674Y002788D01*
X005641Y002821D01*
X005599Y002845D01*
X005554Y002857D01*
X005360Y002857D01*
X005360Y002402D01*
X005340Y002402D01*
X005340Y002857D01*
X005146Y002857D01*
X005101Y002845D01*
X005059Y002821D01*
X005044Y002806D01*
X004973Y002877D01*
X004970Y002877D01*
X004970Y005708D01*
X004980Y005856D01*
X005056Y006141D01*
X005204Y006397D01*
X005302Y006509D01*
X005392Y006588D01*
X005600Y006708D01*
X005832Y006770D01*
X005952Y006778D01*
X007144Y006778D01*
X007159Y006741D01*
X007299Y006601D01*
X007483Y006524D01*
X008282Y006524D01*
X008466Y006601D01*
X008583Y006718D01*
X008633Y006668D01*
X008617Y006652D01*
X008594Y006611D01*
X008581Y006565D01*
X008581Y006372D01*
X009036Y006372D01*
X009036Y006352D01*
X008581Y006352D01*
X008581Y006292D01*
X008549Y006337D01*
X008495Y006391D01*
X008434Y006435D01*
X008367Y006469D01*
X008295Y006493D01*
X008220Y006504D01*
X007903Y006504D01*
X007903Y006044D01*
X008644Y006044D01*
X008651Y006038D01*
X008692Y006014D01*
X008738Y006002D01*
X009036Y006002D01*
X009036Y006352D01*
X009056Y006352D01*
X009056Y006002D01*
X009258Y006002D01*
X009258Y005907D01*
X009056Y005907D01*
X009056Y005557D01*
X009036Y005557D01*
X009036Y005907D01*
X008737Y005907D01*
X008691Y005895D01*
X008650Y005871D01*
X008631Y005852D01*
X008651Y005912D01*
X008663Y005987D01*
X008663Y006004D01*
X007903Y006004D01*
X007903Y005544D01*
X008220Y005544D01*
X008295Y005556D01*
X008367Y005580D01*
X008434Y005614D01*
X008495Y005658D01*
X008549Y005712D01*
X008583Y005759D01*
X008581Y005751D01*
X008581Y005557D01*
X009036Y005557D01*
X009036Y005537D01*
X008581Y005537D01*
X008581Y005343D01*
X008584Y005330D01*
X008466Y005448D01*
X008282Y005524D01*
X007483Y005524D01*
X007299Y005448D01*
X007159Y005308D01*
X007083Y005124D01*
X007083Y004925D01*
X007159Y004741D01*
X007299Y004601D01*
X007483Y004524D01*
X007623Y004524D01*
X007623Y004520D01*
X007565Y004462D01*
X007565Y003236D01*
X007682Y003119D01*
X008207Y003119D01*
X008325Y003236D01*
X008325Y004462D01*
X008262Y004524D01*
X008282Y004524D01*
X008466Y004601D01*
X008561Y004696D01*
X008561Y004644D01*
X008678Y004527D01*
X008761Y004527D01*
X008754Y004523D01*
X008721Y004489D01*
X008697Y004448D01*
X008685Y004403D01*
X008685Y003859D01*
X009035Y003859D01*
X009035Y003839D01*
X009055Y003839D01*
X009055Y003859D01*
X009405Y003859D01*
X009405Y004403D01*
X009392Y004448D01*
X009369Y004489D01*
X009335Y004523D01*
X009328Y004527D01*
X009385Y004527D01*
X009394Y004489D01*
X009658Y003940D01*
X010038Y003463D01*
X010515Y003083D01*
X011064Y002819D01*
X011658Y002683D01*
X011916Y002683D01*
X011920Y002682D01*
X011968Y002683D01*
X012015Y002683D01*
X012019Y002685D01*
X013079Y002723D01*
X013433Y002709D01*
X014156Y002797D01*
X014855Y003001D01*
X015512Y003314D01*
X016111Y003728D01*
X016347Y003956D01*
X017843Y004758D01*
X017934Y004793D02*
X018795Y004793D01*
X018690Y004951D02*
X018191Y004951D01*
X018302Y005029D02*
X018302Y005029D01*
X018373Y005110D02*
X018641Y005110D01*
X018641Y005268D02*
X018511Y005268D01*
X018545Y005307D02*
X018545Y005307D01*
X018606Y005427D02*
X018695Y005427D01*
X018657Y005585D02*
X018807Y005585D01*
X018744Y005744D02*
X018661Y005744D01*
X019439Y005705D02*
X019561Y005827D01*
X019561Y005639D01*
X019534Y005666D01*
X019439Y005705D01*
X019478Y005744D02*
X019561Y005744D01*
X019562Y006538D02*
X019439Y006661D01*
X019534Y006700D01*
X019562Y006728D01*
X019562Y006538D01*
X019562Y006695D02*
X019522Y006695D01*
X017999Y004818D02*
X017999Y004818D01*
X018541Y004317D02*
X017021Y004317D01*
X016725Y004159D02*
X018541Y004159D01*
X018541Y004000D02*
X016430Y004000D01*
X016229Y003842D02*
X018541Y003842D01*
X018587Y003683D02*
X016046Y003683D01*
X016111Y003728D02*
X016111Y003728D01*
X015817Y003525D02*
X019558Y003525D01*
X019557Y003366D02*
X018837Y003366D01*
X019092Y003208D02*
X019557Y003208D01*
X019557Y003049D02*
X019251Y003049D01*
X019362Y002891D02*
X019557Y002891D01*
X019557Y002732D02*
X019454Y002732D01*
X019501Y002574D02*
X019556Y002574D01*
X019543Y002415D02*
X019556Y002415D01*
X019548Y002257D02*
X019556Y002257D01*
X019548Y002098D02*
X019556Y002098D01*
X019555Y001940D02*
X019513Y001940D01*
X019470Y001781D02*
X019555Y001781D01*
X019555Y001623D02*
X019388Y001623D01*
X019295Y001464D02*
X019555Y001464D01*
X019555Y001306D02*
X019137Y001306D01*
X018915Y001147D02*
X019554Y001147D01*
X017681Y001147D02*
X016464Y001147D01*
X016577Y001306D02*
X017459Y001306D01*
X017300Y001464D02*
X016631Y001464D01*
X016631Y001623D02*
X017208Y001623D01*
X017125Y001781D02*
X016582Y001781D01*
X016478Y001940D02*
X017083Y001940D01*
X017048Y002098D02*
X016228Y002098D01*
X015894Y002098D02*
X015419Y002098D01*
X015558Y001940D02*
X015644Y001940D01*
X015539Y001322D02*
X015578Y001228D01*
X015738Y001067D01*
X015887Y001005D01*
X014235Y001005D01*
X014384Y001067D01*
X014544Y001228D01*
X014583Y001322D01*
X014738Y001167D01*
X014948Y001080D01*
X015174Y001080D01*
X015384Y001167D01*
X015539Y001322D01*
X015545Y001306D02*
X015523Y001306D01*
X015658Y001147D02*
X015336Y001147D01*
X014786Y001147D02*
X014464Y001147D01*
X014577Y001306D02*
X014599Y001306D01*
X014564Y001940D02*
X014478Y001940D01*
X014703Y002098D02*
X014228Y002098D01*
X013894Y002098D02*
X013419Y002098D01*
X013558Y001940D02*
X013644Y001940D01*
X013539Y001322D02*
X013578Y001228D01*
X013738Y001067D01*
X013887Y001005D01*
X012235Y001005D01*
X012384Y001067D01*
X012544Y001228D01*
X012583Y001322D01*
X012738Y001167D01*
X012948Y001080D01*
X013174Y001080D01*
X013384Y001167D01*
X013539Y001322D01*
X013545Y001306D02*
X013523Y001306D01*
X013658Y001147D02*
X013336Y001147D01*
X012786Y001147D02*
X012464Y001147D01*
X012577Y001306D02*
X012599Y001306D01*
X012564Y001940D02*
X012478Y001940D01*
X012703Y002098D02*
X012228Y002098D01*
X011894Y002098D02*
X011419Y002098D01*
X011558Y001940D02*
X011644Y001940D01*
X011539Y001322D02*
X011578Y001228D01*
X011738Y001067D01*
X011887Y001005D01*
X010235Y001005D01*
X010384Y001067D01*
X010544Y001228D01*
X010583Y001322D01*
X010738Y001167D01*
X010948Y001080D01*
X011174Y001080D01*
X011384Y001167D01*
X011539Y001322D01*
X011545Y001306D02*
X011523Y001306D01*
X011658Y001147D02*
X011336Y001147D01*
X010786Y001147D02*
X010464Y001147D01*
X010577Y001306D02*
X010599Y001306D01*
X010564Y001940D02*
X010478Y001940D01*
X010703Y002098D02*
X010228Y002098D01*
X009894Y002098D02*
X009631Y002098D01*
X009631Y001940D02*
X009644Y001940D01*
X009658Y001147D02*
X009581Y001147D01*
X008541Y001147D02*
X007273Y001147D01*
X007273Y001306D02*
X008491Y001306D01*
X008491Y001464D02*
X007273Y001464D01*
X007273Y001507D02*
X007273Y001880D01*
X007261Y001926D01*
X007237Y001967D01*
X007203Y002001D01*
X007162Y002024D01*
X007117Y002037D01*
X006743Y002037D01*
X006743Y001507D01*
X007273Y001507D01*
X007273Y001623D02*
X008491Y001623D01*
X008491Y001781D02*
X007273Y001781D01*
X007253Y001940D02*
X008491Y001940D01*
X008491Y002098D02*
X005710Y002098D01*
X005703Y001940D02*
X005743Y001940D01*
X005743Y001781D02*
X005703Y001781D01*
X005703Y001623D02*
X005743Y001623D01*
X005743Y001507D02*
X006273Y001507D01*
X006703Y001507D01*
X006703Y001467D01*
X005743Y001467D01*
X005743Y001507D01*
X006173Y001170D02*
X006142Y001128D01*
X006081Y001067D01*
X006011Y001016D01*
X005990Y001005D01*
X006210Y001005D01*
X006209Y001006D01*
X006185Y001047D01*
X006173Y001093D01*
X006173Y001170D01*
X006173Y001147D02*
X006156Y001147D01*
X005456Y001005D02*
X005048Y001005D01*
X005206Y001164D01*
X005235Y001233D01*
X005253Y001198D01*
X005303Y001128D01*
X005365Y001067D01*
X005435Y001016D01*
X005456Y001005D01*
X005290Y001147D02*
X005190Y001147D01*
X005218Y001781D02*
X005257Y001781D01*
X005340Y001940D02*
X005360Y001940D01*
X005360Y002098D02*
X005340Y002098D01*
X005340Y002257D02*
X005360Y002257D01*
X005360Y002415D02*
X005340Y002415D01*
X005340Y002574D02*
X005360Y002574D01*
X005360Y002732D02*
X005340Y002732D01*
X005702Y002732D02*
X011443Y002732D01*
X011064Y002819D02*
X011064Y002819D01*
X010915Y002891D02*
X004970Y002891D01*
X004970Y003049D02*
X010585Y003049D01*
X010515Y003083D02*
X010515Y003083D01*
X010359Y003208D02*
X009368Y003208D01*
X009369Y003208D02*
X009392Y003249D01*
X009405Y003295D01*
X009405Y003839D01*
X009055Y003839D01*
X009055Y003139D01*
X009248Y003139D01*
X009294Y003151D01*
X009335Y003175D01*
X009369Y003208D01*
X009405Y003366D02*
X010160Y003366D01*
X010038Y003463D02*
X010038Y003463D01*
X009989Y003525D02*
X009405Y003525D01*
X009405Y003683D02*
X009863Y003683D01*
X009736Y003842D02*
X009055Y003842D01*
X009035Y003842D02*
X008325Y003842D01*
X008325Y004000D02*
X008685Y004000D01*
X008685Y004159D02*
X008325Y004159D01*
X008325Y004317D02*
X008685Y004317D01*
X008713Y004476D02*
X008310Y004476D01*
X008500Y004634D02*
X008570Y004634D01*
X009376Y004476D02*
X009400Y004476D01*
X009394Y004489D02*
X009394Y004489D01*
X009405Y004317D02*
X009477Y004317D01*
X009405Y004159D02*
X009553Y004159D01*
X009629Y004000D02*
X009405Y004000D01*
X009658Y003940D02*
X009658Y003940D01*
X010069Y004317D02*
X010978Y004317D01*
X010978Y004159D02*
X010166Y004159D01*
X010293Y004000D02*
X010978Y004000D01*
X011040Y003842D02*
X010420Y003842D01*
X010619Y003683D02*
X012209Y003683D01*
X012230Y003525D02*
X010828Y003525D01*
X011157Y003366D02*
X012337Y003366D01*
X012088Y003208D02*
X011881Y003208D01*
X012076Y003842D02*
X012256Y003842D01*
X012323Y004000D02*
X012138Y004000D01*
X012138Y004159D02*
X012316Y004159D01*
X012309Y004317D02*
X012138Y004317D01*
X012138Y004476D02*
X012301Y004476D01*
X012325Y004634D02*
X012138Y004634D01*
X012138Y004793D02*
X012459Y004793D01*
X012598Y004951D02*
X012138Y004951D01*
X012138Y005110D02*
X012738Y005110D01*
X012677Y005233D02*
X012677Y005233D01*
X012749Y005268D02*
X012877Y005268D01*
X013265Y004951D02*
X013442Y004951D01*
X013404Y005110D02*
X013726Y005110D01*
X013828Y005268D02*
X013544Y005268D01*
X013683Y005427D02*
X013859Y005427D01*
X013859Y005585D02*
X013823Y005585D01*
X014183Y004951D02*
X014249Y004951D01*
X014181Y004793D02*
X014080Y004793D01*
X013967Y004677D02*
X013967Y004677D01*
X013933Y004634D02*
X014159Y004634D01*
X014226Y004476D02*
X013866Y004476D01*
X013360Y004476D02*
X012846Y004476D01*
X012809Y004317D02*
X015969Y004317D01*
X015791Y004159D02*
X012816Y004159D01*
X012823Y004000D02*
X015568Y004000D01*
X015339Y003842D02*
X012922Y003842D01*
X012969Y003683D02*
X015049Y003683D01*
X014716Y003525D02*
X012948Y003525D01*
X012841Y003366D02*
X014205Y003366D01*
X014478Y002891D02*
X017233Y002891D01*
X017142Y002732D02*
X013628Y002732D01*
X013433Y002709D02*
X013433Y002709D01*
X014156Y002797D02*
X014156Y002797D01*
X014855Y003001D02*
X014855Y003001D01*
X014958Y003049D02*
X017345Y003049D01*
X017503Y003208D02*
X015290Y003208D01*
X015512Y003314D02*
X015512Y003314D01*
X015588Y003366D02*
X017758Y003366D01*
X017095Y002574D02*
X005710Y002574D01*
X005710Y002415D02*
X017052Y002415D01*
X017048Y002257D02*
X005710Y002257D01*
X006035Y001940D02*
X006193Y001940D01*
X006703Y001940D02*
X006743Y001940D01*
X006743Y001781D02*
X006703Y001781D01*
X006703Y001623D02*
X006743Y001623D01*
X005100Y001940D02*
X005076Y001940D01*
X004370Y001940D02*
X004076Y001940D01*
X004218Y001781D02*
X004228Y001781D01*
X004330Y002098D02*
X002959Y002098D01*
X002973Y002149D02*
X002888Y001831D01*
X002723Y001546D01*
X002490Y001313D01*
X002205Y001149D01*
X001887Y001063D01*
X001558Y001063D01*
X001240Y001149D01*
X000955Y001313D01*
X000723Y001546D01*
X000558Y001831D01*
X000473Y002149D01*
X000473Y002478D01*
X000558Y002796D01*
X000723Y003081D01*
X000955Y003314D01*
X001240Y003478D01*
X001558Y003563D01*
X001887Y003563D01*
X002205Y003478D01*
X002490Y003314D01*
X002723Y003081D01*
X002888Y002796D01*
X002973Y002478D01*
X002973Y002149D01*
X002973Y002257D02*
X004330Y002257D01*
X004330Y002415D02*
X002973Y002415D01*
X002947Y002574D02*
X004330Y002574D01*
X004330Y002732D02*
X002905Y002732D01*
X002833Y002891D02*
X004450Y002891D01*
X004450Y003049D02*
X002741Y003049D01*
X002596Y003208D02*
X004450Y003208D01*
X004450Y003366D02*
X002399Y003366D01*
X002031Y003525D02*
X004450Y003525D01*
X004450Y003683D02*
X000408Y003683D01*
X000408Y003525D02*
X001415Y003525D01*
X001047Y003366D02*
X000408Y003366D01*
X000408Y003208D02*
X000850Y003208D01*
X000704Y003049D02*
X000409Y003049D01*
X000409Y002891D02*
X000613Y002891D01*
X000541Y002732D02*
X000409Y002732D01*
X000409Y002574D02*
X000499Y002574D01*
X000473Y002415D02*
X000409Y002415D01*
X000409Y002257D02*
X000473Y002257D01*
X000486Y002098D02*
X000409Y002098D01*
X000409Y001940D02*
X000529Y001940D01*
X000587Y001781D02*
X000409Y001781D01*
X000409Y001623D02*
X000678Y001623D01*
X000804Y001464D02*
X000410Y001464D01*
X000410Y001306D02*
X000968Y001306D01*
X001245Y001147D02*
X000410Y001147D01*
X002201Y001147D02*
X003256Y001147D01*
X003181Y001306D02*
X002478Y001306D01*
X002642Y001464D02*
X003153Y001464D01*
X003162Y001623D02*
X002768Y001623D01*
X002859Y001781D02*
X003228Y001781D01*
X003370Y001940D02*
X002917Y001940D01*
X004048Y001005D02*
X004206Y001164D01*
X004223Y001204D01*
X004240Y001164D01*
X004398Y001005D01*
X004048Y001005D01*
X004190Y001147D02*
X004256Y001147D01*
X004970Y003208D02*
X007593Y003208D01*
X007565Y003366D02*
X004970Y003366D01*
X004970Y003525D02*
X007565Y003525D01*
X007565Y003683D02*
X004970Y003683D01*
X004970Y003842D02*
X007565Y003842D01*
X007565Y004000D02*
X004970Y004000D01*
X004970Y004159D02*
X007565Y004159D01*
X007565Y004317D02*
X004970Y004317D01*
X004970Y004476D02*
X007579Y004476D01*
X007266Y004634D02*
X004970Y004634D01*
X004970Y004793D02*
X007137Y004793D01*
X007083Y004951D02*
X004970Y004951D01*
X004970Y005110D02*
X007083Y005110D01*
X007142Y005268D02*
X004970Y005268D01*
X004970Y005427D02*
X007278Y005427D01*
X007387Y005585D02*
X004970Y005585D01*
X004972Y005744D02*
X007193Y005744D01*
X007172Y005773D02*
X007216Y005712D01*
X007270Y005658D01*
X007331Y005614D01*
X007398Y005580D01*
X007470Y005556D01*
X007545Y005544D01*
X007863Y005544D01*
X007863Y006004D01*
X007903Y006004D01*
X007903Y006044D01*
X007863Y006044D01*
X007863Y006004D01*
X007103Y006004D01*
X007103Y005987D01*
X007114Y005912D01*
X007138Y005840D01*
X007172Y005773D01*
X007118Y005902D02*
X004992Y005902D01*
X005035Y006061D02*
X007103Y006061D01*
X007103Y006062D02*
X007103Y006044D01*
X007863Y006044D01*
X007863Y006504D01*
X007545Y006504D01*
X007470Y006493D01*
X007398Y006469D01*
X007331Y006435D01*
X007270Y006391D01*
X007216Y006337D01*
X007172Y006276D01*
X007138Y006209D01*
X007114Y006137D01*
X007103Y006062D01*
X007143Y006219D02*
X005101Y006219D01*
X005193Y006378D02*
X007257Y006378D01*
X007454Y006536D02*
X005333Y006536D01*
X005302Y006509D02*
X005302Y006509D01*
X005577Y006695D02*
X007205Y006695D01*
X007863Y006378D02*
X007903Y006378D01*
X007903Y006219D02*
X007863Y006219D01*
X007863Y006061D02*
X007903Y006061D01*
X007903Y005902D02*
X007863Y005902D01*
X007863Y005744D02*
X007903Y005744D01*
X007903Y005585D02*
X007863Y005585D01*
X008378Y005585D02*
X008581Y005585D01*
X008581Y005427D02*
X008487Y005427D01*
X008572Y005744D02*
X008581Y005744D01*
X008648Y005902D02*
X008721Y005902D01*
X009036Y005902D02*
X009056Y005902D01*
X009056Y005744D02*
X009036Y005744D01*
X009036Y005585D02*
X009056Y005585D01*
X009036Y006061D02*
X009056Y006061D01*
X009056Y006219D02*
X009036Y006219D01*
X008581Y006378D02*
X008508Y006378D01*
X008581Y006536D02*
X008311Y006536D01*
X008560Y006695D02*
X008605Y006695D01*
X009006Y006998D02*
X009006Y007038D01*
X009006Y008407D01*
X009286Y008413D02*
X009286Y008463D01*
X009284Y008468D01*
X009279Y008598D01*
X009279Y008598D01*
X009255Y008670D01*
X009274Y008670D01*
X009274Y009125D01*
X009294Y009125D01*
X009294Y008670D01*
X009488Y008670D01*
X009533Y008683D01*
X009574Y008706D01*
X009608Y008740D01*
X009632Y008781D01*
X009644Y008827D01*
X009644Y009125D01*
X009294Y009125D01*
X009294Y009145D01*
X009644Y009145D01*
X009644Y009444D01*
X009632Y009490D01*
X009608Y009531D01*
X009574Y009564D01*
X009533Y009588D01*
X009488Y009600D01*
X009294Y009600D01*
X009294Y009145D01*
X009274Y009145D01*
X009274Y009600D01*
X009080Y009600D01*
X009034Y009588D01*
X008993Y009564D01*
X008978Y009549D01*
X008926Y009601D01*
X009021Y009601D01*
X009138Y009718D01*
X009138Y010094D01*
X009076Y010156D01*
X009138Y010218D01*
X009138Y010594D01*
X009076Y010656D01*
X009138Y010718D01*
X009138Y011094D01*
X009062Y011170D01*
X009082Y011190D01*
X009106Y011231D01*
X009118Y011277D01*
X009118Y011406D01*
X009118Y011535D01*
X009106Y011580D01*
X009082Y011621D01*
X009049Y011655D01*
X009008Y011679D01*
X008962Y011691D01*
X008548Y011691D01*
X008134Y011691D01*
X008089Y011679D01*
X008058Y011661D01*
X008095Y011908D01*
X008156Y012048D01*
X008156Y011816D01*
X008273Y011699D01*
X008795Y011699D01*
X008912Y011816D01*
X008912Y011817D01*
X010345Y011817D01*
X010350Y011815D01*
X010396Y011817D01*
X010419Y011817D01*
X010679Y011814D01*
X011226Y011724D01*
X011743Y011525D01*
X012210Y011226D01*
X012414Y011045D01*
X012576Y010866D01*
X012576Y010866D01*
X012576Y010866D01*
X013005Y010593D01*
X013458Y010456D01*
X013365Y010456D01*
X013319Y010443D01*
X013278Y010420D01*
X013244Y010386D01*
X013221Y010345D01*
X013208Y010299D01*
X013208Y010001D01*
X013558Y010001D01*
X013558Y009981D01*
X013208Y009981D01*
X013208Y009768D01*
X013013Y009768D01*
X012673Y009632D01*
X012445Y009414D01*
X012334Y009368D01*
X012228Y009261D01*
X012170Y009121D01*
X012170Y008970D01*
X012228Y008830D01*
X012334Y008724D01*
X012474Y008666D01*
X012617Y008666D01*
X012582Y008631D01*
X012524Y008491D01*
X012524Y008340D01*
X012582Y008201D01*
X012689Y008094D01*
X012828Y008036D01*
X012980Y008036D01*
X013119Y008094D01*
X013131Y008105D01*
X013131Y008001D01*
X013151Y007981D01*
X013151Y007879D01*
X013151Y007777D01*
X013131Y007757D01*
X013131Y007371D01*
X013151Y007351D01*
X013151Y007249D01*
X013151Y007147D01*
X013131Y007127D01*
X013131Y006954D01*
X013089Y006963D01*
X012792Y007093D01*
X012527Y007279D01*
X012411Y007389D01*
X012407Y007392D01*
X012375Y007426D01*
X012372Y007427D01*
X012117Y007683D01*
X012138Y007704D01*
X012138Y009970D01*
X012021Y010087D01*
X011095Y010087D01*
X011078Y010070D01*
X011078Y010094D01*
X011016Y010156D01*
X011016Y010156D01*
X011606Y010164D01*
X011657Y010164D01*
X011658Y010164D01*
X011660Y010164D01*
X011706Y010184D01*
X011752Y010203D01*
X011753Y010204D01*
X011755Y010205D01*
X011790Y010241D01*
X011868Y010319D01*
X011956Y010319D01*
X012096Y010377D01*
X012203Y010484D01*
X012260Y010624D01*
X012260Y010775D01*
X012203Y010915D01*
X012096Y011021D01*
X011956Y011079D01*
X011813Y011079D01*
X011816Y011084D01*
X011816Y011235D01*
X011758Y011375D01*
X011651Y011482D01*
X011511Y011540D01*
X011360Y011540D01*
X011220Y011482D01*
X011125Y011387D01*
X011115Y011379D01*
X011097Y011372D01*
X011078Y011353D01*
X011078Y011594D01*
X010961Y011711D01*
X010015Y011711D01*
X010010Y011706D01*
X009997Y011718D01*
X009858Y011776D01*
X009706Y011776D01*
X009567Y011718D01*
X009460Y011611D01*
X009402Y011472D01*
X009402Y011321D01*
X009460Y011181D01*
X009567Y011074D01*
X009706Y011016D01*
X009858Y011016D01*
X009898Y011033D01*
X009898Y010718D01*
X009960Y010656D01*
X009898Y010594D01*
X009898Y010218D01*
X009960Y010156D01*
X009898Y010094D01*
X009898Y009718D01*
X010015Y009601D01*
X010111Y009601D01*
X010111Y009470D01*
X010168Y009330D01*
X010275Y009224D01*
X010415Y009166D01*
X010566Y009166D01*
X010706Y009224D01*
X010813Y009330D01*
X010871Y009470D01*
X010871Y009601D01*
X010961Y009601D01*
X010978Y009618D01*
X010978Y008221D01*
X010363Y008221D01*
X010286Y008298D01*
X009647Y008298D01*
X009530Y008181D01*
X009530Y007701D01*
X009647Y007584D01*
X010286Y007584D01*
X010403Y007701D01*
X010403Y007721D01*
X010978Y007721D01*
X010978Y007704D01*
X011095Y007587D01*
X011506Y007587D01*
X012050Y007042D01*
X012195Y006891D01*
X012195Y006891D01*
X012543Y006648D01*
X012931Y006478D01*
X013131Y006434D01*
X013131Y006128D01*
X013085Y006078D01*
X012814Y005865D01*
X012505Y005716D01*
X012170Y005635D01*
X012138Y005633D01*
X012138Y006170D01*
X012021Y006287D01*
X011095Y006287D01*
X010978Y006170D01*
X010978Y005859D01*
X010347Y005859D01*
X010276Y005930D01*
X009778Y005930D01*
X009778Y005944D01*
X009956Y005944D01*
X009956Y006281D01*
X009956Y006618D01*
X009778Y006618D01*
X009778Y006744D01*
X009715Y006895D01*
X009966Y006895D01*
X009966Y007232D01*
X009550Y007232D01*
X009550Y007093D01*
X009531Y007112D01*
X009531Y007265D01*
X009414Y007382D01*
X009286Y007382D01*
X009286Y008357D01*
X009288Y008363D01*
X009286Y008413D01*
X009286Y008438D02*
X010978Y008438D01*
X010978Y008280D02*
X010304Y008280D01*
X009629Y008280D02*
X009286Y008280D01*
X009286Y008121D02*
X009530Y008121D01*
X009530Y007963D02*
X009286Y007963D01*
X009286Y007804D02*
X009530Y007804D01*
X009585Y007646D02*
X009286Y007646D01*
X009286Y007487D02*
X009579Y007487D01*
X009586Y007500D02*
X009563Y007459D01*
X009550Y007414D01*
X009550Y007232D01*
X009966Y007232D01*
X009966Y007232D01*
X009966Y007232D01*
X009966Y006895D01*
X010226Y006895D01*
X010272Y006907D01*
X010313Y006931D01*
X010347Y006964D01*
X010370Y007005D01*
X010383Y007051D01*
X010383Y007232D01*
X009966Y007232D01*
X009966Y007570D01*
X009707Y007570D01*
X009661Y007558D01*
X009620Y007534D01*
X009586Y007500D01*
X009550Y007329D02*
X009467Y007329D01*
X009531Y007170D02*
X009550Y007170D01*
X009732Y006853D02*
X012249Y006853D01*
X012079Y007012D02*
X010372Y007012D01*
X010383Y007170D02*
X011922Y007170D01*
X011763Y007329D02*
X010383Y007329D01*
X010383Y007414D02*
X010370Y007459D01*
X010347Y007500D01*
X010313Y007534D01*
X010272Y007558D01*
X010226Y007570D01*
X009966Y007570D01*
X009966Y007232D01*
X009966Y007232D01*
X009966Y007232D01*
X010383Y007232D01*
X010383Y007414D01*
X010354Y007487D02*
X011605Y007487D01*
X012138Y007804D02*
X013151Y007804D01*
X013151Y007879D02*
X013581Y007879D01*
X013581Y007879D01*
X013151Y007879D01*
X013151Y007963D02*
X012138Y007963D01*
X012138Y008121D02*
X012661Y008121D01*
X012549Y008280D02*
X012138Y008280D01*
X012138Y008438D02*
X012524Y008438D01*
X012568Y008597D02*
X012138Y008597D01*
X012138Y008755D02*
X012303Y008755D01*
X012193Y008914D02*
X012138Y008914D01*
X012138Y009072D02*
X012170Y009072D01*
X012138Y009231D02*
X012215Y009231D01*
X012138Y009389D02*
X012387Y009389D01*
X012585Y009548D02*
X012138Y009548D01*
X012138Y009706D02*
X012859Y009706D01*
X012673Y009632D02*
X012673Y009632D01*
X012138Y009865D02*
X013208Y009865D01*
X013208Y010023D02*
X012084Y010023D01*
X012007Y010340D02*
X013219Y010340D01*
X013208Y010182D02*
X011701Y010182D01*
X011496Y010682D02*
X011036Y010676D01*
X011078Y010718D01*
X011078Y010725D01*
X011083Y010727D01*
X011102Y010748D01*
X011222Y010837D01*
X011360Y010780D01*
X011502Y010780D01*
X011500Y010775D01*
X011500Y010687D01*
X011496Y010682D01*
X011273Y010816D02*
X011194Y010816D01*
X011816Y011133D02*
X012315Y011133D01*
X012478Y010974D02*
X012143Y010974D01*
X012243Y010816D02*
X012655Y010816D01*
X012904Y010657D02*
X012260Y010657D01*
X012209Y010499D02*
X013316Y010499D01*
X013005Y010593D02*
X013005Y010593D01*
X012107Y011291D02*
X011792Y011291D01*
X011860Y011450D02*
X011683Y011450D01*
X011526Y011608D02*
X011064Y011608D01*
X011078Y011450D02*
X011188Y011450D01*
X010965Y011767D02*
X009880Y011767D01*
X009684Y011767D02*
X008863Y011767D01*
X008049Y012419D02*
X008009Y012366D01*
X007973Y012312D01*
X007939Y012256D01*
X007909Y012198D01*
X007881Y012139D01*
X007857Y012078D01*
X007835Y012016D01*
X007817Y011954D01*
X007803Y011890D01*
X007792Y011825D01*
X007784Y011761D01*
X007779Y011695D01*
X007778Y011630D01*
X007780Y011565D01*
X007786Y011499D01*
X007786Y011014D01*
X007798Y010991D01*
X007814Y010970D01*
X007833Y010951D01*
X007854Y010935D01*
X007877Y010923D01*
X007902Y010914D01*
X007928Y010908D01*
X007954Y010906D01*
X008548Y010906D01*
X008548Y010406D02*
X007741Y010406D01*
X007467Y010182D02*
X000404Y010182D01*
X000404Y010340D02*
X007237Y010340D01*
X007286Y010292D02*
X007286Y010292D01*
X007345Y010233D02*
X007345Y010233D01*
X007116Y010461D02*
X007116Y010461D01*
X007094Y010499D02*
X000404Y010499D01*
X000403Y010657D02*
X007003Y010657D01*
X006932Y010780D02*
X006932Y010780D01*
X006922Y010816D02*
X000403Y010816D01*
X000403Y010974D02*
X006880Y010974D01*
X006837Y011133D02*
X000403Y011133D01*
X000403Y011291D02*
X006837Y011291D01*
X006837Y011136D02*
X006837Y011136D01*
X007117Y011320D02*
X007117Y012274D01*
X006834Y012242D02*
X003234Y012242D01*
X003213Y012205D02*
X003390Y012513D01*
X003482Y012856D01*
X003482Y013212D01*
X003390Y013555D01*
X003213Y013863D01*
X002961Y014114D01*
X002653Y014292D01*
X002310Y014384D01*
X001955Y014384D01*
X001611Y014292D01*
X001303Y014114D01*
X001052Y013863D01*
X000874Y013555D01*
X000782Y013212D01*
X000782Y012856D01*
X000874Y012513D01*
X001052Y012205D01*
X001303Y011954D01*
X001611Y011776D01*
X001955Y011684D01*
X002310Y011684D01*
X002653Y011776D01*
X002961Y011954D01*
X003213Y012205D01*
X003092Y012084D02*
X006837Y012084D01*
X006837Y011925D02*
X002912Y011925D01*
X002620Y011767D02*
X006837Y011767D01*
X006837Y011608D02*
X000403Y011608D01*
X000403Y011450D02*
X006837Y011450D01*
X007397Y011450D02*
X007506Y011450D01*
X007506Y011483D02*
X007506Y011065D01*
X007504Y011060D01*
X007506Y011009D01*
X007506Y010959D01*
X007508Y010954D01*
X007508Y010949D01*
X007529Y010903D01*
X007549Y010856D01*
X007552Y010852D01*
X007568Y010817D01*
X007568Y010817D01*
X007693Y010697D01*
X007664Y010710D01*
X007642Y010727D01*
X007570Y010809D01*
X007460Y010999D01*
X007404Y011211D01*
X007397Y011320D01*
X007397Y012259D01*
X007401Y012300D01*
X007397Y012314D01*
X007397Y012330D01*
X007383Y012362D01*
X007372Y012417D01*
X007375Y012548D01*
X007375Y012548D01*
X007419Y012671D01*
X007499Y012774D01*
X007607Y012848D01*
X007650Y012865D01*
X007863Y012776D01*
X008029Y012776D01*
X007885Y012648D01*
X007864Y012636D01*
X007844Y012612D01*
X007821Y012591D01*
X007810Y012568D01*
X007704Y012435D01*
X007544Y012066D01*
X007544Y012066D01*
X007485Y011667D01*
X007506Y011483D01*
X007492Y011608D02*
X007397Y011608D01*
X007485Y011667D02*
X007485Y011667D01*
X007500Y011767D02*
X007397Y011767D01*
X007397Y011925D02*
X007523Y011925D01*
X007552Y012084D02*
X007397Y012084D01*
X007397Y012242D02*
X007621Y012242D01*
X007689Y012401D02*
X007375Y012401D01*
X007380Y012559D02*
X007803Y012559D01*
X007589Y013141D02*
X007542Y013125D01*
X007496Y013106D01*
X007451Y013083D01*
X007408Y013058D01*
X007367Y013030D01*
X007329Y012998D01*
X007292Y012964D01*
X007258Y012928D01*
X007227Y012889D01*
X007199Y012848D01*
X007173Y012805D01*
X007151Y012761D01*
X007132Y012715D01*
X007116Y012667D01*
X007104Y012619D01*
X007095Y012570D01*
X007090Y012520D01*
X007088Y012471D01*
X007090Y012421D01*
X007095Y012371D01*
X007104Y012322D01*
X007116Y012274D01*
X006806Y012401D02*
X003326Y012401D01*
X003403Y012559D02*
X006810Y012559D01*
X006836Y012718D02*
X003445Y012718D01*
X003482Y012876D02*
X004878Y012876D01*
X004887Y012868D02*
X005108Y012776D01*
X005346Y012776D01*
X005567Y012868D01*
X005736Y013037D01*
X005827Y013257D01*
X005827Y013496D01*
X005736Y013716D01*
X005567Y013885D01*
X005346Y013976D01*
X005108Y013976D01*
X004887Y013885D01*
X004718Y013716D01*
X004627Y013496D01*
X004627Y013257D01*
X004718Y013037D01*
X004887Y012868D01*
X004720Y013035D02*
X003482Y013035D01*
X003482Y013193D02*
X004653Y013193D01*
X004627Y013352D02*
X003445Y013352D01*
X003402Y013510D02*
X004633Y013510D01*
X004699Y013669D02*
X003325Y013669D01*
X003233Y013827D02*
X004829Y013827D01*
X005624Y013827D02*
X006239Y013827D01*
X006227Y013819D02*
X006162Y013754D01*
X006109Y013680D01*
X006067Y013599D01*
X006039Y013512D01*
X006025Y013422D01*
X006025Y013415D01*
X006567Y013415D01*
X006567Y013956D01*
X006559Y013956D01*
X006469Y013942D01*
X006382Y013914D01*
X006301Y013872D01*
X006227Y013819D01*
X006103Y013669D02*
X005755Y013669D01*
X005821Y013510D02*
X006039Y013510D01*
X006025Y013338D02*
X006025Y013331D01*
X006039Y013241D01*
X006067Y013154D01*
X006109Y013072D01*
X006162Y012999D01*
X006227Y012934D01*
X006301Y012880D01*
X006382Y012839D01*
X006469Y012811D01*
X006559Y012796D01*
X006567Y012796D01*
X006567Y013338D01*
X006643Y013338D01*
X006643Y013415D01*
X006567Y013415D01*
X006567Y013338D01*
X006025Y013338D01*
X006054Y013193D02*
X005800Y013193D01*
X005827Y013352D02*
X006567Y013352D01*
X006643Y013352D02*
X007342Y013352D01*
X007361Y013365D02*
X007361Y013365D01*
X007389Y013510D02*
X007171Y013510D01*
X007171Y013512D02*
X007142Y013599D01*
X007101Y013680D01*
X007047Y013754D01*
X006983Y013819D01*
X006909Y013872D01*
X006827Y013914D01*
X006741Y013942D01*
X006650Y013956D01*
X006643Y013956D01*
X006643Y013415D01*
X007185Y013415D01*
X007185Y013422D01*
X007171Y013512D01*
X007107Y013669D02*
X007454Y013669D01*
X007585Y013827D02*
X006971Y013827D01*
X006643Y013827D02*
X006567Y013827D01*
X006567Y013669D02*
X006643Y013669D01*
X006643Y013510D02*
X006567Y013510D01*
X006567Y013193D02*
X006643Y013193D01*
X006643Y013035D02*
X006567Y013035D01*
X006567Y012876D02*
X006643Y012876D01*
X006309Y012876D02*
X005575Y012876D01*
X005734Y013035D02*
X006136Y013035D01*
X007456Y012718D02*
X007964Y012718D01*
X008049Y012419D02*
X009124Y013376D01*
X009361Y013376D01*
X009961Y013352D02*
X011649Y013352D01*
X011655Y013510D02*
X009961Y013510D01*
X009961Y013669D02*
X011697Y013669D01*
X011740Y013827D02*
X009961Y013827D01*
X009961Y013193D02*
X011649Y013193D01*
X011674Y013035D02*
X009961Y013035D01*
X009944Y012876D02*
X011717Y012876D01*
X011781Y012718D02*
X008806Y012718D01*
X008628Y012559D02*
X011873Y012559D01*
X011998Y012401D02*
X008849Y012401D01*
X008548Y011691D02*
X008548Y011406D01*
X008548Y011691D01*
X008548Y011608D02*
X008548Y011608D01*
X008548Y011450D02*
X008548Y011450D01*
X008548Y011406D02*
X008548Y011406D01*
X009118Y011406D01*
X008548Y011406D01*
X008548Y011406D01*
X007445Y010529D02*
X007402Y010574D01*
X007361Y010622D01*
X007323Y010672D01*
X007289Y010725D01*
X007257Y010779D01*
X007228Y010834D01*
X007202Y010892D01*
X007180Y010950D01*
X007161Y011010D01*
X007145Y011071D01*
X007133Y011133D01*
X007124Y011195D01*
X007119Y011257D01*
X007117Y011320D01*
X007399Y011291D02*
X007506Y011291D01*
X007506Y011133D02*
X007425Y011133D01*
X007475Y010974D02*
X007506Y010974D01*
X007566Y010816D02*
X007569Y010816D01*
X007642Y010727D02*
X007642Y010727D01*
X007444Y010529D02*
X007471Y010504D01*
X007500Y010482D01*
X007531Y010462D01*
X007564Y010445D01*
X007597Y010431D01*
X007632Y010420D01*
X007668Y010412D01*
X007704Y010408D01*
X007741Y010406D01*
X007958Y010023D02*
X000404Y010023D01*
X000404Y009865D02*
X007958Y009865D01*
X007970Y009706D02*
X000404Y009706D01*
X000404Y009548D02*
X008309Y009548D01*
X008264Y009389D02*
X000404Y009389D01*
X000404Y009231D02*
X008264Y009231D01*
X008264Y009072D02*
X000405Y009072D01*
X000405Y008914D02*
X008264Y008914D01*
X008274Y008755D02*
X000405Y008755D01*
X000405Y008597D02*
X008195Y008597D01*
X008195Y008438D02*
X000405Y008438D01*
X000405Y008280D02*
X008195Y008280D01*
X008229Y008121D02*
X000405Y008121D01*
X000405Y007963D02*
X008726Y007963D01*
X008726Y007804D02*
X000405Y007804D01*
X000405Y007646D02*
X008726Y007646D01*
X008726Y007487D02*
X008371Y007487D01*
X008585Y007329D02*
X008626Y007329D01*
X007394Y007487D02*
X000406Y007487D01*
X000406Y007329D02*
X007180Y007329D01*
X009007Y008407D02*
X009003Y008467D01*
X008995Y008526D01*
X008983Y008585D01*
X008969Y008643D01*
X008950Y008700D01*
X008928Y008756D01*
X008903Y008810D01*
X008875Y008863D01*
X008844Y008914D01*
X008809Y008963D01*
X008772Y009010D01*
X008732Y009054D01*
X008690Y009096D01*
X008644Y009136D01*
X009274Y009072D02*
X009294Y009072D01*
X009294Y008914D02*
X009274Y008914D01*
X009274Y008755D02*
X009294Y008755D01*
X009279Y008597D02*
X010978Y008597D01*
X010978Y008755D02*
X009617Y008755D01*
X009644Y008914D02*
X010978Y008914D01*
X010978Y009072D02*
X009644Y009072D01*
X009644Y009231D02*
X010268Y009231D01*
X010144Y009389D02*
X009644Y009389D01*
X009591Y009548D02*
X010111Y009548D01*
X009910Y009706D02*
X009127Y009706D01*
X009138Y009865D02*
X009898Y009865D01*
X009898Y010023D02*
X009138Y010023D01*
X009102Y010182D02*
X009934Y010182D01*
X009898Y010340D02*
X009138Y010340D01*
X009138Y010499D02*
X009898Y010499D01*
X009959Y010657D02*
X009078Y010657D01*
X009138Y010816D02*
X009898Y010816D01*
X009898Y010974D02*
X009138Y010974D01*
X009099Y011133D02*
X009508Y011133D01*
X009414Y011291D02*
X009118Y011291D01*
X009118Y011450D02*
X009402Y011450D01*
X009459Y011608D02*
X009090Y011608D01*
X008205Y011767D02*
X008074Y011767D01*
X008102Y011925D02*
X008156Y011925D01*
X007704Y012435D02*
X007704Y012435D01*
X007589Y013140D02*
X007983Y013376D01*
X008511Y013669D02*
X008761Y013669D01*
X008761Y013827D02*
X008380Y013827D01*
X008577Y013510D02*
X008761Y013510D01*
X008676Y013352D02*
X008583Y013352D01*
X010712Y012350D02*
X010712Y012350D01*
X011363Y012242D02*
X012156Y012242D01*
X011366Y012242D02*
X011366Y012242D01*
X013576Y012084D02*
X015301Y012084D01*
X015267Y012242D02*
X013841Y012242D01*
X013999Y012401D02*
X015267Y012401D01*
X014349Y013193D02*
X019571Y013193D01*
X019571Y013035D02*
X018149Y013035D01*
X018303Y012876D02*
X018427Y012876D01*
X019207Y012876D02*
X019571Y012876D01*
X019571Y012718D02*
X019328Y012718D01*
X019387Y012559D02*
X019570Y012559D01*
X019570Y012401D02*
X019387Y012401D01*
X019344Y012242D02*
X019570Y012242D01*
X019570Y012084D02*
X019247Y012084D01*
X019073Y011925D02*
X019570Y011925D01*
X019569Y011767D02*
X018927Y011767D01*
X018830Y011608D02*
X018823Y011608D01*
X018823Y010764D02*
X018882Y010705D01*
X018823Y010681D01*
X018823Y010764D01*
X019439Y010661D02*
X019534Y010700D01*
X019568Y010734D01*
X019568Y010532D01*
X019439Y010661D01*
X019442Y010657D02*
X019568Y010657D01*
X019567Y009833D02*
X019439Y009705D01*
X019534Y009666D01*
X019566Y009634D01*
X019567Y009833D01*
X019566Y009706D02*
X019441Y009706D01*
X018882Y009661D02*
X018823Y009685D01*
X018823Y009601D01*
X018882Y009661D01*
X017772Y010499D02*
X017112Y010499D01*
X017271Y010657D02*
X017772Y010657D01*
X017772Y010816D02*
X017465Y010816D01*
X017673Y010974D02*
X017772Y010974D01*
X017772Y011133D02*
X017712Y011133D01*
X017673Y011291D02*
X017772Y011291D01*
X019572Y013352D02*
X014349Y013352D01*
X014342Y013510D02*
X019572Y013510D01*
X019572Y013669D02*
X014300Y013669D01*
X014257Y013827D02*
X019572Y013827D01*
X019572Y013986D02*
X014167Y013986D01*
X014073Y014144D02*
X019573Y014144D01*
X019573Y014303D02*
X013914Y014303D01*
X013703Y014461D02*
X019573Y014461D01*
X019573Y014620D02*
X013324Y014620D01*
X012673Y014620D02*
X000401Y014620D01*
X000401Y014461D02*
X012294Y014461D01*
X012083Y014303D02*
X002612Y014303D01*
X002909Y014144D02*
X011924Y014144D01*
X011830Y013986D02*
X003090Y013986D01*
X001652Y014303D02*
X000401Y014303D01*
X000401Y014144D02*
X001356Y014144D01*
X001175Y013986D02*
X000401Y013986D01*
X000401Y013827D02*
X001032Y013827D01*
X000940Y013669D02*
X000401Y013669D01*
X000402Y013510D02*
X000862Y013510D01*
X000820Y013352D02*
X000402Y013352D01*
X000402Y013193D02*
X000782Y013193D01*
X000782Y013035D02*
X000402Y013035D01*
X000402Y012876D02*
X000782Y012876D01*
X000819Y012718D02*
X000402Y012718D01*
X000402Y012559D02*
X000862Y012559D01*
X000939Y012401D02*
X000402Y012401D01*
X000402Y012242D02*
X001030Y012242D01*
X001173Y012084D02*
X000403Y012084D01*
X000403Y011925D02*
X001352Y011925D01*
X001645Y011767D02*
X000403Y011767D01*
X000406Y007170D02*
X005345Y007170D01*
X005396Y007200D02*
X005396Y007200D01*
X005071Y007012D02*
X000406Y007012D01*
X000406Y006853D02*
X001763Y006853D01*
X001814Y006874D02*
X001501Y006745D01*
X001262Y006506D01*
X001133Y006194D01*
X001133Y005855D01*
X001262Y005543D01*
X001501Y005304D01*
X001814Y005174D01*
X002152Y005174D01*
X002464Y005304D01*
X002703Y005543D01*
X002833Y005855D01*
X002833Y006194D01*
X002703Y006506D01*
X002464Y006745D01*
X002152Y006874D01*
X001814Y006874D01*
X002202Y006853D02*
X004911Y006853D01*
X004764Y006695D02*
X002514Y006695D01*
X002673Y006536D02*
X004673Y006536D01*
X004581Y006378D02*
X002756Y006378D01*
X002822Y006219D02*
X004529Y006219D01*
X004563Y006346D02*
X004563Y006346D01*
X004486Y006061D02*
X002833Y006061D01*
X002833Y005902D02*
X004450Y005902D01*
X004450Y005744D02*
X002786Y005744D01*
X002721Y005585D02*
X004450Y005585D01*
X004450Y005427D02*
X002587Y005427D01*
X002379Y005268D02*
X004450Y005268D01*
X004450Y005110D02*
X000407Y005110D01*
X000407Y005268D02*
X001587Y005268D01*
X001378Y005427D02*
X000407Y005427D01*
X000407Y005585D02*
X001244Y005585D01*
X001179Y005744D02*
X000407Y005744D01*
X000407Y005902D02*
X001133Y005902D01*
X001133Y006061D02*
X000407Y006061D01*
X000406Y006219D02*
X001143Y006219D01*
X001209Y006378D02*
X000406Y006378D01*
X000406Y006536D02*
X001292Y006536D01*
X001451Y006695D02*
X000406Y006695D01*
X000407Y004951D02*
X004450Y004951D01*
X004450Y004793D02*
X000407Y004793D01*
X000407Y004634D02*
X004450Y004634D01*
X004450Y004476D02*
X000408Y004476D01*
X000408Y004317D02*
X004450Y004317D01*
X004450Y004159D02*
X000408Y004159D01*
X000408Y004000D02*
X004450Y004000D01*
X004450Y003842D02*
X000408Y003842D01*
X005068Y007010D02*
X005068Y007010D01*
X009274Y009231D02*
X009294Y009231D01*
X009294Y009389D02*
X009274Y009389D01*
X009274Y009548D02*
X009294Y009548D01*
X010713Y009231D02*
X010978Y009231D01*
X010978Y009389D02*
X010837Y009389D01*
X010871Y009548D02*
X010978Y009548D01*
X013333Y008819D02*
X013349Y008835D01*
X013859Y008835D01*
X013859Y008819D01*
X013333Y008819D01*
X013131Y007646D02*
X012153Y007646D01*
X012312Y007487D02*
X013131Y007487D01*
X013151Y007329D02*
X012474Y007329D01*
X012682Y007170D02*
X013151Y007170D01*
X013151Y007249D02*
X013581Y007249D01*
X013581Y007244D01*
X013581Y007244D01*
X013581Y007249D01*
X013581Y007249D01*
X013866Y007249D01*
X013866Y007249D01*
X013581Y007249D01*
X013581Y007249D01*
X013581Y007249D01*
X013581Y007249D01*
X013581Y007254D01*
X013581Y007254D01*
X013581Y007249D01*
X013151Y007249D01*
X013131Y007012D02*
X012978Y007012D01*
X012798Y006536D02*
X010344Y006536D01*
X010337Y006549D02*
X010303Y006583D01*
X010262Y006606D01*
X010216Y006618D01*
X009956Y006618D01*
X009956Y006281D01*
X009956Y006281D01*
X009956Y006281D01*
X009956Y005944D01*
X010216Y005944D01*
X010262Y005956D01*
X010303Y005979D01*
X010337Y006013D01*
X010360Y006054D01*
X010373Y006100D01*
X010373Y006281D01*
X010373Y006462D01*
X010360Y006508D01*
X010337Y006549D01*
X010373Y006378D02*
X013131Y006378D01*
X013131Y006219D02*
X012088Y006219D01*
X012138Y006061D02*
X013064Y006061D01*
X012861Y005902D02*
X012138Y005902D01*
X012138Y005744D02*
X012563Y005744D01*
X012236Y005127D02*
X012236Y005127D01*
X012985Y004634D02*
X013293Y004634D01*
X013315Y004793D02*
X013125Y004793D01*
X014870Y006191D02*
X014870Y006191D01*
X012931Y006478D02*
X012931Y006478D01*
X012543Y006648D02*
X012543Y006648D01*
X012476Y006695D02*
X009778Y006695D01*
X009956Y006536D02*
X009956Y006536D01*
X009956Y006378D02*
X009956Y006378D01*
X009956Y006281D02*
X010373Y006281D01*
X009956Y006281D01*
X009956Y006281D01*
X009956Y006219D02*
X009956Y006219D01*
X009956Y006061D02*
X009956Y006061D01*
X010303Y005902D02*
X010978Y005902D01*
X010978Y006061D02*
X010362Y006061D01*
X010373Y006219D02*
X011028Y006219D01*
X009966Y007012D02*
X009966Y007012D01*
X009966Y007170D02*
X009966Y007170D01*
X009966Y007329D02*
X009966Y007329D01*
X009966Y007487D02*
X009966Y007487D01*
X010348Y007646D02*
X011036Y007646D01*
X010978Y005268D02*
X010329Y005268D01*
X009800Y005110D02*
X010978Y005110D01*
X010978Y004951D02*
X009836Y004951D01*
X009872Y004793D02*
X010978Y004793D01*
X010978Y004634D02*
X009916Y004634D01*
X009993Y004476D02*
X010978Y004476D01*
X009035Y003839D02*
X009035Y003139D01*
X008841Y003139D01*
X008795Y003151D01*
X008754Y003175D01*
X008721Y003208D01*
X008296Y003208D01*
X008325Y003366D02*
X008685Y003366D01*
X008685Y003295D02*
X008697Y003249D01*
X008721Y003208D01*
X008685Y003295D02*
X008685Y003839D01*
X009035Y003839D01*
X009035Y003683D02*
X009055Y003683D01*
X009055Y003525D02*
X009035Y003525D01*
X009035Y003366D02*
X009055Y003366D01*
X009055Y003208D02*
X009035Y003208D01*
X008685Y003525D02*
X008325Y003525D01*
X008325Y003683D02*
X008685Y003683D01*
X015755Y004476D02*
X016216Y004476D01*
D32*
X008573Y008416D03*
X008534Y012077D03*
D33*
X009782Y011396D03*
X011436Y011160D03*
X011880Y010699D03*
X010491Y009546D03*
X012550Y009046D03*
X013061Y009085D03*
X012904Y008416D03*
X016684Y009951D03*
X017707Y008573D03*
X012589Y003652D03*
D34*
X014833Y008376D03*
D35*
X015502Y008613D03*
X015817Y008613D03*
X016526Y006959D03*
X017747Y006329D03*
X017432Y005857D03*
X016132Y005227D03*
X015817Y005227D03*
X015502Y004676D03*
X015109Y004676D03*
X014794Y004676D03*
X014479Y004676D03*
X013613Y004676D03*
X018573Y007668D03*
X016447Y010542D03*
X017392Y011132D03*
M02*
