%
M48
M72
T01C0.0120
T02C0.0236
T03C0.0240
T04C0.0400
T05C0.0472
T06C0.1102
T07C0.1181
T08C0.1300
%
T01
X13613Y4676
X14479Y4676
X14794Y4676
X15109Y4676
X15502Y4676
X15817Y5227
X16132Y5227
X17432Y5857
X17747Y6329
X15502Y8613
X16526Y6959
X18573Y7668
X15817Y8613
X16447Y10542
X17392Y11132
T02
X14164Y7589
X15069Y7589
X8534Y12077
X8573Y8416
X12550Y7353
X11841Y7195
X12156Y6841
X12550Y6565
X16408Y7628
X12235Y10384
X9282Y9715
X9243Y11408
X18061Y5699
X14361Y6644
X15817Y7274
X18731Y5699
X14754Y9872
X9046Y5975
X8455Y3928
X10266Y6762
X16369Y8534
X13022Y7983
X9518Y3888
X11290Y3455
T03
X10491Y9546
X14833Y8376
X9782Y11396
X12550Y9046
X11436Y11160
X16684Y9951
X17707Y8573
X11880Y10699
X13061Y9085
X12904Y8416
X12589Y3652
T04
X7883Y5024
X7883Y6024
X7883Y7024
X9061Y1650
X10061Y1550
X11061Y1650
X12061Y1550
X13061Y1650
X14061Y1550
X15061Y1650
X16061Y1550
X19111Y4183
X19211Y5183
X19111Y6183
X19211Y7183
X19111Y8183
X19211Y9183
X19111Y10183
X19211Y11183
X6723Y1487
X5723Y1487
X4723Y1487
X3723Y1487
X15817Y12560
X16817Y12460
X17817Y12560
X18817Y12460
T05
X9361Y13376
X7983Y13376
X6605Y13376
X5227Y13376
T06
X1723Y2313
X18298Y2235
T07
X2132Y13034
X12999Y13310
T08
X1983Y6024
M30
