G75*
G70*
%OFA0B0*%
%FSLAX24Y24*%
%IPPOS*%
%LPD*%
%AMOC8*
5,1,8,0,0,1.08239X$1,22.5*
%
%ADD10C,0.0000*%
%ADD11C,0.0600*%
%ADD12R,0.0740X0.0740*%
%ADD13C,0.0740*%
%ADD14C,0.2300*%
%ADD15C,0.2100*%
%ADD16R,0.0800X0.0800*%
%ADD17C,0.0800*%
%ADD18OC8,0.0356*%
%ADD19C,0.0120*%
%ADD20R,0.0356X0.0356*%
%ADD21C,0.0360*%
%ADD22C,0.0100*%
%ADD23OC8,0.0360*%
%ADD24C,0.0060*%
%ADD25C,0.0240*%
%ADD26C,0.0160*%
%ADD27C,0.0400*%
D10*
X000210Y000805D02*
X000201Y014960D01*
X019774Y014960D01*
X019754Y000805D01*
X000210Y000805D01*
X001333Y006024D02*
X001335Y006074D01*
X001341Y006124D01*
X001351Y006174D01*
X001364Y006222D01*
X001381Y006270D01*
X001402Y006316D01*
X001426Y006360D01*
X001454Y006402D01*
X001485Y006442D01*
X001519Y006479D01*
X001556Y006514D01*
X001595Y006545D01*
X001636Y006574D01*
X001680Y006599D01*
X001726Y006621D01*
X001773Y006639D01*
X001821Y006653D01*
X001870Y006664D01*
X001920Y006671D01*
X001970Y006674D01*
X002021Y006673D01*
X002071Y006668D01*
X002121Y006659D01*
X002169Y006647D01*
X002217Y006630D01*
X002263Y006610D01*
X002308Y006587D01*
X002351Y006560D01*
X002391Y006530D01*
X002429Y006497D01*
X002464Y006461D01*
X002497Y006422D01*
X002526Y006381D01*
X002552Y006338D01*
X002575Y006293D01*
X002594Y006246D01*
X002609Y006198D01*
X002621Y006149D01*
X002629Y006099D01*
X002633Y006049D01*
X002633Y005999D01*
X002629Y005949D01*
X002621Y005899D01*
X002609Y005850D01*
X002594Y005802D01*
X002575Y005755D01*
X002552Y005710D01*
X002526Y005667D01*
X002497Y005626D01*
X002464Y005587D01*
X002429Y005551D01*
X002391Y005518D01*
X002351Y005488D01*
X002308Y005461D01*
X002263Y005438D01*
X002217Y005418D01*
X002169Y005401D01*
X002121Y005389D01*
X002071Y005380D01*
X002021Y005375D01*
X001970Y005374D01*
X001920Y005377D01*
X001870Y005384D01*
X001821Y005395D01*
X001773Y005409D01*
X001726Y005427D01*
X001680Y005449D01*
X001636Y005474D01*
X001595Y005503D01*
X001556Y005534D01*
X001519Y005569D01*
X001485Y005606D01*
X001454Y005646D01*
X001426Y005688D01*
X001402Y005732D01*
X001381Y005778D01*
X001364Y005826D01*
X001351Y005874D01*
X001341Y005924D01*
X001335Y005974D01*
X001333Y006024D01*
D11*
X007583Y006024D02*
X008183Y006024D01*
X008183Y005024D02*
X007583Y005024D01*
X007583Y007024D02*
X008183Y007024D01*
D12*
X009061Y001650D03*
X006723Y001487D03*
X019111Y004183D03*
X015817Y012560D03*
D13*
X016817Y012460D03*
X017817Y012560D03*
X018817Y012460D03*
X019211Y011183D03*
X019111Y010183D03*
X019211Y009183D03*
X019111Y008183D03*
X019211Y007183D03*
X019111Y006183D03*
X019211Y005183D03*
X016061Y001550D03*
X015061Y001650D03*
X014061Y001550D03*
X013061Y001650D03*
X012061Y001550D03*
X011061Y001650D03*
X010061Y001550D03*
X005723Y001487D03*
X004723Y001487D03*
X003723Y001487D03*
D14*
X002132Y013034D03*
X012999Y013310D03*
D15*
X001723Y002313D03*
X018298Y002235D03*
D16*
X009361Y013376D03*
D17*
X007983Y013376D03*
X006605Y013376D03*
X005227Y013376D03*
D18*
X009243Y011408D03*
X009282Y009715D03*
X012235Y010384D03*
X014754Y009872D03*
X016369Y008534D03*
X016408Y007628D03*
X015817Y007274D03*
X015069Y007589D03*
X014164Y007589D03*
X013022Y007983D03*
X012550Y007353D03*
X012156Y006841D03*
X011841Y007195D03*
X012550Y006565D03*
X014361Y006644D03*
X018061Y005699D03*
X018731Y005699D03*
X011290Y003455D03*
X009518Y003888D03*
X008455Y003928D03*
X009046Y005975D03*
X010266Y006762D03*
D19*
X010915Y008452D02*
X011585Y008452D01*
X011585Y008455D01*
X011651Y008459D01*
X011716Y008467D01*
X011781Y008478D01*
X011845Y008494D01*
X011908Y008512D01*
X011969Y008535D01*
X012030Y008561D01*
X012089Y008590D01*
X012146Y008623D01*
X012201Y008659D01*
X012253Y008698D01*
X012304Y008740D01*
X012352Y008785D01*
X012398Y008832D01*
X012440Y008882D01*
X012480Y008934D01*
X012517Y008989D01*
X012550Y009045D01*
X010915Y008451D02*
X010849Y008453D01*
X010783Y008459D01*
X010718Y008468D01*
X010654Y008482D01*
X010590Y008499D01*
X010527Y008519D01*
X010466Y008544D01*
X010407Y008572D01*
X010348Y008603D01*
X010292Y008637D01*
X010238Y008675D01*
X010187Y008716D01*
X010137Y008760D01*
X010091Y008806D01*
X010047Y008856D01*
X010006Y008907D01*
X009968Y008961D01*
X009934Y009018D01*
X009903Y009076D01*
X009875Y009135D01*
X009850Y009196D01*
X009830Y009259D01*
X009813Y009323D01*
X009799Y009387D01*
X009790Y009452D01*
X009784Y009518D01*
X009782Y009584D01*
X009782Y011396D01*
X008534Y012077D02*
X008534Y008455D01*
X008573Y008416D01*
X014164Y007589D02*
X015069Y007589D01*
X016132Y005227D02*
X019167Y005227D01*
X019211Y005183D01*
X019091Y004203D02*
X019111Y004183D01*
X019091Y004203D02*
X016684Y004203D01*
X014794Y004676D02*
X014321Y002432D01*
X014124Y001605D01*
D20*
X008573Y008416D03*
X008534Y012077D03*
D21*
X009782Y011396D03*
X011436Y011160D03*
X011880Y010699D03*
X010491Y009546D03*
X012550Y009046D03*
X013061Y009085D03*
X012904Y008416D03*
X016684Y009951D03*
X017707Y008573D03*
X012589Y003652D03*
D22*
X011999Y002747D01*
X011132Y001684D01*
X012077Y001605D02*
X013613Y004676D01*
X012943Y004715D02*
X012943Y007592D01*
X012942Y007607D01*
X012937Y007621D01*
X012930Y007634D01*
X012921Y007645D01*
X012910Y007654D01*
X012897Y007661D01*
X012883Y007666D01*
X012868Y007667D01*
X012868Y007668D02*
X012839Y007670D01*
X012811Y007675D01*
X012783Y007684D01*
X012757Y007695D01*
X012732Y007710D01*
X012710Y007728D01*
X012689Y007749D01*
X012671Y007771D01*
X012656Y007796D01*
X012645Y007822D01*
X012636Y007850D01*
X012631Y007878D01*
X012629Y007907D01*
X012628Y007907D02*
X012628Y008240D01*
X012630Y008265D01*
X012635Y008290D01*
X012644Y008313D01*
X012656Y008335D01*
X012671Y008355D01*
X012689Y008373D01*
X012709Y008388D01*
X012731Y008400D01*
X012754Y008409D01*
X012779Y008414D01*
X012804Y008416D01*
X012904Y008416D01*
X013061Y009085D02*
X011565Y007510D01*
X010739Y006723D01*
X009946Y005930D01*
X009389Y005699D02*
X009261Y005699D01*
X009236Y005697D01*
X009211Y005692D01*
X009188Y005683D01*
X009166Y005671D01*
X009146Y005656D01*
X009128Y005638D01*
X009113Y005618D01*
X009101Y005596D01*
X009092Y005573D01*
X009087Y005548D01*
X009085Y005523D01*
X009085Y001684D01*
X010109Y001605D02*
X011942Y003608D01*
X011976Y003660D01*
X012014Y003709D01*
X012055Y003755D01*
X012099Y003799D01*
X012145Y003840D01*
X012194Y003878D01*
X012245Y003912D01*
X012299Y003944D01*
X012354Y003972D01*
X012411Y003996D01*
X012469Y004016D01*
X012529Y004033D01*
X012589Y004046D01*
X012631Y004060D01*
X012671Y004079D01*
X012710Y004100D01*
X012747Y004125D01*
X012782Y004152D01*
X012814Y004182D01*
X012843Y004215D01*
X012870Y004250D01*
X012894Y004287D01*
X012915Y004327D01*
X012932Y004367D01*
X012946Y004409D01*
X012957Y004452D01*
X012963Y004496D01*
X012967Y004540D01*
X012966Y004584D01*
X012962Y004628D01*
X012955Y004672D01*
X012943Y004714D01*
X014479Y004676D02*
X013101Y001684D01*
X015306Y001684D02*
X015109Y004676D01*
X015502Y004676D02*
X015699Y001605D01*
X016684Y004203D02*
X015817Y005227D01*
X017432Y005857D02*
X017478Y005817D01*
X017512Y005814D01*
X017546Y005815D01*
X017580Y005818D01*
X017614Y005825D01*
X017646Y005835D01*
X017677Y005849D01*
X017707Y005865D01*
X017735Y005884D01*
X018048Y006014D02*
X018704Y006014D01*
X018048Y006015D02*
X018009Y006013D01*
X017971Y006008D01*
X017933Y006000D01*
X017896Y005988D01*
X017860Y005973D01*
X017826Y005956D01*
X017793Y005935D01*
X017763Y005911D01*
X017734Y005885D01*
X017747Y006329D02*
X018967Y007117D01*
X019111Y006183D02*
X019078Y006152D01*
X019043Y006124D01*
X019005Y006099D01*
X018965Y006077D01*
X018924Y006058D01*
X018882Y006042D01*
X018838Y006030D01*
X018794Y006021D01*
X018749Y006016D01*
X018704Y006014D01*
X017235Y007668D02*
X016526Y006959D01*
X017235Y007668D02*
X018573Y007668D01*
X019085Y007904D02*
X019111Y007904D01*
X019111Y008183D01*
X018386Y008347D02*
X019203Y009164D01*
X018386Y008347D02*
X018342Y008310D01*
X018296Y008275D01*
X018248Y008243D01*
X018198Y008214D01*
X018146Y008188D01*
X018093Y008166D01*
X018039Y008146D01*
X017983Y008130D01*
X017927Y008118D01*
X017870Y008108D01*
X017813Y008102D01*
X017755Y008100D01*
X017697Y008101D01*
X016850Y008101D01*
X017707Y008573D02*
X015648Y010125D01*
X015266Y010975D02*
X016684Y009951D01*
X015266Y010975D02*
X014960Y011098D01*
X014168Y010641D02*
X011880Y010699D01*
X011436Y011160D02*
X011672Y011357D01*
X013774Y011405D01*
X013310Y009400D02*
X010636Y009400D01*
X010613Y009402D01*
X010591Y009407D01*
X010570Y009416D01*
X010550Y009428D01*
X010533Y009443D01*
X010518Y009460D01*
X010506Y009480D01*
X010497Y009501D01*
X010492Y009523D01*
X010490Y009546D01*
X013310Y009400D02*
X013387Y009398D01*
X013464Y009392D01*
X013540Y009383D01*
X013616Y009370D01*
X013691Y009353D01*
X013766Y009332D01*
X013839Y009308D01*
X013911Y009280D01*
X013981Y009248D01*
X014050Y009213D01*
X014117Y009175D01*
X014182Y009134D01*
X014244Y009089D01*
X014305Y009041D01*
X014363Y008991D01*
X014419Y008937D01*
X014472Y008881D01*
X014471Y008881D02*
X014833Y008376D01*
X015648Y010126D02*
X015549Y010197D01*
X015446Y010264D01*
X015340Y010325D01*
X015231Y010381D01*
X015120Y010433D01*
X015006Y010478D01*
X014890Y010519D01*
X014773Y010553D01*
X014654Y010583D01*
X014534Y010606D01*
X014413Y010623D01*
X014291Y010635D01*
X014168Y010641D01*
X013774Y011406D02*
X013887Y011404D01*
X013999Y011396D01*
X014111Y011384D01*
X014223Y011366D01*
X014333Y011342D01*
X014442Y011314D01*
X014549Y011281D01*
X014655Y011242D01*
X014759Y011199D01*
X014861Y011151D01*
X014961Y011098D01*
X009945Y005931D02*
X009908Y005895D01*
X009868Y005863D01*
X009826Y005833D01*
X009783Y005805D01*
X009737Y005781D01*
X009690Y005760D01*
X009642Y005742D01*
X009593Y005727D01*
X009543Y005715D01*
X009492Y005707D01*
X009440Y005702D01*
X009389Y005700D01*
D23*
X014833Y008376D03*
D24*
X015502Y008613D02*
X015828Y008287D01*
X016001Y008429D02*
X015817Y008613D01*
X015827Y008287D02*
X015877Y008240D01*
X015929Y008196D01*
X015984Y008154D01*
X016040Y008115D01*
X016099Y008079D01*
X016159Y008047D01*
X016221Y008017D01*
X016284Y007991D01*
X016348Y007968D01*
X016414Y007949D01*
X016481Y007933D01*
X016548Y007920D01*
X016616Y007911D01*
X016684Y007906D01*
X016753Y007904D01*
X019085Y007904D01*
X019124Y008140D02*
X019111Y008183D01*
X019203Y009164D02*
X019211Y009183D01*
X019111Y010183D02*
X019124Y010187D01*
X017865Y010187D01*
X017510Y010542D01*
X016447Y010542D01*
X017392Y011132D02*
X019203Y011132D01*
X019211Y011183D01*
X019124Y010187D02*
X019439Y010187D01*
X016850Y008101D02*
X016783Y008102D01*
X016717Y008106D01*
X016650Y008113D01*
X016585Y008125D01*
X016520Y008140D01*
X016456Y008159D01*
X016393Y008181D01*
X016331Y008207D01*
X016271Y008236D01*
X016213Y008269D01*
X016157Y008304D01*
X016103Y008343D01*
X016051Y008385D01*
X016001Y008430D01*
X018967Y007117D02*
X019203Y007117D01*
X019211Y007183D01*
X019439Y004203D02*
X019111Y004183D01*
X016014Y001605D02*
X016061Y001550D01*
X016014Y001605D02*
X015699Y001605D01*
X015306Y001684D02*
X015069Y001684D01*
X015061Y001650D01*
X014124Y001605D02*
X014061Y001550D01*
X013101Y001684D02*
X013061Y001650D01*
X012077Y001605D02*
X012061Y001550D01*
X011132Y001526D02*
X011061Y001650D01*
X011132Y001684D01*
X010109Y001605D02*
X010061Y001550D01*
X010109Y001447D01*
X009085Y001526D02*
X009061Y001650D01*
X009085Y001684D01*
D25*
X013613Y004676D03*
X014479Y004676D03*
X014794Y004676D03*
X015109Y004676D03*
X015502Y004676D03*
X015817Y005227D03*
X016132Y005227D03*
X017432Y005857D03*
X017747Y006329D03*
X016526Y006959D03*
X018573Y007668D03*
X015817Y008613D03*
X015502Y008613D03*
X016447Y010542D03*
X017392Y011132D03*
D26*
X017615Y011362D02*
X017573Y011404D01*
X017456Y011452D01*
X017329Y011452D01*
X017211Y011404D01*
X017121Y011314D01*
X017072Y011196D01*
X017072Y011069D01*
X017121Y010951D01*
X017211Y010861D01*
X017329Y010812D01*
X017456Y010812D01*
X017573Y010861D01*
X017615Y010902D01*
X018710Y010902D01*
X018728Y010860D01*
X018882Y010705D01*
X018788Y010666D01*
X018628Y010506D01*
X018591Y010417D01*
X017960Y010417D01*
X017740Y010637D01*
X017606Y010772D01*
X016670Y010772D01*
X016629Y010813D01*
X016511Y010862D01*
X016384Y010862D01*
X016266Y010813D01*
X016176Y010723D01*
X016145Y010648D01*
X015428Y011167D01*
X015405Y011188D01*
X015388Y011195D01*
X015372Y011207D01*
X015342Y011214D01*
X015069Y011324D01*
X014883Y011428D01*
X014453Y011580D01*
X014002Y011656D01*
X013821Y011656D01*
X013818Y011656D01*
X013771Y011655D01*
X013724Y011655D01*
X013721Y011654D01*
X011680Y011607D01*
X011645Y011610D01*
X011631Y011606D01*
X011616Y011606D01*
X011584Y011591D01*
X011550Y011581D01*
X011539Y011571D01*
X011525Y011565D01*
X011501Y011540D01*
X011360Y011540D01*
X011220Y011482D01*
X011113Y011375D01*
X011056Y011235D01*
X011056Y011084D01*
X011113Y010945D01*
X011220Y010838D01*
X011360Y010780D01*
X011502Y010780D01*
X011500Y010775D01*
X011500Y010624D01*
X011558Y010484D01*
X011665Y010377D01*
X011805Y010319D01*
X011956Y010319D01*
X012096Y010377D01*
X012161Y010442D01*
X014112Y010392D01*
X014161Y010391D01*
X014162Y010391D01*
X014401Y010373D01*
X014866Y010263D01*
X015299Y010060D01*
X015497Y009926D01*
X015537Y009896D01*
X017327Y008547D01*
X017327Y008498D01*
X017385Y008358D01*
X017392Y008351D01*
X016800Y008351D01*
X016760Y008334D01*
X016719Y008336D01*
X016475Y008395D01*
X016256Y008515D01*
X016160Y008595D01*
X016137Y008618D01*
X016137Y008676D01*
X016089Y008794D01*
X015999Y008884D01*
X015881Y008933D01*
X015754Y008933D01*
X015660Y008894D01*
X015566Y008933D01*
X015439Y008933D01*
X015321Y008884D01*
X015231Y008794D01*
X015182Y008676D01*
X015182Y008565D01*
X014991Y008756D01*
X014868Y008756D01*
X014695Y008998D01*
X014691Y009011D01*
X014667Y009038D01*
X014646Y009067D01*
X014634Y009075D01*
X014487Y009238D01*
X014055Y009509D01*
X013565Y009650D01*
X010859Y009650D01*
X010813Y009761D01*
X010706Y009868D01*
X010566Y009926D01*
X010415Y009926D01*
X010275Y009868D01*
X010168Y009761D01*
X010111Y009621D01*
X010111Y009470D01*
X010168Y009330D01*
X010275Y009224D01*
X010415Y009166D01*
X010503Y009166D01*
X010530Y009150D01*
X012182Y009150D01*
X012170Y009121D01*
X012170Y008981D01*
X012103Y008911D01*
X011908Y008792D01*
X011690Y008726D01*
X011578Y008715D01*
X011534Y008715D01*
X011529Y008713D01*
X011525Y008713D01*
X011521Y008712D01*
X010915Y008712D01*
X010778Y008722D01*
X010519Y008807D01*
X010298Y008967D01*
X010137Y009188D01*
X010053Y009448D01*
X010042Y009584D01*
X010042Y011119D01*
X010104Y011181D01*
X010162Y011321D01*
X010162Y011472D01*
X010104Y011611D01*
X009997Y011718D01*
X009858Y011776D01*
X009706Y011776D01*
X009567Y011718D01*
X009460Y011611D01*
X009402Y011472D01*
X009402Y011321D01*
X009460Y011181D01*
X009522Y011119D01*
X009522Y009364D01*
X009658Y008944D01*
X009918Y008587D01*
X010275Y008328D01*
X010694Y008192D01*
X011637Y008192D01*
X011650Y008197D01*
X011777Y008202D01*
X011918Y008244D01*
X011388Y007687D01*
X010600Y006936D01*
X010597Y006935D01*
X010564Y006902D01*
X010530Y006870D01*
X010529Y006867D01*
X009804Y006142D01*
X009771Y006109D01*
X009769Y006107D01*
X009716Y006060D01*
X009595Y005990D01*
X009459Y005954D01*
X009389Y005949D01*
X009147Y005949D01*
X008949Y005835D01*
X008835Y005637D01*
X008835Y002220D01*
X008608Y002220D01*
X008491Y002103D01*
X008491Y001198D01*
X008608Y001080D01*
X009514Y001080D01*
X009619Y001186D01*
X009738Y001067D01*
X009887Y001005D01*
X007236Y001005D01*
X007237Y001006D01*
X007261Y001047D01*
X007273Y001093D01*
X007273Y001467D01*
X006743Y001467D01*
X006743Y001507D01*
X006703Y001507D01*
X006703Y002037D01*
X006329Y002037D01*
X006283Y002024D01*
X006242Y002001D01*
X006209Y001967D01*
X006185Y001926D01*
X006173Y001880D01*
X006173Y001803D01*
X006142Y001845D01*
X006081Y001906D01*
X006011Y001957D01*
X005934Y001996D01*
X005852Y002023D01*
X005766Y002037D01*
X005743Y002037D01*
X005743Y001507D01*
X005703Y001507D01*
X005703Y002037D01*
X005680Y002037D01*
X005594Y002023D01*
X005512Y001996D01*
X005435Y001957D01*
X005365Y001906D01*
X005303Y001845D01*
X005253Y001775D01*
X005235Y001740D01*
X005206Y001810D01*
X005046Y001970D01*
X004836Y002057D01*
X004610Y002057D01*
X004400Y001970D01*
X004240Y001810D01*
X004223Y001769D01*
X004206Y001810D01*
X004046Y001970D01*
X003836Y002057D01*
X003610Y002057D01*
X003400Y001970D01*
X003240Y001810D01*
X003153Y001600D01*
X003153Y001373D01*
X003240Y001164D01*
X003398Y001005D01*
X000410Y001005D01*
X000407Y005053D01*
X000502Y004889D01*
X000847Y004544D01*
X001269Y004301D01*
X001739Y004174D01*
X002226Y004174D01*
X002697Y004301D01*
X003119Y004544D01*
X003463Y004889D01*
X003707Y005310D01*
X003833Y005781D01*
X003833Y006268D01*
X003707Y006739D01*
X003463Y007160D01*
X003119Y007505D01*
X002697Y007748D01*
X002226Y007874D01*
X001739Y007874D01*
X001269Y007748D01*
X000847Y007505D01*
X000502Y007160D01*
X000406Y006994D01*
X000401Y014760D01*
X019574Y014760D01*
X019569Y011631D01*
X019534Y011666D01*
X019324Y011753D01*
X019097Y011753D01*
X018888Y011666D01*
X018728Y011506D01*
X018668Y011362D01*
X017615Y011362D01*
X017462Y011450D02*
X018705Y011450D01*
X018830Y011608D02*
X014284Y011608D01*
X014325Y011086D02*
X013960Y011148D01*
X013776Y011155D01*
X011816Y011110D01*
X011816Y011084D01*
X011813Y011079D01*
X011956Y011079D01*
X012096Y011021D01*
X012175Y010942D01*
X014175Y010891D01*
X014466Y010884D01*
X014466Y010884D01*
X015035Y010749D01*
X015035Y010749D01*
X015367Y010594D01*
X015145Y010754D01*
X014898Y010853D01*
X014881Y010855D01*
X014852Y010872D01*
X014821Y010884D01*
X014812Y010893D01*
X014673Y010963D01*
X014673Y010963D01*
X014325Y011086D01*
X014050Y011133D02*
X012807Y011133D01*
X012143Y010974D02*
X014641Y010974D01*
X014753Y010816D02*
X014991Y010816D01*
X015231Y010657D02*
X015279Y010657D01*
X015694Y010974D02*
X017111Y010974D01*
X017072Y011133D02*
X015474Y011133D01*
X015149Y011291D02*
X017112Y011291D01*
X017323Y011450D02*
X014820Y011450D01*
X015337Y012046D02*
X015303Y012080D01*
X015280Y012121D01*
X015267Y012167D01*
X015267Y012540D01*
X015797Y012540D01*
X015797Y012580D01*
X015267Y012580D01*
X015267Y012954D01*
X015280Y013000D01*
X015303Y013041D01*
X015337Y013074D01*
X015378Y013098D01*
X015424Y013110D01*
X015797Y013110D01*
X015797Y012580D01*
X015837Y012580D01*
X015837Y013110D01*
X016211Y013110D01*
X016257Y013098D01*
X016298Y013074D01*
X016331Y013041D01*
X016355Y013000D01*
X016367Y012954D01*
X016367Y012816D01*
X016495Y012944D01*
X016704Y013030D01*
X016931Y013030D01*
X017140Y012944D01*
X017295Y012789D01*
X017334Y012883D01*
X017495Y013044D01*
X017704Y013130D01*
X017931Y013130D01*
X018140Y013044D01*
X018301Y012883D01*
X018340Y012789D01*
X018495Y012944D01*
X018704Y013030D01*
X018931Y013030D01*
X019140Y012944D01*
X019301Y012783D01*
X019387Y012574D01*
X019387Y012347D01*
X019301Y012137D01*
X019140Y011977D01*
X018931Y011890D01*
X018704Y011890D01*
X018495Y011977D01*
X018334Y012137D01*
X018295Y012232D01*
X018140Y012077D01*
X017931Y011990D01*
X017704Y011990D01*
X017495Y012077D01*
X017340Y012232D01*
X017301Y012137D01*
X017140Y011977D01*
X016931Y011890D01*
X016704Y011890D01*
X016495Y011977D01*
X016354Y012118D01*
X016331Y012080D01*
X016298Y012046D01*
X016257Y012023D01*
X016211Y012010D01*
X015837Y012010D01*
X015837Y012540D01*
X015797Y012540D01*
X015797Y012010D01*
X015424Y012010D01*
X015378Y012023D01*
X015337Y012046D01*
X015301Y012084D02*
X013576Y012084D01*
X013520Y012052D02*
X013827Y012229D01*
X014079Y012481D01*
X014257Y012788D01*
X014349Y013132D01*
X014349Y013487D01*
X014257Y013831D01*
X014079Y014138D01*
X013827Y014390D01*
X013520Y014567D01*
X013176Y014659D01*
X012821Y014659D01*
X012477Y014567D01*
X012170Y014390D01*
X011918Y014138D01*
X011741Y013831D01*
X011649Y013487D01*
X011649Y013132D01*
X011741Y012788D01*
X011918Y012481D01*
X012170Y012229D01*
X012477Y012052D01*
X012821Y011960D01*
X013176Y011960D01*
X013520Y012052D01*
X013841Y012242D02*
X015267Y012242D01*
X015267Y012401D02*
X013999Y012401D01*
X014124Y012559D02*
X015797Y012559D01*
X015797Y012401D02*
X015837Y012401D01*
X015837Y012242D02*
X015797Y012242D01*
X015797Y012084D02*
X015837Y012084D01*
X016334Y012084D02*
X016388Y012084D01*
X016619Y011925D02*
X008912Y011925D01*
X008912Y011816D02*
X008795Y011699D01*
X008794Y011699D01*
X008794Y008794D01*
X008834Y008794D01*
X008951Y008677D01*
X008951Y008155D01*
X008834Y008038D01*
X008312Y008038D01*
X008195Y008155D01*
X008195Y008677D01*
X008274Y008755D01*
X005627Y008755D01*
X005627Y008597D02*
X008195Y008597D01*
X008195Y008438D02*
X005627Y008438D01*
X005627Y008280D02*
X008195Y008280D01*
X008229Y008121D02*
X005627Y008121D01*
X005627Y007963D02*
X011651Y007963D01*
X011801Y008121D02*
X008918Y008121D01*
X008951Y008280D02*
X010423Y008280D01*
X010275Y008328D02*
X010275Y008328D01*
X010123Y008438D02*
X008951Y008438D01*
X008951Y008597D02*
X009911Y008597D01*
X009918Y008587D02*
X009918Y008587D01*
X009918Y008587D01*
X009796Y008755D02*
X008873Y008755D01*
X008794Y008914D02*
X009680Y008914D01*
X009658Y008944D02*
X009658Y008944D01*
X009617Y009072D02*
X008794Y009072D01*
X008794Y009231D02*
X009565Y009231D01*
X009522Y009389D02*
X008794Y009389D01*
X008794Y009548D02*
X009522Y009548D01*
X009522Y009706D02*
X008794Y009706D01*
X008794Y009865D02*
X009522Y009865D01*
X009522Y010023D02*
X008794Y010023D01*
X008794Y010182D02*
X009522Y010182D01*
X009522Y010340D02*
X008794Y010340D01*
X008794Y010499D02*
X009522Y010499D01*
X009522Y010657D02*
X008794Y010657D01*
X008794Y010816D02*
X009522Y010816D01*
X009522Y010974D02*
X008794Y010974D01*
X008794Y011133D02*
X009508Y011133D01*
X009414Y011291D02*
X008794Y011291D01*
X008794Y011450D02*
X009402Y011450D01*
X009459Y011608D02*
X008794Y011608D01*
X008863Y011767D02*
X009684Y011767D01*
X009880Y011767D02*
X019569Y011767D01*
X019570Y011925D02*
X019016Y011925D01*
X019247Y012084D02*
X019570Y012084D01*
X019570Y012242D02*
X019344Y012242D01*
X019387Y012401D02*
X019570Y012401D01*
X019570Y012559D02*
X019387Y012559D01*
X019328Y012718D02*
X019571Y012718D01*
X019571Y012876D02*
X019207Y012876D01*
X019571Y013035D02*
X018149Y013035D01*
X018303Y012876D02*
X018427Y012876D01*
X018388Y012084D02*
X018147Y012084D01*
X018619Y011925D02*
X017016Y011925D01*
X017247Y012084D02*
X017488Y012084D01*
X017331Y012876D02*
X017207Y012876D01*
X017486Y013035D02*
X016335Y013035D01*
X016367Y012876D02*
X016427Y012876D01*
X015837Y012876D02*
X015797Y012876D01*
X015797Y012718D02*
X015837Y012718D01*
X015837Y013035D02*
X015797Y013035D01*
X015300Y013035D02*
X014323Y013035D01*
X014349Y013193D02*
X019571Y013193D01*
X019572Y013352D02*
X014349Y013352D01*
X014342Y013510D02*
X019572Y013510D01*
X019572Y013669D02*
X014300Y013669D01*
X014257Y013827D02*
X019572Y013827D01*
X019572Y013986D02*
X014167Y013986D01*
X014073Y014144D02*
X019573Y014144D01*
X019573Y014303D02*
X013914Y014303D01*
X013703Y014461D02*
X019573Y014461D01*
X019573Y014620D02*
X013324Y014620D01*
X012673Y014620D02*
X000401Y014620D01*
X000401Y014461D02*
X012294Y014461D01*
X012083Y014303D02*
X002612Y014303D01*
X002653Y014292D02*
X002310Y014384D01*
X001955Y014384D01*
X001611Y014292D01*
X001303Y014114D01*
X001052Y013863D01*
X000874Y013555D01*
X000782Y013212D01*
X000782Y012856D01*
X000874Y012513D01*
X001052Y012205D01*
X001303Y011954D01*
X001611Y011776D01*
X001955Y011684D01*
X002310Y011684D01*
X002653Y011776D01*
X002961Y011954D01*
X003213Y012205D01*
X003390Y012513D01*
X003482Y012856D01*
X003482Y013212D01*
X003390Y013555D01*
X003213Y013863D01*
X002961Y014114D01*
X002653Y014292D01*
X002909Y014144D02*
X011924Y014144D01*
X011830Y013986D02*
X003090Y013986D01*
X003233Y013827D02*
X004829Y013827D01*
X004887Y013885D02*
X004718Y013716D01*
X004627Y013496D01*
X004627Y013257D01*
X004718Y013037D01*
X004827Y012928D01*
X004827Y006518D01*
X004918Y006060D01*
X005096Y005629D01*
X005356Y005241D01*
X005464Y005132D01*
X005521Y005076D01*
X005577Y005020D01*
X005662Y004934D01*
X006010Y004734D01*
X006397Y004630D01*
X007270Y004630D01*
X007299Y004601D01*
X007483Y004524D01*
X008282Y004524D01*
X008466Y004601D01*
X008606Y004741D01*
X008683Y004925D01*
X008683Y005124D01*
X008606Y005308D01*
X008466Y005448D01*
X008282Y005524D01*
X007483Y005524D01*
X007299Y005448D01*
X007281Y005430D01*
X006598Y005430D01*
X006503Y005436D01*
X006321Y005485D01*
X006157Y005579D01*
X006086Y005642D01*
X005983Y005756D01*
X005812Y006011D01*
X005694Y006296D01*
X005634Y006597D01*
X005627Y006751D01*
X005627Y012928D01*
X005736Y013037D01*
X005827Y013257D01*
X005827Y013496D01*
X005736Y013716D01*
X005567Y013885D01*
X005346Y013976D01*
X005108Y013976D01*
X004887Y013885D01*
X004699Y013669D02*
X003325Y013669D01*
X003402Y013510D02*
X004633Y013510D01*
X004627Y013352D02*
X003445Y013352D01*
X003482Y013193D02*
X004653Y013193D01*
X004720Y013035D02*
X003482Y013035D01*
X003482Y012876D02*
X004827Y012876D01*
X004827Y012718D02*
X003445Y012718D01*
X003403Y012559D02*
X004827Y012559D01*
X004827Y012401D02*
X003326Y012401D01*
X003234Y012242D02*
X004827Y012242D01*
X004827Y012084D02*
X003092Y012084D01*
X002912Y011925D02*
X004827Y011925D01*
X004827Y011767D02*
X002620Y011767D01*
X001645Y011767D02*
X000403Y011767D01*
X000403Y011925D02*
X001352Y011925D01*
X001173Y012084D02*
X000403Y012084D01*
X000402Y012242D02*
X001030Y012242D01*
X000939Y012401D02*
X000402Y012401D01*
X000402Y012559D02*
X000862Y012559D01*
X000819Y012718D02*
X000402Y012718D01*
X000402Y012876D02*
X000782Y012876D01*
X000782Y013035D02*
X000402Y013035D01*
X000402Y013193D02*
X000782Y013193D01*
X000820Y013352D02*
X000402Y013352D01*
X000402Y013510D02*
X000862Y013510D01*
X000940Y013669D02*
X000401Y013669D01*
X000401Y013827D02*
X001032Y013827D01*
X001175Y013986D02*
X000401Y013986D01*
X000401Y014144D02*
X001356Y014144D01*
X001652Y014303D02*
X000401Y014303D01*
X000403Y011608D02*
X004827Y011608D01*
X004827Y011450D02*
X000403Y011450D01*
X000403Y011291D02*
X004827Y011291D01*
X004827Y011133D02*
X000403Y011133D01*
X000403Y010974D02*
X004827Y010974D01*
X004827Y010816D02*
X000403Y010816D01*
X000403Y010657D02*
X004827Y010657D01*
X004827Y010499D02*
X000404Y010499D01*
X000404Y010340D02*
X004827Y010340D01*
X004827Y010182D02*
X000404Y010182D01*
X000404Y010023D02*
X004827Y010023D01*
X004827Y009865D02*
X000404Y009865D01*
X000404Y009706D02*
X004827Y009706D01*
X004827Y009548D02*
X000404Y009548D01*
X000404Y009389D02*
X004827Y009389D01*
X004827Y009231D02*
X000404Y009231D01*
X000405Y009072D02*
X004827Y009072D01*
X004827Y008914D02*
X000405Y008914D01*
X000405Y008755D02*
X004827Y008755D01*
X004827Y008597D02*
X000405Y008597D01*
X000405Y008438D02*
X004827Y008438D01*
X004827Y008280D02*
X000405Y008280D01*
X000405Y008121D02*
X004827Y008121D01*
X004827Y007963D02*
X000405Y007963D01*
X000405Y007804D02*
X001478Y007804D01*
X001091Y007646D02*
X000405Y007646D01*
X000406Y007487D02*
X000829Y007487D01*
X000671Y007329D02*
X000406Y007329D01*
X000406Y007170D02*
X000512Y007170D01*
X000417Y007012D02*
X000406Y007012D01*
X002487Y007804D02*
X004827Y007804D01*
X004827Y007646D02*
X002874Y007646D01*
X003136Y007487D02*
X004827Y007487D01*
X004827Y007329D02*
X003294Y007329D01*
X003453Y007170D02*
X004827Y007170D01*
X004827Y007012D02*
X003549Y007012D01*
X003640Y006853D02*
X004827Y006853D01*
X004827Y006695D02*
X003718Y006695D01*
X003761Y006536D02*
X004827Y006536D01*
X004855Y006378D02*
X003803Y006378D01*
X003833Y006219D02*
X004886Y006219D01*
X004918Y006061D02*
X003833Y006061D01*
X003833Y005902D02*
X004983Y005902D01*
X004918Y006060D02*
X004918Y006060D01*
X005049Y005744D02*
X003823Y005744D01*
X003780Y005585D02*
X005125Y005585D01*
X005096Y005629D02*
X005096Y005629D01*
X005231Y005427D02*
X003738Y005427D01*
X003682Y005268D02*
X005337Y005268D01*
X005356Y005241D02*
X005356Y005241D01*
X005464Y005132D02*
X005464Y005132D01*
X005487Y005110D02*
X003591Y005110D01*
X003499Y004951D02*
X005645Y004951D01*
X005662Y004934D02*
X005662Y004934D01*
X005577Y005020D02*
X005577Y005020D01*
X005907Y004793D02*
X003367Y004793D01*
X003209Y004634D02*
X006380Y004634D01*
X006150Y005585D02*
X007387Y005585D01*
X007398Y005580D02*
X007470Y005556D01*
X007545Y005544D01*
X007863Y005544D01*
X007863Y006004D01*
X007903Y006004D01*
X007903Y006044D01*
X008663Y006044D01*
X008663Y006062D01*
X008651Y006137D01*
X008627Y006209D01*
X008593Y006276D01*
X008549Y006337D01*
X008495Y006391D01*
X008434Y006435D01*
X008367Y006469D01*
X008295Y006493D01*
X008220Y006504D01*
X007903Y006504D01*
X007903Y006044D01*
X007863Y006044D01*
X007863Y006004D01*
X007103Y006004D01*
X007103Y005987D01*
X007114Y005912D01*
X007138Y005840D01*
X007172Y005773D01*
X007216Y005712D01*
X007270Y005658D01*
X007331Y005614D01*
X007398Y005580D01*
X007193Y005744D02*
X005994Y005744D01*
X006086Y005642D02*
X006086Y005642D01*
X006086Y005642D01*
X005885Y005902D02*
X007118Y005902D01*
X007103Y006044D02*
X007863Y006044D01*
X007863Y006504D01*
X007545Y006504D01*
X007470Y006493D01*
X007398Y006469D01*
X007331Y006435D01*
X007270Y006391D01*
X007216Y006337D01*
X007172Y006276D01*
X007138Y006209D01*
X007114Y006137D01*
X007103Y006062D01*
X007103Y006044D01*
X007103Y006061D02*
X005792Y006061D01*
X005726Y006219D02*
X007143Y006219D01*
X007257Y006378D02*
X005678Y006378D01*
X005646Y006536D02*
X007454Y006536D01*
X007483Y006524D02*
X007299Y006601D01*
X007159Y006741D01*
X007083Y006925D01*
X007083Y007124D01*
X007159Y007308D01*
X007299Y007448D01*
X007483Y007524D01*
X008282Y007524D01*
X008466Y007448D01*
X008606Y007308D01*
X008683Y007124D01*
X008683Y006925D01*
X008606Y006741D01*
X008466Y006601D01*
X008282Y006524D01*
X007483Y006524D01*
X007205Y006695D02*
X005630Y006695D01*
X005627Y006853D02*
X007112Y006853D01*
X007083Y007012D02*
X005627Y007012D01*
X005627Y007170D02*
X007102Y007170D01*
X007180Y007329D02*
X005627Y007329D01*
X005627Y007487D02*
X007394Y007487D01*
X008371Y007487D02*
X011179Y007487D01*
X011013Y007329D02*
X008585Y007329D01*
X008663Y007170D02*
X010846Y007170D01*
X010680Y007012D02*
X008683Y007012D01*
X008653Y006853D02*
X010516Y006853D01*
X010357Y006695D02*
X008560Y006695D01*
X008311Y006536D02*
X010199Y006536D01*
X010040Y006378D02*
X008508Y006378D01*
X008622Y006219D02*
X009882Y006219D01*
X009717Y006061D02*
X008663Y006061D01*
X008663Y006004D02*
X007903Y006004D01*
X007903Y005544D01*
X008220Y005544D01*
X008295Y005556D01*
X008367Y005580D01*
X008434Y005614D01*
X008495Y005658D01*
X008549Y005712D01*
X008593Y005773D01*
X008627Y005840D01*
X008651Y005912D01*
X008663Y005987D01*
X008663Y006004D01*
X008648Y005902D02*
X009066Y005902D01*
X008949Y005835D02*
X008949Y005835D01*
X008949Y005835D01*
X008897Y005744D02*
X008572Y005744D01*
X008378Y005585D02*
X008835Y005585D01*
X008835Y005427D02*
X008487Y005427D01*
X008623Y005268D02*
X008835Y005268D01*
X008835Y005110D02*
X008683Y005110D01*
X008683Y004951D02*
X008835Y004951D01*
X008835Y004793D02*
X008628Y004793D01*
X008500Y004634D02*
X008835Y004634D01*
X008835Y004476D02*
X003000Y004476D01*
X002726Y004317D02*
X008835Y004317D01*
X008835Y004159D02*
X000408Y004159D01*
X000408Y004317D02*
X001239Y004317D01*
X000965Y004476D02*
X000408Y004476D01*
X000407Y004634D02*
X000756Y004634D01*
X000598Y004793D02*
X000407Y004793D01*
X000407Y004951D02*
X000466Y004951D01*
X000408Y004000D02*
X008835Y004000D01*
X008835Y003842D02*
X000408Y003842D01*
X000408Y003683D02*
X008835Y003683D01*
X008835Y003525D02*
X002031Y003525D01*
X001887Y003563D02*
X002205Y003478D01*
X002490Y003314D01*
X002723Y003081D01*
X002888Y002796D01*
X002973Y002478D01*
X002973Y002149D01*
X002888Y001831D01*
X002723Y001546D01*
X002490Y001313D01*
X002205Y001149D01*
X001887Y001063D01*
X001558Y001063D01*
X001240Y001149D01*
X000955Y001313D01*
X000723Y001546D01*
X000558Y001831D01*
X000473Y002149D01*
X000473Y002478D01*
X000558Y002796D01*
X000723Y003081D01*
X000955Y003314D01*
X001240Y003478D01*
X001558Y003563D01*
X001887Y003563D01*
X001415Y003525D02*
X000408Y003525D01*
X000408Y003366D02*
X001047Y003366D01*
X000850Y003208D02*
X000408Y003208D01*
X000409Y003049D02*
X000704Y003049D01*
X000613Y002891D02*
X000409Y002891D01*
X000409Y002732D02*
X000541Y002732D01*
X000499Y002574D02*
X000409Y002574D01*
X000409Y002415D02*
X000473Y002415D01*
X000473Y002257D02*
X000409Y002257D01*
X000409Y002098D02*
X000486Y002098D01*
X000529Y001940D02*
X000409Y001940D01*
X000409Y001781D02*
X000587Y001781D01*
X000678Y001623D02*
X000409Y001623D01*
X000410Y001464D02*
X000804Y001464D01*
X000968Y001306D02*
X000410Y001306D01*
X000410Y001147D02*
X001245Y001147D01*
X002201Y001147D02*
X003256Y001147D01*
X003181Y001306D02*
X002478Y001306D01*
X002642Y001464D02*
X003153Y001464D01*
X003162Y001623D02*
X002768Y001623D01*
X002859Y001781D02*
X003228Y001781D01*
X003370Y001940D02*
X002917Y001940D01*
X002959Y002098D02*
X008491Y002098D01*
X008491Y001940D02*
X007253Y001940D01*
X007261Y001926D02*
X007237Y001967D01*
X007203Y002001D01*
X007162Y002024D01*
X007117Y002037D01*
X006743Y002037D01*
X006743Y001507D01*
X007273Y001507D01*
X007273Y001880D01*
X007261Y001926D01*
X007273Y001781D02*
X008491Y001781D01*
X008491Y001623D02*
X007273Y001623D01*
X007273Y001464D02*
X008491Y001464D01*
X008491Y001306D02*
X007273Y001306D01*
X007273Y001147D02*
X008541Y001147D01*
X009581Y001147D02*
X009658Y001147D01*
X010235Y001005D02*
X011887Y001005D01*
X011738Y001067D01*
X011578Y001228D01*
X011539Y001322D01*
X011384Y001167D01*
X011174Y001080D01*
X010948Y001080D01*
X010738Y001167D01*
X010583Y001322D01*
X010544Y001228D01*
X010384Y001067D01*
X010235Y001005D01*
X010464Y001147D02*
X010786Y001147D01*
X010599Y001306D02*
X010577Y001306D01*
X011336Y001147D02*
X011658Y001147D01*
X011545Y001306D02*
X011523Y001306D01*
X012235Y001005D02*
X013887Y001005D01*
X013738Y001067D01*
X013578Y001228D01*
X013539Y001322D01*
X013384Y001167D01*
X013174Y001080D01*
X012948Y001080D01*
X012738Y001167D01*
X012583Y001322D01*
X012544Y001228D01*
X012384Y001067D01*
X012235Y001005D01*
X012464Y001147D02*
X012786Y001147D01*
X012599Y001306D02*
X012577Y001306D01*
X013336Y001147D02*
X013658Y001147D01*
X013545Y001306D02*
X013523Y001306D01*
X013583Y001879D02*
X013544Y001973D01*
X013521Y001997D01*
X014338Y003772D01*
X014068Y002488D01*
X013980Y002120D01*
X013948Y002120D01*
X013738Y002034D01*
X013583Y001879D01*
X013558Y001940D02*
X013644Y001940D01*
X013567Y002098D02*
X013894Y002098D01*
X014012Y002257D02*
X013640Y002257D01*
X013713Y002415D02*
X014050Y002415D01*
X014086Y002574D02*
X013786Y002574D01*
X013859Y002732D02*
X014119Y002732D01*
X014152Y002891D02*
X013932Y002891D01*
X014005Y003049D02*
X014186Y003049D01*
X014219Y003208D02*
X014078Y003208D01*
X014151Y003366D02*
X014252Y003366D01*
X014224Y003525D02*
X014286Y003525D01*
X014297Y003683D02*
X014319Y003683D01*
X013820Y003842D02*
X013475Y003842D01*
X013396Y003683D02*
X013747Y003683D01*
X013674Y003525D02*
X013317Y003525D01*
X013238Y003366D02*
X013601Y003366D01*
X013528Y003208D02*
X013158Y003208D01*
X013079Y003049D02*
X013455Y003049D01*
X013382Y002891D02*
X013000Y002891D01*
X012921Y002732D02*
X013309Y002732D01*
X013236Y002574D02*
X012841Y002574D01*
X012762Y002415D02*
X013163Y002415D01*
X013090Y002257D02*
X012683Y002257D01*
X012738Y002134D02*
X012578Y001973D01*
X012539Y001879D01*
X012509Y001909D01*
X013747Y004385D01*
X013794Y004404D01*
X013884Y004494D01*
X013933Y004612D01*
X013933Y004739D01*
X013884Y004857D01*
X013794Y004947D01*
X013676Y004996D01*
X013549Y004996D01*
X013431Y004947D01*
X013341Y004857D01*
X013293Y004739D01*
X013293Y004612D01*
X013297Y004603D01*
X013208Y004426D01*
X013228Y004639D01*
X013193Y004752D01*
X013193Y007679D01*
X013106Y007831D01*
X012955Y007918D01*
X012878Y007918D01*
X012878Y008036D01*
X012980Y008036D01*
X013119Y008094D01*
X013226Y008201D01*
X013284Y008340D01*
X013284Y008491D01*
X013226Y008631D01*
X013148Y008709D01*
X013277Y008763D01*
X013384Y008870D01*
X013441Y009010D01*
X013441Y009141D01*
X013493Y009137D01*
X013844Y009036D01*
X014154Y008842D01*
X014279Y008720D01*
X014453Y008478D01*
X014453Y008219D01*
X014676Y007996D01*
X014991Y007996D01*
X015213Y008219D01*
X015213Y008475D01*
X015231Y008431D01*
X015321Y008341D01*
X015439Y008293D01*
X015497Y008293D01*
X015604Y008186D01*
X015665Y008125D01*
X015808Y007981D01*
X015808Y007981D01*
X016159Y007779D01*
X016159Y007779D01*
X016551Y007674D01*
X016887Y007674D01*
X016493Y007279D01*
X016462Y007279D01*
X016345Y007230D01*
X016255Y007140D01*
X016206Y007023D01*
X016206Y006895D01*
X016255Y006778D01*
X016345Y006688D01*
X016462Y006639D01*
X016590Y006639D01*
X016707Y006688D01*
X016797Y006778D01*
X016846Y006895D01*
X016846Y006926D01*
X017338Y007418D01*
X018371Y007418D01*
X018392Y007396D01*
X018510Y007348D01*
X018637Y007348D01*
X018667Y007360D01*
X018641Y007296D01*
X018641Y007204D01*
X017781Y006649D01*
X017683Y006649D01*
X017565Y006600D01*
X017475Y006510D01*
X017427Y006393D01*
X017427Y006266D01*
X017463Y006177D01*
X017368Y006177D01*
X017250Y006128D01*
X017160Y006038D01*
X017112Y005920D01*
X017112Y005793D01*
X017160Y005675D01*
X017250Y005585D01*
X017368Y005537D01*
X017495Y005537D01*
X017542Y005556D01*
X017561Y005553D01*
X017791Y005613D01*
X017860Y005666D01*
X017876Y005672D01*
X017899Y005695D01*
X017925Y005715D01*
X017930Y005722D01*
X017941Y005732D01*
X018011Y005761D01*
X018048Y005764D01*
X018723Y005764D01*
X018788Y005700D01*
X018882Y005661D01*
X018728Y005506D01*
X018720Y005487D01*
X016325Y005487D01*
X016314Y005498D01*
X016196Y005547D01*
X016069Y005547D01*
X015975Y005508D01*
X015881Y005547D01*
X015754Y005547D01*
X015636Y005498D01*
X015546Y005408D01*
X015497Y005290D01*
X015497Y005163D01*
X015546Y005046D01*
X015617Y004974D01*
X015566Y004996D01*
X015439Y004996D01*
X015321Y004947D01*
X015306Y004931D01*
X015290Y004947D01*
X015172Y004996D01*
X015045Y004996D01*
X014951Y004957D01*
X014857Y004996D01*
X014730Y004996D01*
X014636Y004957D01*
X014542Y004996D01*
X014415Y004996D01*
X014298Y004947D01*
X014208Y004857D01*
X014159Y004739D01*
X014159Y004612D01*
X014166Y004594D01*
X013073Y002220D01*
X012948Y002220D01*
X012738Y002134D01*
X012703Y002098D02*
X012604Y002098D01*
X012564Y001940D02*
X012524Y001940D01*
X012056Y002120D02*
X011948Y002120D01*
X011741Y002035D01*
X012170Y002561D01*
X012181Y002568D01*
X012201Y002599D01*
X012224Y002627D01*
X012228Y002640D01*
X012604Y003217D01*
X012056Y002120D01*
X012124Y002257D02*
X011922Y002257D01*
X011894Y002098D02*
X011793Y002098D01*
X012051Y002415D02*
X012203Y002415D01*
X012184Y002574D02*
X012282Y002574D01*
X012288Y002732D02*
X012362Y002732D01*
X012391Y002891D02*
X012441Y002891D01*
X012495Y003049D02*
X012520Y003049D01*
X012598Y003208D02*
X012599Y003208D01*
X012208Y003525D02*
X012190Y003525D01*
X012212Y003555D02*
X012216Y003559D01*
X012222Y003546D01*
X011796Y002894D01*
X011229Y002198D01*
X011174Y002220D01*
X011011Y002220D01*
X012108Y003419D01*
X012127Y003433D01*
X012142Y003456D01*
X012160Y003476D01*
X012166Y003491D01*
X012212Y003555D01*
X012212Y003555D01*
X012104Y003366D02*
X012060Y003366D01*
X012001Y003208D02*
X011915Y003208D01*
X011898Y003049D02*
X011770Y003049D01*
X011794Y002891D02*
X011625Y002891D01*
X011665Y002732D02*
X011480Y002732D01*
X011535Y002574D02*
X011335Y002574D01*
X011406Y002415D02*
X011190Y002415D01*
X011277Y002257D02*
X011045Y002257D01*
X010657Y002574D02*
X009335Y002574D01*
X009335Y002415D02*
X010512Y002415D01*
X010367Y002257D02*
X009335Y002257D01*
X009335Y002220D02*
X009335Y005449D01*
X009439Y005449D01*
X009525Y005449D01*
X009525Y005449D01*
X009789Y005520D01*
X009789Y005520D01*
X010026Y005657D01*
X010087Y005718D01*
X010125Y005755D01*
X010158Y005788D01*
X010913Y006544D01*
X011707Y007299D01*
X011712Y007302D01*
X011742Y007334D01*
X011774Y007364D01*
X011776Y007369D01*
X012378Y008003D01*
X012378Y007810D01*
X012453Y007630D01*
X012453Y007630D01*
X012591Y007492D01*
X012693Y007450D01*
X012693Y004726D01*
X012690Y004689D01*
X012693Y004677D01*
X012693Y004665D01*
X012706Y004635D01*
X012716Y004586D01*
X012705Y004476D01*
X009335Y004476D01*
X009335Y004634D02*
X012706Y004634D01*
X012705Y004476D02*
X012653Y004377D01*
X012567Y004306D01*
X012523Y004288D01*
X012378Y004261D01*
X012378Y004261D01*
X012073Y004112D01*
X011821Y003885D01*
X011742Y003760D01*
X010223Y002100D01*
X010174Y002120D01*
X009948Y002120D01*
X009738Y002034D01*
X009631Y001927D01*
X009631Y002103D01*
X009514Y002220D01*
X009335Y002220D01*
X009631Y002098D02*
X009894Y002098D01*
X009644Y001940D02*
X009631Y001940D01*
X008835Y002257D02*
X002973Y002257D01*
X002973Y002415D02*
X008835Y002415D01*
X008835Y002574D02*
X002947Y002574D01*
X002905Y002732D02*
X008835Y002732D01*
X008835Y002891D02*
X002833Y002891D01*
X002741Y003049D02*
X008835Y003049D01*
X008835Y003208D02*
X002596Y003208D01*
X002399Y003366D02*
X008835Y003366D01*
X009335Y003366D02*
X011382Y003366D01*
X011237Y003208D02*
X009335Y003208D01*
X009335Y003049D02*
X011092Y003049D01*
X010947Y002891D02*
X009335Y002891D01*
X009335Y002732D02*
X010802Y002732D01*
X011527Y003525D02*
X009335Y003525D01*
X009335Y003683D02*
X011672Y003683D01*
X011794Y003842D02*
X009335Y003842D01*
X009335Y004000D02*
X011949Y004000D01*
X012073Y004112D02*
X012073Y004112D01*
X012169Y004159D02*
X009335Y004159D01*
X009335Y004317D02*
X012581Y004317D01*
X012874Y003904D02*
X012999Y004007D01*
X012919Y003848D01*
X012911Y003867D01*
X012874Y003904D01*
X012991Y004000D02*
X012996Y004000D01*
X013213Y004476D02*
X013233Y004476D01*
X013228Y004634D02*
X013293Y004634D01*
X013228Y004639D02*
X013228Y004639D01*
X013193Y004793D02*
X013315Y004793D01*
X013193Y004951D02*
X013442Y004951D01*
X013193Y005110D02*
X015519Y005110D01*
X015497Y005268D02*
X013193Y005268D01*
X013193Y005427D02*
X015565Y005427D01*
X015703Y004928D02*
X015754Y004907D01*
X015761Y004907D01*
X016446Y004097D01*
X016463Y004056D01*
X016536Y003983D01*
X016632Y003943D01*
X018541Y003943D01*
X018541Y003730D01*
X018658Y003613D01*
X019558Y003613D01*
X019554Y001005D01*
X018540Y001005D01*
X018780Y001070D01*
X019065Y001234D01*
X019298Y001467D01*
X019463Y001752D01*
X019548Y002070D01*
X019548Y002399D01*
X019463Y002717D01*
X019298Y003002D01*
X019065Y003235D01*
X018780Y003400D01*
X018462Y003485D01*
X018133Y003485D01*
X017815Y003400D01*
X017530Y003235D01*
X017297Y003002D01*
X017133Y002717D01*
X017048Y002399D01*
X017048Y002070D01*
X017133Y001752D01*
X017297Y001467D01*
X017530Y001234D01*
X017815Y001070D01*
X018056Y001005D01*
X016235Y001005D01*
X016384Y001067D01*
X016544Y001228D01*
X016631Y001437D01*
X016631Y001664D01*
X016544Y001873D01*
X016384Y002034D01*
X016174Y002120D01*
X015948Y002120D01*
X015918Y002108D01*
X015765Y004486D01*
X015774Y004494D01*
X015822Y004612D01*
X015822Y004739D01*
X015774Y004857D01*
X015703Y004928D01*
X015800Y004793D02*
X015857Y004793D01*
X015822Y004634D02*
X015991Y004634D01*
X016125Y004476D02*
X015766Y004476D01*
X015776Y004317D02*
X016259Y004317D01*
X016394Y004159D02*
X015786Y004159D01*
X015796Y004000D02*
X016519Y004000D01*
X016791Y004463D02*
X016365Y004967D01*
X018683Y004967D01*
X018728Y004860D01*
X018835Y004753D01*
X018658Y004753D01*
X018541Y004636D01*
X018541Y004463D01*
X016791Y004463D01*
X016780Y004476D02*
X018541Y004476D01*
X018541Y004634D02*
X016646Y004634D01*
X016512Y004793D02*
X018795Y004793D01*
X018690Y004951D02*
X016378Y004951D01*
X017250Y005585D02*
X013193Y005585D01*
X013193Y005744D02*
X017132Y005744D01*
X017112Y005902D02*
X013193Y005902D01*
X013193Y006061D02*
X017183Y006061D01*
X017446Y006219D02*
X013193Y006219D01*
X013193Y006378D02*
X017427Y006378D01*
X017501Y006536D02*
X013193Y006536D01*
X013193Y006695D02*
X016338Y006695D01*
X016223Y006853D02*
X013193Y006853D01*
X013193Y007012D02*
X016206Y007012D01*
X016285Y007170D02*
X013193Y007170D01*
X013193Y007329D02*
X013889Y007329D01*
X013786Y007432D02*
X014007Y007211D01*
X014320Y007211D01*
X014439Y007329D01*
X014795Y007329D01*
X014438Y007329D01*
X014795Y007329D02*
X014913Y007211D01*
X015226Y007211D01*
X015447Y007432D01*
X015447Y007746D01*
X015226Y007967D01*
X014913Y007967D01*
X014795Y007849D01*
X014439Y007849D01*
X014320Y007967D01*
X014007Y007967D01*
X013786Y007746D01*
X013786Y007432D01*
X013786Y007487D02*
X013193Y007487D01*
X013193Y007646D02*
X013786Y007646D01*
X013845Y007804D02*
X013121Y007804D01*
X013106Y007831D02*
X013106Y007831D01*
X013106Y007831D01*
X012878Y007963D02*
X014003Y007963D01*
X014325Y007963D02*
X014909Y007963D01*
X015116Y008121D02*
X015668Y008121D01*
X015510Y008280D02*
X015213Y008280D01*
X015213Y008438D02*
X015228Y008438D01*
X015182Y008597D02*
X015150Y008597D01*
X015215Y008755D02*
X014992Y008755D01*
X014756Y008914D02*
X015394Y008914D01*
X015611Y008914D02*
X015709Y008914D01*
X015926Y008914D02*
X016840Y008914D01*
X017050Y008755D02*
X016105Y008755D01*
X016158Y008597D02*
X017260Y008597D01*
X017352Y008438D02*
X016396Y008438D01*
X015840Y007963D02*
X015230Y007963D01*
X015389Y007804D02*
X016115Y007804D01*
X016542Y007329D02*
X015344Y007329D01*
X015447Y007487D02*
X016701Y007487D01*
X016859Y007646D02*
X015447Y007646D01*
X014551Y008121D02*
X013147Y008121D01*
X013259Y008280D02*
X014453Y008280D01*
X014453Y008438D02*
X013284Y008438D01*
X013240Y008597D02*
X014368Y008597D01*
X014243Y008755D02*
X013259Y008755D01*
X013402Y008914D02*
X014039Y008914D01*
X013844Y009036D02*
X013844Y009036D01*
X013718Y009072D02*
X013441Y009072D01*
X013920Y009548D02*
X015998Y009548D01*
X015788Y009706D02*
X010835Y009706D01*
X010709Y009865D02*
X015578Y009865D01*
X015537Y009896D02*
X015537Y009896D01*
X015353Y010023D02*
X010042Y010023D01*
X010042Y009865D02*
X010272Y009865D01*
X010146Y009706D02*
X010042Y009706D01*
X010045Y009548D02*
X010111Y009548D01*
X010144Y009389D02*
X010072Y009389D01*
X010123Y009231D02*
X010268Y009231D01*
X010221Y009072D02*
X012170Y009072D01*
X012106Y008914D02*
X010371Y008914D01*
X010677Y008755D02*
X011787Y008755D01*
X011777Y008202D02*
X011777Y008202D01*
X012340Y007963D02*
X012378Y007963D01*
X012381Y007804D02*
X012190Y007804D01*
X012039Y007646D02*
X012446Y007646D01*
X012591Y007492D02*
X012591Y007492D01*
X012602Y007487D02*
X011889Y007487D01*
X011738Y007329D02*
X012693Y007329D01*
X012693Y007170D02*
X011571Y007170D01*
X011405Y007012D02*
X012693Y007012D01*
X012693Y006853D02*
X011238Y006853D01*
X011072Y006695D02*
X012693Y006695D01*
X012693Y006536D02*
X010906Y006536D01*
X010747Y006378D02*
X012693Y006378D01*
X012693Y006219D02*
X010589Y006219D01*
X010430Y006061D02*
X012693Y006061D01*
X012693Y005902D02*
X010272Y005902D01*
X010113Y005744D02*
X012693Y005744D01*
X012693Y005585D02*
X009903Y005585D01*
X010026Y005657D02*
X010026Y005657D01*
X009335Y005427D02*
X012693Y005427D01*
X012693Y005268D02*
X009335Y005268D01*
X009335Y005110D02*
X012693Y005110D01*
X012693Y004951D02*
X009335Y004951D01*
X009335Y004793D02*
X012693Y004793D01*
X013713Y004317D02*
X014039Y004317D01*
X013966Y004159D02*
X013634Y004159D01*
X013555Y004000D02*
X013893Y004000D01*
X013866Y004476D02*
X014112Y004476D01*
X014159Y004634D02*
X013933Y004634D01*
X013910Y004793D02*
X014181Y004793D01*
X014308Y004951D02*
X013783Y004951D01*
X014906Y003947D02*
X015020Y002220D01*
X014948Y002220D01*
X014738Y002134D01*
X014578Y001973D01*
X014539Y001879D01*
X014473Y001945D01*
X014563Y002324D01*
X014565Y002327D01*
X014575Y002375D01*
X014586Y002422D01*
X014586Y002425D01*
X014906Y003947D01*
X014913Y003842D02*
X014884Y003842D01*
X014851Y003683D02*
X014923Y003683D01*
X014934Y003525D02*
X014817Y003525D01*
X014784Y003366D02*
X014944Y003366D01*
X014955Y003208D02*
X014750Y003208D01*
X014717Y003049D02*
X014965Y003049D01*
X014976Y002891D02*
X014684Y002891D01*
X014650Y002732D02*
X014986Y002732D01*
X014996Y002574D02*
X014617Y002574D01*
X014585Y002415D02*
X015007Y002415D01*
X015017Y002257D02*
X014547Y002257D01*
X014509Y002098D02*
X014703Y002098D01*
X014564Y001940D02*
X014478Y001940D01*
X014583Y001322D02*
X014738Y001167D01*
X014948Y001080D01*
X015174Y001080D01*
X015384Y001167D01*
X015539Y001322D01*
X015578Y001228D01*
X015738Y001067D01*
X015887Y001005D01*
X014235Y001005D01*
X014384Y001067D01*
X014544Y001228D01*
X014583Y001322D01*
X014577Y001306D02*
X014599Y001306D01*
X014464Y001147D02*
X014786Y001147D01*
X015336Y001147D02*
X015658Y001147D01*
X015545Y001306D02*
X015523Y001306D01*
X016464Y001147D02*
X017681Y001147D01*
X017459Y001306D02*
X016577Y001306D01*
X016631Y001464D02*
X017300Y001464D01*
X017208Y001623D02*
X016631Y001623D01*
X016582Y001781D02*
X017125Y001781D01*
X017083Y001940D02*
X016478Y001940D01*
X016228Y002098D02*
X017048Y002098D01*
X017048Y002257D02*
X015908Y002257D01*
X015898Y002415D02*
X017052Y002415D01*
X017095Y002574D02*
X015888Y002574D01*
X015878Y002732D02*
X017142Y002732D01*
X017233Y002891D02*
X015867Y002891D01*
X015857Y003049D02*
X017345Y003049D01*
X017503Y003208D02*
X015847Y003208D01*
X015837Y003366D02*
X017758Y003366D01*
X018587Y003683D02*
X015817Y003683D01*
X015827Y003525D02*
X019558Y003525D01*
X019557Y003366D02*
X018837Y003366D01*
X019092Y003208D02*
X019557Y003208D01*
X019557Y003049D02*
X019251Y003049D01*
X019362Y002891D02*
X019557Y002891D01*
X019557Y002732D02*
X019454Y002732D01*
X019501Y002574D02*
X019556Y002574D01*
X019543Y002415D02*
X019556Y002415D01*
X019548Y002257D02*
X019556Y002257D01*
X019548Y002098D02*
X019556Y002098D01*
X019555Y001940D02*
X019513Y001940D01*
X019470Y001781D02*
X019555Y001781D01*
X019555Y001623D02*
X019388Y001623D01*
X019295Y001464D02*
X019555Y001464D01*
X019555Y001306D02*
X019137Y001306D01*
X018915Y001147D02*
X019554Y001147D01*
X018541Y003842D02*
X015806Y003842D01*
X015332Y004951D02*
X015279Y004951D01*
X016714Y006695D02*
X017852Y006695D01*
X018098Y006853D02*
X016829Y006853D01*
X016932Y007012D02*
X018344Y007012D01*
X018589Y007170D02*
X017091Y007170D01*
X017249Y007329D02*
X018654Y007329D01*
X018846Y006741D02*
X018882Y006705D01*
X018788Y006666D01*
X018628Y006506D01*
X018541Y006296D01*
X018541Y006264D01*
X018107Y006264D01*
X018846Y006741D01*
X018858Y006695D02*
X018775Y006695D01*
X018658Y006536D02*
X018529Y006536D01*
X018575Y006378D02*
X018283Y006378D01*
X017971Y005744D02*
X018744Y005744D01*
X018807Y005585D02*
X017684Y005585D01*
X017791Y005613D02*
X017791Y005613D01*
X017561Y005553D02*
X017561Y005553D01*
X019439Y005705D02*
X019561Y005827D01*
X019561Y005639D01*
X019534Y005666D01*
X019439Y005705D01*
X019478Y005744D02*
X019561Y005744D01*
X019562Y006538D02*
X019439Y006661D01*
X019534Y006700D01*
X019562Y006728D01*
X019562Y006538D01*
X019562Y006695D02*
X019522Y006695D01*
X019564Y007636D02*
X019564Y007830D01*
X019439Y007705D01*
X019534Y007666D01*
X019564Y007636D01*
X019564Y007646D02*
X019554Y007646D01*
X019539Y007804D02*
X019564Y007804D01*
X019565Y008535D02*
X019565Y008731D01*
X019534Y008700D01*
X019439Y008661D01*
X019565Y008535D01*
X019565Y008597D02*
X019503Y008597D01*
X018674Y008989D02*
X018216Y008530D01*
X018146Y008475D01*
X018059Y008430D01*
X018087Y008498D01*
X018087Y008649D01*
X018029Y008789D01*
X017922Y008895D01*
X017783Y008953D01*
X017632Y008953D01*
X017623Y008950D01*
X016784Y009582D01*
X016899Y009629D01*
X017006Y009736D01*
X017064Y009876D01*
X017064Y010027D01*
X017006Y010166D01*
X016899Y010273D01*
X016806Y010312D01*
X017415Y010312D01*
X017769Y009957D01*
X018587Y009957D01*
X018628Y009860D01*
X018788Y009700D01*
X018882Y009661D01*
X018728Y009506D01*
X018641Y009296D01*
X018641Y009070D01*
X018674Y008989D01*
X018641Y009072D02*
X017460Y009072D01*
X017250Y009231D02*
X018641Y009231D01*
X018679Y009389D02*
X017040Y009389D01*
X016829Y009548D02*
X018770Y009548D01*
X018781Y009706D02*
X016976Y009706D01*
X017059Y009865D02*
X018626Y009865D01*
X018625Y010499D02*
X017878Y010499D01*
X017720Y010657D02*
X018779Y010657D01*
X018772Y010816D02*
X017465Y010816D01*
X017320Y010816D02*
X016622Y010816D01*
X016273Y010816D02*
X015913Y010816D01*
X016133Y010657D02*
X016149Y010657D01*
X016990Y010182D02*
X017545Y010182D01*
X017703Y010023D02*
X017064Y010023D01*
X016209Y009389D02*
X014246Y009389D01*
X014487Y009238D02*
X014487Y009238D01*
X014487Y009238D01*
X014494Y009231D02*
X016419Y009231D01*
X016629Y009072D02*
X014638Y009072D01*
X015038Y010182D02*
X010042Y010182D01*
X010042Y010340D02*
X011754Y010340D01*
X012007Y010340D02*
X014537Y010340D01*
X014112Y010392D02*
X014112Y010392D01*
X012421Y012084D02*
X008912Y012084D01*
X008912Y012242D02*
X012156Y012242D01*
X011998Y012401D02*
X008849Y012401D01*
X008795Y012455D02*
X008912Y012338D01*
X008912Y011816D01*
X008274Y011699D02*
X008274Y008755D01*
X008274Y008914D02*
X005627Y008914D01*
X005627Y009072D02*
X008274Y009072D01*
X008274Y009231D02*
X005627Y009231D01*
X005627Y009389D02*
X008274Y009389D01*
X008274Y009548D02*
X005627Y009548D01*
X005627Y009706D02*
X008274Y009706D01*
X008274Y009865D02*
X005627Y009865D01*
X005627Y010023D02*
X008274Y010023D01*
X008274Y010182D02*
X005627Y010182D01*
X005627Y010340D02*
X008274Y010340D01*
X008274Y010499D02*
X005627Y010499D01*
X005627Y010657D02*
X008274Y010657D01*
X008274Y010816D02*
X005627Y010816D01*
X005627Y010974D02*
X008274Y010974D01*
X008274Y011133D02*
X005627Y011133D01*
X005627Y011291D02*
X008274Y011291D01*
X008274Y011450D02*
X005627Y011450D01*
X005627Y011608D02*
X008274Y011608D01*
X008273Y011699D02*
X008274Y011699D01*
X008273Y011699D02*
X008156Y011816D01*
X008156Y012338D01*
X008273Y012455D01*
X008795Y012455D01*
X008878Y012776D02*
X009844Y012776D01*
X009961Y012894D01*
X009961Y013859D01*
X009844Y013976D01*
X008878Y013976D01*
X008761Y013859D01*
X008761Y012894D01*
X008878Y012776D01*
X008778Y012876D02*
X008331Y012876D01*
X008323Y012868D02*
X008491Y013037D01*
X008583Y013257D01*
X008583Y013496D01*
X008491Y013716D01*
X008323Y013885D01*
X008102Y013976D01*
X007863Y013976D01*
X007643Y013885D01*
X007474Y013716D01*
X007383Y013496D01*
X007383Y013257D01*
X007474Y013037D01*
X007643Y012868D01*
X007863Y012776D01*
X008102Y012776D01*
X008323Y012868D01*
X008490Y013035D02*
X008761Y013035D01*
X008761Y013193D02*
X008556Y013193D01*
X008583Y013352D02*
X008761Y013352D01*
X008761Y013510D02*
X008577Y013510D01*
X008511Y013669D02*
X008761Y013669D01*
X008761Y013827D02*
X008380Y013827D01*
X007585Y013827D02*
X006971Y013827D01*
X006983Y013819D02*
X006909Y013872D01*
X006827Y013914D01*
X006741Y013942D01*
X006650Y013956D01*
X006643Y013956D01*
X006643Y013415D01*
X006567Y013415D01*
X006567Y013956D01*
X006559Y013956D01*
X006469Y013942D01*
X006382Y013914D01*
X006301Y013872D01*
X006227Y013819D01*
X006162Y013754D01*
X006109Y013680D01*
X006067Y013599D01*
X006039Y013512D01*
X006025Y013422D01*
X006025Y013415D01*
X006567Y013415D01*
X006567Y013338D01*
X006643Y013338D01*
X006643Y012796D01*
X006650Y012796D01*
X006741Y012811D01*
X006827Y012839D01*
X006909Y012880D01*
X006983Y012934D01*
X007047Y012999D01*
X007101Y013072D01*
X007142Y013154D01*
X007171Y013241D01*
X007185Y013331D01*
X007185Y013338D01*
X006643Y013338D01*
X006643Y013415D01*
X007185Y013415D01*
X007185Y013422D01*
X007171Y013512D01*
X007142Y013599D01*
X007101Y013680D01*
X007047Y013754D01*
X006983Y013819D01*
X007107Y013669D02*
X007454Y013669D01*
X007389Y013510D02*
X007171Y013510D01*
X007383Y013352D02*
X006643Y013352D01*
X006567Y013352D02*
X005827Y013352D01*
X005821Y013510D02*
X006039Y013510D01*
X006103Y013669D02*
X005755Y013669D01*
X005624Y013827D02*
X006239Y013827D01*
X006567Y013827D02*
X006643Y013827D01*
X006643Y013669D02*
X006567Y013669D01*
X006567Y013510D02*
X006643Y013510D01*
X006567Y013338D02*
X006025Y013338D01*
X006025Y013331D01*
X006039Y013241D01*
X006067Y013154D01*
X006109Y013072D01*
X006162Y012999D01*
X006227Y012934D01*
X006301Y012880D01*
X006382Y012839D01*
X006469Y012811D01*
X006559Y012796D01*
X006567Y012796D01*
X006567Y013338D01*
X006567Y013193D02*
X006643Y013193D01*
X006643Y013035D02*
X006567Y013035D01*
X006567Y012876D02*
X006643Y012876D01*
X006901Y012876D02*
X007634Y012876D01*
X007476Y013035D02*
X007074Y013035D01*
X007155Y013193D02*
X007409Y013193D01*
X008219Y012401D02*
X005627Y012401D01*
X005627Y012559D02*
X011873Y012559D01*
X011781Y012718D02*
X005627Y012718D01*
X005627Y012876D02*
X006309Y012876D01*
X006136Y013035D02*
X005734Y013035D01*
X005800Y013193D02*
X006054Y013193D01*
X005627Y012242D02*
X008156Y012242D01*
X008156Y012084D02*
X005627Y012084D01*
X005627Y011925D02*
X008156Y011925D01*
X008205Y011767D02*
X005627Y011767D01*
X009944Y012876D02*
X011717Y012876D01*
X011674Y013035D02*
X009961Y013035D01*
X009961Y013193D02*
X011649Y013193D01*
X011649Y013352D02*
X009961Y013352D01*
X009961Y013510D02*
X011655Y013510D01*
X011697Y013669D02*
X009961Y013669D01*
X009961Y013827D02*
X011740Y013827D01*
X014280Y012876D02*
X015267Y012876D01*
X015267Y012718D02*
X014216Y012718D01*
X011742Y011608D02*
X011664Y011608D01*
X011639Y011608D02*
X010105Y011608D01*
X010162Y011450D02*
X011188Y011450D01*
X011079Y011291D02*
X010150Y011291D01*
X010056Y011133D02*
X011056Y011133D01*
X011101Y010974D02*
X010042Y010974D01*
X010042Y010816D02*
X011273Y010816D01*
X011500Y010657D02*
X010042Y010657D01*
X010042Y010499D02*
X011552Y010499D01*
X011500Y007804D02*
X005627Y007804D01*
X005627Y007646D02*
X011345Y007646D01*
X007903Y006378D02*
X007863Y006378D01*
X007863Y006219D02*
X007903Y006219D01*
X007903Y006061D02*
X007863Y006061D01*
X007863Y005902D02*
X007903Y005902D01*
X007903Y005744D02*
X007863Y005744D01*
X007863Y005585D02*
X007903Y005585D01*
X006743Y001940D02*
X006703Y001940D01*
X006703Y001781D02*
X006743Y001781D01*
X006743Y001623D02*
X006703Y001623D01*
X006703Y001507D02*
X006703Y001467D01*
X005743Y001467D01*
X005743Y001507D01*
X006173Y001507D01*
X006703Y001507D01*
X006173Y001170D02*
X006173Y001093D01*
X006185Y001047D01*
X006209Y001006D01*
X006210Y001005D01*
X005990Y001005D01*
X006011Y001016D01*
X006081Y001067D01*
X006142Y001128D01*
X006173Y001170D01*
X006173Y001147D02*
X006156Y001147D01*
X005743Y001623D02*
X005703Y001623D01*
X005703Y001781D02*
X005743Y001781D01*
X005743Y001940D02*
X005703Y001940D01*
X005411Y001940D02*
X005076Y001940D01*
X005218Y001781D02*
X005257Y001781D01*
X005235Y001233D02*
X005253Y001198D01*
X005303Y001128D01*
X005365Y001067D01*
X005435Y001016D01*
X005456Y001005D01*
X005048Y001005D01*
X005206Y001164D01*
X005235Y001233D01*
X005190Y001147D02*
X005290Y001147D01*
X004398Y001005D02*
X004048Y001005D01*
X004206Y001164D01*
X004223Y001204D01*
X004240Y001164D01*
X004398Y001005D01*
X004256Y001147D02*
X004190Y001147D01*
X004218Y001781D02*
X004228Y001781D01*
X004370Y001940D02*
X004076Y001940D01*
X006035Y001940D02*
X006193Y001940D01*
X017878Y008914D02*
X018600Y008914D01*
X018441Y008755D02*
X018043Y008755D01*
X018087Y008597D02*
X018283Y008597D01*
X018075Y008438D02*
X018063Y008438D01*
X018526Y008134D02*
X018528Y008135D01*
X018541Y008148D01*
X018541Y008134D01*
X018526Y008134D01*
X019439Y009705D02*
X019534Y009666D01*
X019566Y009634D01*
X019567Y009833D01*
X019439Y009705D01*
X019441Y009706D02*
X019566Y009706D01*
X019568Y010532D02*
X019568Y010734D01*
X019534Y010700D01*
X019439Y010661D01*
X019568Y010532D01*
X019568Y010657D02*
X019442Y010657D01*
D27*
X007869Y005030D02*
X006598Y005030D01*
X007869Y005030D02*
X007876Y005029D01*
X007882Y005024D01*
X006598Y005030D02*
X006535Y005032D01*
X006472Y005037D01*
X006410Y005046D01*
X006348Y005058D01*
X006287Y005074D01*
X006227Y005093D01*
X006168Y005115D01*
X006111Y005141D01*
X006055Y005170D01*
X006001Y005202D01*
X005948Y005237D01*
X005898Y005275D01*
X005850Y005316D01*
X005804Y005359D01*
X005227Y006751D02*
X005227Y013376D01*
X005226Y006751D02*
X005228Y006660D01*
X005234Y006569D01*
X005245Y006479D01*
X005260Y006389D01*
X005278Y006300D01*
X005301Y006212D01*
X005328Y006125D01*
X005359Y006040D01*
X005394Y005956D01*
X005432Y005873D01*
X005475Y005793D01*
X005521Y005714D01*
X005571Y005638D01*
X005624Y005564D01*
X005680Y005493D01*
X005740Y005424D01*
X005803Y005359D01*
M02*
