G75*
G70*
%OFA0B0*%
%FSLAX24Y24*%
%IPPOS*%
%LPD*%
%AMOC8*
5,1,8,0,0,1.08239X$1,22.5*
%
%ADD10C,0.0000*%
%ADD11C,0.0060*%
%ADD12C,0.0040*%
%ADD13C,0.0100*%
%ADD14C,0.0030*%
%ADD15C,0.0020*%
%ADD16R,0.0350X0.0500*%
%ADD17C,0.0080*%
%ADD18C,0.0001*%
%ADD19C,0.0059*%
D10*
X000210Y000805D02*
X000201Y014960D01*
X019774Y014960D01*
X019754Y000805D01*
X000210Y000805D01*
X001333Y006024D02*
X001335Y006074D01*
X001341Y006124D01*
X001351Y006174D01*
X001364Y006222D01*
X001381Y006270D01*
X001402Y006316D01*
X001426Y006360D01*
X001454Y006402D01*
X001485Y006442D01*
X001519Y006479D01*
X001556Y006514D01*
X001595Y006545D01*
X001636Y006574D01*
X001680Y006599D01*
X001726Y006621D01*
X001773Y006639D01*
X001821Y006653D01*
X001870Y006664D01*
X001920Y006671D01*
X001970Y006674D01*
X002021Y006673D01*
X002071Y006668D01*
X002121Y006659D01*
X002169Y006647D01*
X002217Y006630D01*
X002263Y006610D01*
X002308Y006587D01*
X002351Y006560D01*
X002391Y006530D01*
X002429Y006497D01*
X002464Y006461D01*
X002497Y006422D01*
X002526Y006381D01*
X002552Y006338D01*
X002575Y006293D01*
X002594Y006246D01*
X002609Y006198D01*
X002621Y006149D01*
X002629Y006099D01*
X002633Y006049D01*
X002633Y005999D01*
X002629Y005949D01*
X002621Y005899D01*
X002609Y005850D01*
X002594Y005802D01*
X002575Y005755D01*
X002552Y005710D01*
X002526Y005667D01*
X002497Y005626D01*
X002464Y005587D01*
X002429Y005551D01*
X002391Y005518D01*
X002351Y005488D01*
X002308Y005461D01*
X002263Y005438D01*
X002217Y005418D01*
X002169Y005401D01*
X002121Y005389D01*
X002071Y005380D01*
X002021Y005375D01*
X001970Y005374D01*
X001920Y005377D01*
X001870Y005384D01*
X001821Y005395D01*
X001773Y005409D01*
X001726Y005427D01*
X001680Y005449D01*
X001636Y005474D01*
X001595Y005503D01*
X001556Y005534D01*
X001519Y005569D01*
X001485Y005606D01*
X001454Y005646D01*
X001426Y005688D01*
X001402Y005732D01*
X001381Y005778D01*
X001364Y005826D01*
X001351Y005874D01*
X001341Y005924D01*
X001335Y005974D01*
X001333Y006024D01*
D11*
X001273Y006024D02*
X001275Y006077D01*
X001281Y006130D01*
X001291Y006182D01*
X001305Y006233D01*
X001322Y006283D01*
X001343Y006332D01*
X001368Y006379D01*
X001396Y006424D01*
X001428Y006467D01*
X001463Y006507D01*
X001500Y006544D01*
X001540Y006579D01*
X001583Y006611D01*
X001628Y006639D01*
X001675Y006664D01*
X001724Y006685D01*
X001774Y006702D01*
X001825Y006716D01*
X001877Y006726D01*
X001930Y006732D01*
X001983Y006734D01*
X002036Y006732D01*
X002089Y006726D01*
X002141Y006716D01*
X002192Y006702D01*
X002242Y006685D01*
X002291Y006664D01*
X002338Y006639D01*
X002383Y006611D01*
X002426Y006579D01*
X002466Y006544D01*
X002503Y006507D01*
X002538Y006467D01*
X002570Y006424D01*
X002598Y006379D01*
X002623Y006332D01*
X002644Y006283D01*
X002661Y006233D01*
X002675Y006182D01*
X002685Y006130D01*
X002691Y006077D01*
X002693Y006024D01*
X002691Y005971D01*
X002685Y005918D01*
X002675Y005866D01*
X002661Y005815D01*
X002644Y005765D01*
X002623Y005716D01*
X002598Y005669D01*
X002570Y005624D01*
X002538Y005581D01*
X002503Y005541D01*
X002466Y005504D01*
X002426Y005469D01*
X002383Y005437D01*
X002338Y005409D01*
X002291Y005384D01*
X002242Y005363D01*
X002192Y005346D01*
X002141Y005332D01*
X002089Y005322D01*
X002036Y005316D01*
X001983Y005314D01*
X001930Y005316D01*
X001877Y005322D01*
X001825Y005332D01*
X001774Y005346D01*
X001724Y005363D01*
X001675Y005384D01*
X001628Y005409D01*
X001583Y005437D01*
X001540Y005469D01*
X001500Y005504D01*
X001463Y005541D01*
X001428Y005581D01*
X001396Y005624D01*
X001368Y005669D01*
X001343Y005716D01*
X001322Y005765D01*
X001305Y005815D01*
X001291Y005866D01*
X001281Y005918D01*
X001275Y005971D01*
X001273Y006024D01*
X001383Y004324D02*
X001383Y003974D01*
X000633Y003974D01*
X000633Y008074D01*
X001383Y008074D01*
X001383Y007724D01*
X001983Y007724D01*
X001983Y008074D01*
X006883Y008074D01*
X006883Y003974D01*
X001983Y003974D01*
X001983Y004324D01*
X001383Y004324D01*
X003259Y002953D02*
X003259Y002633D01*
X003473Y002740D01*
X003579Y002740D01*
X003686Y002633D01*
X003686Y002419D01*
X003579Y002313D01*
X003366Y002313D01*
X003259Y002419D01*
X003904Y002526D02*
X004117Y002313D01*
X004331Y002526D01*
X004331Y002953D01*
X003904Y002953D02*
X003904Y002526D01*
X003686Y002953D02*
X003259Y002953D01*
X000573Y002313D02*
X000575Y002380D01*
X000581Y002448D01*
X000591Y002515D01*
X000605Y002581D01*
X000622Y002646D01*
X000644Y002710D01*
X000669Y002773D01*
X000698Y002834D01*
X000730Y002893D01*
X000766Y002950D01*
X000805Y003005D01*
X000847Y003058D01*
X000892Y003108D01*
X000940Y003155D01*
X000991Y003200D01*
X001044Y003241D01*
X001100Y003280D01*
X001158Y003315D01*
X001218Y003346D01*
X001279Y003374D01*
X001342Y003398D01*
X001406Y003419D01*
X001472Y003435D01*
X001538Y003448D01*
X001605Y003457D01*
X001672Y003462D01*
X001740Y003463D01*
X001807Y003460D01*
X001874Y003453D01*
X001941Y003442D01*
X002007Y003427D01*
X002072Y003409D01*
X002136Y003386D01*
X002198Y003360D01*
X002259Y003331D01*
X002317Y003297D01*
X002374Y003261D01*
X002429Y003221D01*
X002481Y003178D01*
X002530Y003132D01*
X002577Y003083D01*
X002621Y003032D01*
X002661Y002978D01*
X002699Y002922D01*
X002733Y002863D01*
X002763Y002803D01*
X002790Y002741D01*
X002814Y002678D01*
X002833Y002613D01*
X002849Y002548D01*
X002861Y002481D01*
X002869Y002414D01*
X002873Y002347D01*
X002873Y002279D01*
X002869Y002212D01*
X002861Y002145D01*
X002849Y002078D01*
X002833Y002013D01*
X002814Y001948D01*
X002790Y001885D01*
X002763Y001823D01*
X002733Y001763D01*
X002699Y001704D01*
X002661Y001648D01*
X002621Y001594D01*
X002577Y001543D01*
X002530Y001494D01*
X002481Y001448D01*
X002429Y001405D01*
X002374Y001365D01*
X002317Y001329D01*
X002259Y001295D01*
X002198Y001266D01*
X002136Y001240D01*
X002072Y001217D01*
X002007Y001199D01*
X001941Y001184D01*
X001874Y001173D01*
X001807Y001166D01*
X001740Y001163D01*
X001672Y001164D01*
X001605Y001169D01*
X001538Y001178D01*
X001472Y001191D01*
X001406Y001207D01*
X001342Y001228D01*
X001279Y001252D01*
X001218Y001280D01*
X001158Y001311D01*
X001100Y001346D01*
X001044Y001385D01*
X000991Y001426D01*
X000940Y001471D01*
X000892Y001518D01*
X000847Y001568D01*
X000805Y001621D01*
X000766Y001676D01*
X000730Y001733D01*
X000698Y001792D01*
X000669Y001853D01*
X000644Y001916D01*
X000622Y001980D01*
X000605Y002045D01*
X000591Y002111D01*
X000581Y002178D01*
X000575Y002246D01*
X000573Y002313D01*
X008255Y003319D02*
X008735Y003319D01*
X008735Y004379D02*
X008255Y004379D01*
X009720Y005809D02*
X009720Y006045D01*
X010193Y006045D02*
X010193Y005809D01*
X011308Y006687D02*
X011558Y006687D01*
X011808Y006687D01*
X011808Y006837D02*
X011808Y007037D01*
X011308Y007037D01*
X011308Y006837D01*
X011808Y006837D01*
X011808Y007187D02*
X011558Y007187D01*
X011308Y007187D01*
X010203Y007469D02*
X010203Y007705D01*
X009730Y007705D02*
X009730Y007469D01*
X010608Y009087D02*
X010608Y004787D01*
X010610Y004770D01*
X010614Y004753D01*
X010621Y004737D01*
X010631Y004723D01*
X010644Y004710D01*
X010658Y004700D01*
X010674Y004693D01*
X010691Y004689D01*
X010708Y004687D01*
X011108Y004687D01*
X012008Y004687D02*
X012408Y004687D01*
X012425Y004689D01*
X012442Y004693D01*
X012458Y004700D01*
X012472Y004710D01*
X012485Y004723D01*
X012495Y004737D01*
X012502Y004753D01*
X012506Y004770D01*
X012508Y004787D01*
X012508Y009087D01*
X012506Y009104D01*
X012502Y009121D01*
X012495Y009137D01*
X012485Y009151D01*
X012472Y009164D01*
X012458Y009174D01*
X012442Y009181D01*
X012425Y009185D01*
X012408Y009187D01*
X012008Y009187D01*
X011108Y009187D02*
X010708Y009187D01*
X010691Y009185D01*
X010674Y009181D01*
X010658Y009174D01*
X010644Y009164D01*
X010631Y009151D01*
X010621Y009137D01*
X010614Y009121D01*
X010610Y009104D01*
X010608Y009087D01*
X010078Y009666D02*
X009638Y009666D01*
X009398Y009666D01*
X008958Y009666D01*
X009398Y009666D02*
X009400Y009687D01*
X009405Y009707D01*
X009414Y009726D01*
X009426Y009743D01*
X009441Y009758D01*
X009458Y009770D01*
X009477Y009779D01*
X009497Y009784D01*
X009518Y009786D01*
X009539Y009784D01*
X009559Y009779D01*
X009578Y009770D01*
X009595Y009758D01*
X009610Y009743D01*
X009622Y009726D01*
X009631Y009707D01*
X009636Y009687D01*
X009638Y009666D01*
X010078Y011646D02*
X008958Y011646D01*
X011649Y013310D02*
X011651Y013383D01*
X011657Y013456D01*
X011667Y013528D01*
X011681Y013600D01*
X011698Y013671D01*
X011720Y013741D01*
X011745Y013810D01*
X011774Y013877D01*
X011806Y013942D01*
X011842Y014006D01*
X011882Y014068D01*
X011924Y014127D01*
X011970Y014184D01*
X012019Y014238D01*
X012071Y014290D01*
X012125Y014339D01*
X012182Y014385D01*
X012241Y014427D01*
X012303Y014467D01*
X012367Y014503D01*
X012432Y014535D01*
X012499Y014564D01*
X012568Y014589D01*
X012638Y014611D01*
X012709Y014628D01*
X012781Y014642D01*
X012853Y014652D01*
X012926Y014658D01*
X012999Y014660D01*
X013072Y014658D01*
X013145Y014652D01*
X013217Y014642D01*
X013289Y014628D01*
X013360Y014611D01*
X013430Y014589D01*
X013499Y014564D01*
X013566Y014535D01*
X013631Y014503D01*
X013695Y014467D01*
X013757Y014427D01*
X013816Y014385D01*
X013873Y014339D01*
X013927Y014290D01*
X013979Y014238D01*
X014028Y014184D01*
X014074Y014127D01*
X014116Y014068D01*
X014156Y014006D01*
X014192Y013942D01*
X014224Y013877D01*
X014253Y013810D01*
X014278Y013741D01*
X014300Y013671D01*
X014317Y013600D01*
X014331Y013528D01*
X014341Y013456D01*
X014347Y013383D01*
X014349Y013310D01*
X014347Y013237D01*
X014341Y013164D01*
X014331Y013092D01*
X014317Y013020D01*
X014300Y012949D01*
X014278Y012879D01*
X014253Y012810D01*
X014224Y012743D01*
X014192Y012678D01*
X014156Y012614D01*
X014116Y012552D01*
X014074Y012493D01*
X014028Y012436D01*
X013979Y012382D01*
X013927Y012330D01*
X013873Y012281D01*
X013816Y012235D01*
X013757Y012193D01*
X013695Y012153D01*
X013631Y012117D01*
X013566Y012085D01*
X013499Y012056D01*
X013430Y012031D01*
X013360Y012009D01*
X013289Y011992D01*
X013217Y011978D01*
X013145Y011968D01*
X013072Y011962D01*
X012999Y011960D01*
X012926Y011962D01*
X012853Y011968D01*
X012781Y011978D01*
X012709Y011992D01*
X012638Y012009D01*
X012568Y012031D01*
X012499Y012056D01*
X012432Y012085D01*
X012367Y012117D01*
X012303Y012153D01*
X012241Y012193D01*
X012182Y012235D01*
X012125Y012281D01*
X012071Y012330D01*
X012019Y012382D01*
X011970Y012436D01*
X011924Y012493D01*
X011882Y012552D01*
X011842Y012614D01*
X011806Y012678D01*
X011774Y012743D01*
X011745Y012810D01*
X011720Y012879D01*
X011698Y012949D01*
X011681Y013020D01*
X011667Y013092D01*
X011657Y013164D01*
X011651Y013237D01*
X011649Y013310D01*
X014085Y010935D02*
X014321Y010935D01*
X014321Y010463D02*
X014085Y010463D01*
X014031Y008787D02*
X013891Y008647D01*
X013891Y006027D01*
X016651Y006027D01*
X016651Y008787D01*
X014031Y008787D01*
X014050Y008487D02*
X014052Y008510D01*
X014058Y008533D01*
X014067Y008554D01*
X014080Y008574D01*
X014096Y008591D01*
X014114Y008605D01*
X014134Y008616D01*
X014156Y008624D01*
X014179Y008628D01*
X014203Y008628D01*
X014226Y008624D01*
X014248Y008616D01*
X014268Y008605D01*
X014286Y008591D01*
X014302Y008574D01*
X014315Y008554D01*
X014324Y008533D01*
X014330Y008510D01*
X014332Y008487D01*
X014330Y008464D01*
X014324Y008441D01*
X014315Y008420D01*
X014302Y008400D01*
X014286Y008383D01*
X014268Y008369D01*
X014248Y008358D01*
X014226Y008350D01*
X014203Y008346D01*
X014179Y008346D01*
X014156Y008350D01*
X014134Y008358D01*
X014114Y008369D01*
X014096Y008383D01*
X014080Y008400D01*
X014067Y008420D01*
X014058Y008441D01*
X014052Y008464D01*
X014050Y008487D01*
X016485Y013091D02*
X016485Y013412D01*
X016592Y013519D01*
X016806Y013519D01*
X016912Y013412D01*
X016912Y013091D01*
X016912Y013305D02*
X017126Y013519D01*
X017019Y013736D02*
X017126Y013843D01*
X017126Y014056D01*
X017019Y014163D01*
X016912Y014163D01*
X016806Y014056D01*
X016806Y013843D01*
X016699Y013736D01*
X016592Y013736D01*
X016485Y013843D01*
X016485Y014056D01*
X016592Y014163D01*
X017619Y013850D02*
X018046Y013850D01*
X018046Y013743D01*
X017619Y013316D01*
X017619Y013210D01*
X017126Y013091D02*
X016485Y013091D01*
X018603Y013277D02*
X018710Y013170D01*
X018924Y013170D01*
X019030Y013277D01*
X019030Y013384D01*
X018924Y013490D01*
X018603Y013490D01*
X018603Y013277D01*
X018603Y013490D02*
X018817Y013704D01*
X019030Y013811D01*
X017148Y002235D02*
X017150Y002302D01*
X017156Y002370D01*
X017166Y002437D01*
X017180Y002503D01*
X017197Y002568D01*
X017219Y002632D01*
X017244Y002695D01*
X017273Y002756D01*
X017305Y002815D01*
X017341Y002872D01*
X017380Y002927D01*
X017422Y002980D01*
X017467Y003030D01*
X017515Y003077D01*
X017566Y003122D01*
X017619Y003163D01*
X017675Y003202D01*
X017733Y003237D01*
X017793Y003268D01*
X017854Y003296D01*
X017917Y003320D01*
X017981Y003341D01*
X018047Y003357D01*
X018113Y003370D01*
X018180Y003379D01*
X018247Y003384D01*
X018315Y003385D01*
X018382Y003382D01*
X018449Y003375D01*
X018516Y003364D01*
X018582Y003349D01*
X018647Y003331D01*
X018711Y003308D01*
X018773Y003282D01*
X018834Y003253D01*
X018892Y003219D01*
X018949Y003183D01*
X019004Y003143D01*
X019056Y003100D01*
X019105Y003054D01*
X019152Y003005D01*
X019196Y002954D01*
X019236Y002900D01*
X019274Y002844D01*
X019308Y002785D01*
X019338Y002725D01*
X019365Y002663D01*
X019389Y002600D01*
X019408Y002535D01*
X019424Y002470D01*
X019436Y002403D01*
X019444Y002336D01*
X019448Y002269D01*
X019448Y002201D01*
X019444Y002134D01*
X019436Y002067D01*
X019424Y002000D01*
X019408Y001935D01*
X019389Y001870D01*
X019365Y001807D01*
X019338Y001745D01*
X019308Y001685D01*
X019274Y001626D01*
X019236Y001570D01*
X019196Y001516D01*
X019152Y001465D01*
X019105Y001416D01*
X019056Y001370D01*
X019004Y001327D01*
X018949Y001287D01*
X018892Y001251D01*
X018834Y001217D01*
X018773Y001188D01*
X018711Y001162D01*
X018647Y001139D01*
X018582Y001121D01*
X018516Y001106D01*
X018449Y001095D01*
X018382Y001088D01*
X018315Y001085D01*
X018247Y001086D01*
X018180Y001091D01*
X018113Y001100D01*
X018047Y001113D01*
X017981Y001129D01*
X017917Y001150D01*
X017854Y001174D01*
X017793Y001202D01*
X017733Y001233D01*
X017675Y001268D01*
X017619Y001307D01*
X017566Y001348D01*
X017515Y001393D01*
X017467Y001440D01*
X017422Y001490D01*
X017380Y001543D01*
X017341Y001598D01*
X017305Y001655D01*
X017273Y001714D01*
X017244Y001775D01*
X017219Y001838D01*
X017197Y001902D01*
X017180Y001967D01*
X017166Y002033D01*
X017156Y002100D01*
X017150Y002168D01*
X017148Y002235D01*
X000782Y013034D02*
X000784Y013107D01*
X000790Y013180D01*
X000800Y013252D01*
X000814Y013324D01*
X000831Y013395D01*
X000853Y013465D01*
X000878Y013534D01*
X000907Y013601D01*
X000939Y013666D01*
X000975Y013730D01*
X001015Y013792D01*
X001057Y013851D01*
X001103Y013908D01*
X001152Y013962D01*
X001204Y014014D01*
X001258Y014063D01*
X001315Y014109D01*
X001374Y014151D01*
X001436Y014191D01*
X001500Y014227D01*
X001565Y014259D01*
X001632Y014288D01*
X001701Y014313D01*
X001771Y014335D01*
X001842Y014352D01*
X001914Y014366D01*
X001986Y014376D01*
X002059Y014382D01*
X002132Y014384D01*
X002205Y014382D01*
X002278Y014376D01*
X002350Y014366D01*
X002422Y014352D01*
X002493Y014335D01*
X002563Y014313D01*
X002632Y014288D01*
X002699Y014259D01*
X002764Y014227D01*
X002828Y014191D01*
X002890Y014151D01*
X002949Y014109D01*
X003006Y014063D01*
X003060Y014014D01*
X003112Y013962D01*
X003161Y013908D01*
X003207Y013851D01*
X003249Y013792D01*
X003289Y013730D01*
X003325Y013666D01*
X003357Y013601D01*
X003386Y013534D01*
X003411Y013465D01*
X003433Y013395D01*
X003450Y013324D01*
X003464Y013252D01*
X003474Y013180D01*
X003480Y013107D01*
X003482Y013034D01*
X003480Y012961D01*
X003474Y012888D01*
X003464Y012816D01*
X003450Y012744D01*
X003433Y012673D01*
X003411Y012603D01*
X003386Y012534D01*
X003357Y012467D01*
X003325Y012402D01*
X003289Y012338D01*
X003249Y012276D01*
X003207Y012217D01*
X003161Y012160D01*
X003112Y012106D01*
X003060Y012054D01*
X003006Y012005D01*
X002949Y011959D01*
X002890Y011917D01*
X002828Y011877D01*
X002764Y011841D01*
X002699Y011809D01*
X002632Y011780D01*
X002563Y011755D01*
X002493Y011733D01*
X002422Y011716D01*
X002350Y011702D01*
X002278Y011692D01*
X002205Y011686D01*
X002132Y011684D01*
X002059Y011686D01*
X001986Y011692D01*
X001914Y011702D01*
X001842Y011716D01*
X001771Y011733D01*
X001701Y011755D01*
X001632Y011780D01*
X001565Y011809D01*
X001500Y011841D01*
X001436Y011877D01*
X001374Y011917D01*
X001315Y011959D01*
X001258Y012005D01*
X001204Y012054D01*
X001152Y012106D01*
X001103Y012160D01*
X001057Y012217D01*
X001015Y012276D01*
X000975Y012338D01*
X000939Y012402D01*
X000907Y012467D01*
X000878Y012534D01*
X000853Y012603D01*
X000831Y012673D01*
X000814Y012744D01*
X000800Y012816D01*
X000790Y012888D01*
X000784Y012961D01*
X000782Y013034D01*
D12*
X004647Y011948D02*
X004994Y011948D01*
X005167Y011774D01*
X004994Y011601D01*
X004647Y011601D01*
X004647Y011432D02*
X004734Y011259D01*
X004907Y011085D01*
X004907Y011345D01*
X004994Y011432D01*
X005081Y011432D01*
X005167Y011345D01*
X005167Y011172D01*
X005081Y011085D01*
X004907Y011085D01*
X004821Y010916D02*
X004734Y010916D01*
X004647Y010830D01*
X004647Y010656D01*
X004734Y010569D01*
X004907Y010401D02*
X004907Y010054D01*
X004907Y009885D02*
X004907Y009625D01*
X004821Y009538D01*
X004734Y009538D01*
X004647Y009625D01*
X004647Y009798D01*
X004734Y009885D01*
X005081Y009885D01*
X005167Y009798D01*
X005167Y009625D01*
X005081Y009538D01*
X005647Y009495D02*
X005994Y009495D01*
X005994Y009235D01*
X005908Y009148D01*
X005647Y009148D01*
X005647Y008980D02*
X005561Y008980D01*
X005474Y008893D01*
X005474Y008633D01*
X005994Y008633D01*
X005994Y008893D01*
X005908Y008980D01*
X005821Y008980D01*
X005734Y008893D01*
X005734Y008633D01*
X005734Y008893D02*
X005647Y008980D01*
X006261Y008869D02*
X006261Y009129D01*
X006348Y009216D01*
X006521Y009216D01*
X006608Y009129D01*
X006608Y008869D01*
X006608Y009042D02*
X006782Y009216D01*
X006695Y009385D02*
X006782Y009471D01*
X006782Y009645D01*
X006695Y009731D01*
X006608Y009731D01*
X006521Y009645D01*
X006521Y009471D01*
X006435Y009385D01*
X006348Y009385D01*
X006261Y009471D01*
X006261Y009645D01*
X006348Y009731D01*
X006521Y009900D02*
X006521Y010247D01*
X006435Y010416D02*
X006348Y010416D01*
X006261Y010503D01*
X006261Y010676D01*
X006348Y010763D01*
X006435Y010763D01*
X006521Y010676D01*
X006521Y010503D01*
X006435Y010416D01*
X006521Y010503D02*
X006608Y010416D01*
X006695Y010416D01*
X006782Y010503D01*
X006782Y010676D01*
X006695Y010763D01*
X006608Y010763D01*
X006521Y010676D01*
X006521Y010931D02*
X006261Y010931D01*
X006261Y011278D01*
X006435Y011192D02*
X006521Y011278D01*
X006695Y011278D01*
X006782Y011192D01*
X006782Y011018D01*
X006695Y010931D01*
X006521Y010931D02*
X006435Y011105D01*
X006435Y011192D01*
X005994Y011211D02*
X005474Y011211D01*
X005994Y011558D01*
X005474Y011558D01*
X005474Y011726D02*
X005474Y011987D01*
X005561Y012073D01*
X005908Y012073D01*
X005994Y011987D01*
X005994Y011726D01*
X005474Y011726D01*
X004907Y012116D02*
X004907Y012463D01*
X004734Y012290D02*
X005081Y012290D01*
X006261Y012223D02*
X006261Y011963D01*
X006782Y011963D01*
X006782Y012223D01*
X006695Y012310D01*
X006608Y012310D01*
X006521Y012223D01*
X006521Y011963D01*
X006521Y012223D02*
X006435Y012310D01*
X006348Y012310D01*
X006261Y012223D01*
X007127Y012176D02*
X007301Y012349D01*
X007648Y012349D01*
X007388Y012349D02*
X007388Y012002D01*
X007301Y012002D02*
X007127Y012176D01*
X007301Y012002D02*
X007648Y012002D01*
X007561Y011318D02*
X007648Y011231D01*
X007648Y011058D01*
X007561Y010971D01*
X007561Y010802D02*
X007648Y010715D01*
X007648Y010542D01*
X007561Y010455D01*
X007474Y010455D01*
X007388Y010542D01*
X007388Y010715D01*
X007474Y010802D01*
X007561Y010802D01*
X007388Y010715D02*
X007301Y010802D01*
X007214Y010802D01*
X007127Y010715D01*
X007127Y010542D01*
X007214Y010455D01*
X007301Y010455D01*
X007388Y010542D01*
X007388Y010286D02*
X007388Y009940D01*
X007127Y010200D01*
X007648Y010200D01*
X007561Y009771D02*
X007648Y009684D01*
X007648Y009511D01*
X007561Y009424D01*
X007648Y009255D02*
X007474Y009082D01*
X007474Y009168D02*
X007474Y008908D01*
X007648Y008908D02*
X007127Y008908D01*
X007127Y009168D01*
X007214Y009255D01*
X007388Y009255D01*
X007474Y009168D01*
X007301Y009424D02*
X007388Y009511D01*
X007388Y009684D01*
X007474Y009771D01*
X007561Y009771D01*
X007214Y009771D02*
X007127Y009684D01*
X007127Y009511D01*
X007214Y009424D01*
X007301Y009424D01*
X006782Y008869D02*
X006261Y008869D01*
X005994Y009664D02*
X005994Y009924D01*
X005908Y010011D01*
X005821Y009924D01*
X005821Y009751D01*
X005734Y009664D01*
X005647Y009751D01*
X005647Y010011D01*
X006261Y010160D02*
X006521Y009900D01*
X006261Y010160D02*
X006782Y010160D01*
X005994Y010782D02*
X005994Y010955D01*
X005908Y011042D01*
X005734Y011042D01*
X005734Y010869D01*
X005561Y011042D02*
X005474Y010955D01*
X005474Y010782D01*
X005561Y010695D01*
X005908Y010695D01*
X005994Y010782D01*
X005167Y010830D02*
X005167Y010656D01*
X005081Y010569D01*
X004907Y010743D02*
X004907Y010830D01*
X004994Y010916D01*
X005081Y010916D01*
X005167Y010830D01*
X004907Y010830D02*
X004821Y010916D01*
X007127Y010971D02*
X007388Y010971D01*
X007301Y011144D01*
X007301Y011231D01*
X007388Y011318D01*
X007561Y011318D01*
X007127Y011318D02*
X007127Y010971D01*
X003263Y006563D02*
X003087Y006563D01*
X003029Y006505D01*
X003087Y006446D01*
X003263Y006446D01*
X003263Y006329D02*
X003029Y006329D01*
X003029Y006388D01*
X003087Y006446D01*
X003087Y006204D02*
X003263Y006204D01*
X003263Y006087D02*
X003087Y006087D01*
X003029Y006145D01*
X003087Y006204D01*
X003087Y006087D02*
X003029Y006029D01*
X003029Y005970D01*
X003263Y005970D01*
X003263Y005845D02*
X003263Y005611D01*
X003029Y005845D01*
X002971Y005845D01*
X002912Y005786D01*
X002912Y005670D01*
X002971Y005611D01*
X003204Y005489D02*
X003204Y005430D01*
X003263Y005430D01*
X003263Y005489D01*
X003204Y005489D01*
X003263Y005489D02*
X003379Y005372D01*
X003204Y005246D02*
X003087Y005246D01*
X003029Y005188D01*
X003029Y005129D01*
X003087Y005013D01*
X002912Y005013D01*
X002912Y005246D01*
X003204Y005246D02*
X003263Y005188D01*
X003263Y005071D01*
X003204Y005013D01*
X003263Y004887D02*
X003263Y004654D01*
X003263Y004770D02*
X002912Y004770D01*
X003029Y004654D01*
X003029Y004528D02*
X002912Y004411D01*
X003029Y004294D01*
X003263Y004294D01*
X003087Y004294D02*
X003087Y004528D01*
X003029Y004528D02*
X003263Y004528D01*
X005562Y002728D02*
X005562Y002381D01*
X005649Y002294D01*
X005822Y002294D01*
X005909Y002381D01*
X005909Y002554D01*
X005735Y002554D01*
X005562Y002728D02*
X005649Y002815D01*
X005822Y002815D01*
X005909Y002728D01*
X006077Y002815D02*
X006424Y002294D01*
X006424Y002815D01*
X006593Y002815D02*
X006853Y002815D01*
X006940Y002728D01*
X006940Y002381D01*
X006853Y002294D01*
X006593Y002294D01*
X006593Y002815D01*
X006077Y002815D02*
X006077Y002294D01*
X015609Y013227D02*
X015522Y013314D01*
X015522Y013488D01*
X015609Y013574D01*
X015782Y013574D02*
X015782Y013401D01*
X015782Y013574D02*
X015956Y013574D01*
X016042Y013488D01*
X016042Y013314D01*
X015956Y013227D01*
X015609Y013227D01*
X015522Y013743D02*
X016042Y014090D01*
X015522Y014090D01*
X015522Y014259D02*
X015522Y014519D01*
X015609Y014606D01*
X015956Y014606D01*
X016042Y014519D01*
X016042Y014259D01*
X015522Y014259D01*
X015522Y013743D02*
X016042Y013743D01*
D13*
X019046Y011802D02*
X019092Y011800D01*
X019138Y011795D01*
X019184Y011786D01*
X019229Y011773D01*
X019272Y011757D01*
X019314Y011738D01*
X019355Y011715D01*
X019393Y011689D01*
X019430Y011660D01*
X019464Y011629D01*
X019495Y011595D01*
X019524Y011558D01*
X019550Y011520D01*
X019573Y011479D01*
X019592Y011437D01*
X019608Y011394D01*
X019621Y011349D01*
X019630Y011303D01*
X019635Y011257D01*
X019637Y011211D01*
X019636Y011211D02*
X019636Y011054D01*
X006999Y002156D02*
X005699Y002156D01*
X004439Y002156D02*
X003416Y002156D01*
D14*
X010490Y009339D02*
X010803Y009653D01*
X010646Y009653D02*
X010646Y009339D01*
X010803Y009339D02*
X010490Y009653D01*
X010490Y009496D02*
X010803Y009496D01*
D15*
X010758Y008287D02*
X010758Y005587D01*
X011058Y005587D02*
X011058Y008287D01*
X012058Y008287D02*
X012058Y005587D01*
X012358Y005587D02*
X012358Y008287D01*
X011558Y007337D02*
X011558Y007187D01*
X011558Y006687D02*
X011558Y006537D01*
X006633Y007824D02*
X006633Y004224D01*
X003383Y004224D01*
X003383Y007824D01*
X006633Y007824D01*
X001723Y003463D02*
X001723Y003363D01*
X001723Y001263D02*
X001723Y001163D01*
X018298Y001185D02*
X018298Y001085D01*
X018298Y003285D02*
X018298Y003385D01*
D16*
X007058Y005024D03*
X007058Y006024D03*
X007058Y007024D03*
D17*
X001132Y002313D02*
X001134Y002361D01*
X001140Y002409D01*
X001150Y002456D01*
X001163Y002502D01*
X001181Y002547D01*
X001201Y002591D01*
X001226Y002633D01*
X001254Y002672D01*
X001284Y002709D01*
X001318Y002743D01*
X001355Y002775D01*
X001393Y002804D01*
X001434Y002829D01*
X001477Y002851D01*
X001522Y002869D01*
X001568Y002883D01*
X001615Y002894D01*
X001663Y002901D01*
X001711Y002904D01*
X001759Y002903D01*
X001807Y002898D01*
X001855Y002889D01*
X001901Y002877D01*
X001946Y002860D01*
X001990Y002840D01*
X002032Y002817D01*
X002072Y002790D01*
X002110Y002760D01*
X002145Y002727D01*
X002177Y002691D01*
X002207Y002653D01*
X002233Y002612D01*
X002255Y002569D01*
X002275Y002525D01*
X002290Y002480D01*
X002302Y002433D01*
X002310Y002385D01*
X002314Y002337D01*
X002314Y002289D01*
X002310Y002241D01*
X002302Y002193D01*
X002290Y002146D01*
X002275Y002101D01*
X002255Y002057D01*
X002233Y002014D01*
X002207Y001973D01*
X002177Y001935D01*
X002145Y001899D01*
X002110Y001866D01*
X002072Y001836D01*
X002032Y001809D01*
X001990Y001786D01*
X001946Y001766D01*
X001901Y001749D01*
X001855Y001737D01*
X001807Y001728D01*
X001759Y001723D01*
X001711Y001722D01*
X001663Y001725D01*
X001615Y001732D01*
X001568Y001743D01*
X001522Y001757D01*
X001477Y001775D01*
X001434Y001797D01*
X001393Y001822D01*
X001355Y001851D01*
X001318Y001883D01*
X001284Y001917D01*
X001254Y001954D01*
X001226Y001993D01*
X001201Y002035D01*
X001181Y002079D01*
X001163Y002124D01*
X001150Y002170D01*
X001140Y002217D01*
X001134Y002265D01*
X001132Y002313D01*
X003223Y001737D02*
X003223Y001237D01*
X003473Y000987D01*
X003973Y000987D01*
X004223Y001237D01*
X004473Y000987D01*
X004973Y000987D01*
X005223Y001237D01*
X005473Y000987D01*
X005973Y000987D01*
X006223Y001237D01*
X006473Y000987D01*
X006973Y000987D01*
X007223Y001237D01*
X007223Y001737D01*
X006973Y001987D01*
X006473Y001987D01*
X006223Y001737D01*
X005973Y001987D01*
X005473Y001987D01*
X005223Y001737D01*
X004973Y001987D01*
X004473Y001987D01*
X004223Y001737D01*
X003973Y001987D01*
X003473Y001987D01*
X003223Y001737D01*
X008561Y001850D02*
X008561Y001350D01*
X008811Y001100D01*
X009311Y001100D01*
X009561Y001350D01*
X009811Y001100D01*
X010311Y001100D01*
X010561Y001350D01*
X010811Y001100D01*
X011311Y001100D01*
X011561Y001350D01*
X011811Y001100D01*
X012311Y001100D01*
X012561Y001350D01*
X012811Y001100D01*
X013311Y001100D01*
X013561Y001350D01*
X013811Y001100D01*
X014311Y001100D01*
X014561Y001350D01*
X014811Y001100D01*
X015311Y001100D01*
X015561Y001350D01*
X015811Y001100D01*
X016311Y001100D01*
X016561Y001350D01*
X016561Y001850D01*
X016311Y002100D01*
X015811Y002100D01*
X015561Y001850D01*
X015311Y002100D01*
X014811Y002100D01*
X014561Y001850D01*
X014311Y002100D01*
X013811Y002100D01*
X013561Y001850D01*
X013311Y002100D01*
X012811Y002100D01*
X012561Y001850D01*
X012311Y002100D01*
X011811Y002100D01*
X011561Y001850D01*
X011311Y002100D01*
X010811Y002100D01*
X010561Y001850D01*
X010311Y002100D01*
X009811Y002100D01*
X009561Y001850D01*
X009311Y002100D01*
X008811Y002100D01*
X008561Y001850D01*
X017707Y002235D02*
X017709Y002283D01*
X017715Y002331D01*
X017725Y002378D01*
X017738Y002424D01*
X017756Y002469D01*
X017776Y002513D01*
X017801Y002555D01*
X017829Y002594D01*
X017859Y002631D01*
X017893Y002665D01*
X017930Y002697D01*
X017968Y002726D01*
X018009Y002751D01*
X018052Y002773D01*
X018097Y002791D01*
X018143Y002805D01*
X018190Y002816D01*
X018238Y002823D01*
X018286Y002826D01*
X018334Y002825D01*
X018382Y002820D01*
X018430Y002811D01*
X018476Y002799D01*
X018521Y002782D01*
X018565Y002762D01*
X018607Y002739D01*
X018647Y002712D01*
X018685Y002682D01*
X018720Y002649D01*
X018752Y002613D01*
X018782Y002575D01*
X018808Y002534D01*
X018830Y002491D01*
X018850Y002447D01*
X018865Y002402D01*
X018877Y002355D01*
X018885Y002307D01*
X018889Y002259D01*
X018889Y002211D01*
X018885Y002163D01*
X018877Y002115D01*
X018865Y002068D01*
X018850Y002023D01*
X018830Y001979D01*
X018808Y001936D01*
X018782Y001895D01*
X018752Y001857D01*
X018720Y001821D01*
X018685Y001788D01*
X018647Y001758D01*
X018607Y001731D01*
X018565Y001708D01*
X018521Y001688D01*
X018476Y001671D01*
X018430Y001659D01*
X018382Y001650D01*
X018334Y001645D01*
X018286Y001644D01*
X018238Y001647D01*
X018190Y001654D01*
X018143Y001665D01*
X018097Y001679D01*
X018052Y001697D01*
X018009Y001719D01*
X017968Y001744D01*
X017930Y001773D01*
X017893Y001805D01*
X017859Y001839D01*
X017829Y001876D01*
X017801Y001915D01*
X017776Y001957D01*
X017756Y002001D01*
X017738Y002046D01*
X017725Y002092D01*
X017715Y002139D01*
X017709Y002187D01*
X017707Y002235D01*
X018911Y003683D02*
X018661Y003933D01*
X018661Y004433D01*
X018911Y004683D01*
X018661Y004933D01*
X018661Y005433D01*
X018911Y005683D01*
X018661Y005933D01*
X018661Y006433D01*
X018911Y006683D01*
X018661Y006933D01*
X018661Y007433D01*
X018911Y007683D01*
X018661Y007933D01*
X018661Y008433D01*
X018911Y008683D01*
X018661Y008933D01*
X018661Y009433D01*
X018911Y009683D01*
X018661Y009933D01*
X018661Y010433D01*
X018911Y010683D01*
X018661Y010933D01*
X018661Y011433D01*
X018911Y011683D01*
X019411Y011683D01*
X019661Y011433D01*
X019661Y010933D01*
X019411Y010683D01*
X019661Y010433D01*
X019661Y009933D01*
X019411Y009683D01*
X019661Y009433D01*
X019661Y008933D01*
X019411Y008683D01*
X019661Y008433D01*
X019661Y007933D01*
X019411Y007683D01*
X019661Y007433D01*
X019661Y006933D01*
X019411Y006683D01*
X019661Y006433D01*
X019661Y005933D01*
X019411Y005683D01*
X019661Y005433D01*
X019661Y004933D01*
X019411Y004683D01*
X019661Y004433D01*
X019661Y003933D01*
X019411Y003683D01*
X018911Y003683D01*
X019067Y012010D02*
X018567Y012010D01*
X018317Y012260D01*
X018067Y012010D01*
X017567Y012010D01*
X017317Y012260D01*
X017067Y012010D01*
X016567Y012010D01*
X016317Y012260D01*
X016067Y012010D01*
X015567Y012010D01*
X015317Y012260D01*
X015317Y012760D01*
X015567Y013010D01*
X016067Y013010D01*
X016317Y012760D01*
X016567Y013010D01*
X017067Y013010D01*
X017317Y012760D01*
X017567Y013010D01*
X018067Y013010D01*
X018317Y012760D01*
X018567Y013010D01*
X019067Y013010D01*
X019317Y012760D01*
X019317Y012260D01*
X019067Y012010D01*
X012369Y013310D02*
X012371Y013360D01*
X012377Y013410D01*
X012387Y013459D01*
X012401Y013507D01*
X012418Y013554D01*
X012439Y013599D01*
X012464Y013643D01*
X012492Y013684D01*
X012524Y013723D01*
X012558Y013760D01*
X012595Y013794D01*
X012635Y013824D01*
X012677Y013851D01*
X012721Y013875D01*
X012767Y013896D01*
X012814Y013912D01*
X012862Y013925D01*
X012912Y013934D01*
X012961Y013939D01*
X013012Y013940D01*
X013062Y013937D01*
X013111Y013930D01*
X013160Y013919D01*
X013208Y013904D01*
X013254Y013886D01*
X013299Y013864D01*
X013342Y013838D01*
X013383Y013809D01*
X013422Y013777D01*
X013458Y013742D01*
X013490Y013704D01*
X013520Y013664D01*
X013547Y013621D01*
X013570Y013577D01*
X013589Y013531D01*
X013605Y013483D01*
X013617Y013434D01*
X013625Y013385D01*
X013629Y013335D01*
X013629Y013285D01*
X013625Y013235D01*
X013617Y013186D01*
X013605Y013137D01*
X013589Y013089D01*
X013570Y013043D01*
X013547Y012999D01*
X013520Y012956D01*
X013490Y012916D01*
X013458Y012878D01*
X013422Y012843D01*
X013383Y012811D01*
X013342Y012782D01*
X013299Y012756D01*
X013254Y012734D01*
X013208Y012716D01*
X013160Y012701D01*
X013111Y012690D01*
X013062Y012683D01*
X013012Y012680D01*
X012961Y012681D01*
X012912Y012686D01*
X012862Y012695D01*
X012814Y012708D01*
X012767Y012724D01*
X012721Y012745D01*
X012677Y012769D01*
X012635Y012796D01*
X012595Y012826D01*
X012558Y012860D01*
X012524Y012897D01*
X012492Y012936D01*
X012464Y012977D01*
X012439Y013021D01*
X012418Y013066D01*
X012401Y013113D01*
X012387Y013161D01*
X012377Y013210D01*
X012371Y013260D01*
X012369Y013310D01*
X010266Y014479D02*
X010266Y012038D01*
X004321Y012038D01*
X004321Y014479D01*
X010266Y014479D01*
X010266Y014794D01*
X004321Y014794D01*
X004321Y014479D01*
X001502Y013034D02*
X001504Y013084D01*
X001510Y013134D01*
X001520Y013183D01*
X001534Y013231D01*
X001551Y013278D01*
X001572Y013323D01*
X001597Y013367D01*
X001625Y013408D01*
X001657Y013447D01*
X001691Y013484D01*
X001728Y013518D01*
X001768Y013548D01*
X001810Y013575D01*
X001854Y013599D01*
X001900Y013620D01*
X001947Y013636D01*
X001995Y013649D01*
X002045Y013658D01*
X002094Y013663D01*
X002145Y013664D01*
X002195Y013661D01*
X002244Y013654D01*
X002293Y013643D01*
X002341Y013628D01*
X002387Y013610D01*
X002432Y013588D01*
X002475Y013562D01*
X002516Y013533D01*
X002555Y013501D01*
X002591Y013466D01*
X002623Y013428D01*
X002653Y013388D01*
X002680Y013345D01*
X002703Y013301D01*
X002722Y013255D01*
X002738Y013207D01*
X002750Y013158D01*
X002758Y013109D01*
X002762Y013059D01*
X002762Y013009D01*
X002758Y012959D01*
X002750Y012910D01*
X002738Y012861D01*
X002722Y012813D01*
X002703Y012767D01*
X002680Y012723D01*
X002653Y012680D01*
X002623Y012640D01*
X002591Y012602D01*
X002555Y012567D01*
X002516Y012535D01*
X002475Y012506D01*
X002432Y012480D01*
X002387Y012458D01*
X002341Y012440D01*
X002293Y012425D01*
X002244Y012414D01*
X002195Y012407D01*
X002145Y012404D01*
X002094Y012405D01*
X002045Y012410D01*
X001995Y012419D01*
X001947Y012432D01*
X001900Y012448D01*
X001854Y012469D01*
X001810Y012493D01*
X001768Y012520D01*
X001728Y012550D01*
X001691Y012584D01*
X001657Y012621D01*
X001625Y012660D01*
X001597Y012701D01*
X001572Y012745D01*
X001551Y012790D01*
X001534Y012837D01*
X001520Y012885D01*
X001510Y012934D01*
X001504Y012984D01*
X001502Y013034D01*
D18*
X011102Y008956D02*
X011113Y008940D01*
X011113Y008941D02*
X011068Y008908D01*
X011026Y008873D01*
X010987Y008834D01*
X010950Y008794D01*
X010917Y008750D01*
X010886Y008705D01*
X010859Y008657D01*
X010835Y008608D01*
X010814Y008557D01*
X010797Y008504D01*
X010784Y008451D01*
X010775Y008397D01*
X010769Y008342D01*
X010767Y008287D01*
X010749Y008287D01*
X010748Y008287D01*
X010750Y008344D01*
X010756Y008400D01*
X010766Y008455D01*
X010779Y008510D01*
X010796Y008563D01*
X010817Y008615D01*
X010842Y008666D01*
X010870Y008715D01*
X010901Y008761D01*
X010936Y008806D01*
X010973Y008848D01*
X011014Y008887D01*
X011057Y008923D01*
X011102Y008956D01*
X011103Y008956D01*
X011057Y008922D01*
X011014Y008886D01*
X010974Y008847D01*
X010937Y008805D01*
X010902Y008761D01*
X010871Y008714D01*
X010843Y008665D01*
X010818Y008615D01*
X010797Y008563D01*
X010780Y008509D01*
X010767Y008455D01*
X010757Y008399D01*
X010751Y008344D01*
X010749Y008287D01*
X010750Y008287D01*
X010752Y008344D01*
X010758Y008399D01*
X010768Y008455D01*
X010781Y008509D01*
X010798Y008562D01*
X010819Y008614D01*
X010844Y008665D01*
X010872Y008714D01*
X010903Y008760D01*
X010937Y008804D01*
X010975Y008846D01*
X011015Y008885D01*
X011058Y008922D01*
X011103Y008955D01*
X011104Y008954D01*
X011058Y008921D01*
X011016Y008885D01*
X010976Y008846D01*
X010938Y008804D01*
X010904Y008760D01*
X010873Y008713D01*
X010845Y008664D01*
X010820Y008614D01*
X010799Y008562D01*
X010782Y008509D01*
X010769Y008454D01*
X010759Y008399D01*
X010753Y008343D01*
X010751Y008287D01*
X010752Y008287D01*
X010754Y008343D01*
X010760Y008399D01*
X010770Y008454D01*
X010783Y008508D01*
X010800Y008562D01*
X010821Y008614D01*
X010846Y008664D01*
X010873Y008712D01*
X010905Y008759D01*
X010939Y008803D01*
X010976Y008845D01*
X011016Y008884D01*
X011059Y008920D01*
X011104Y008953D01*
X011105Y008952D01*
X011060Y008919D01*
X011017Y008883D01*
X010977Y008844D01*
X010940Y008803D01*
X010905Y008758D01*
X010874Y008712D01*
X010846Y008663D01*
X010822Y008613D01*
X010801Y008561D01*
X010784Y008508D01*
X010771Y008454D01*
X010761Y008399D01*
X010755Y008343D01*
X010753Y008287D01*
X010754Y008287D01*
X010756Y008343D01*
X010762Y008399D01*
X010771Y008454D01*
X010785Y008508D01*
X010802Y008561D01*
X010823Y008613D01*
X010847Y008663D01*
X010875Y008711D01*
X010906Y008758D01*
X010940Y008802D01*
X010978Y008843D01*
X011018Y008882D01*
X011060Y008918D01*
X011105Y008951D01*
X011106Y008951D01*
X011061Y008918D01*
X011018Y008882D01*
X010978Y008843D01*
X010941Y008801D01*
X010907Y008757D01*
X010876Y008711D01*
X010848Y008663D01*
X010824Y008612D01*
X010803Y008561D01*
X010786Y008508D01*
X010772Y008454D01*
X010763Y008399D01*
X010757Y008343D01*
X010755Y008287D01*
X010756Y008287D01*
X010758Y008343D01*
X010764Y008399D01*
X010773Y008453D01*
X010787Y008507D01*
X010804Y008560D01*
X010825Y008612D01*
X010849Y008662D01*
X010877Y008710D01*
X010908Y008757D01*
X010942Y008801D01*
X010979Y008842D01*
X011019Y008881D01*
X011062Y008917D01*
X011106Y008950D01*
X011107Y008949D01*
X011062Y008916D01*
X011020Y008880D01*
X010980Y008841D01*
X010943Y008800D01*
X010909Y008756D01*
X010878Y008710D01*
X010850Y008662D01*
X010826Y008612D01*
X010805Y008560D01*
X010788Y008507D01*
X010774Y008453D01*
X010765Y008398D01*
X010759Y008343D01*
X010757Y008287D01*
X010758Y008287D01*
X010760Y008343D01*
X010766Y008398D01*
X010775Y008453D01*
X010789Y008507D01*
X010806Y008560D01*
X010827Y008611D01*
X010851Y008661D01*
X010879Y008709D01*
X010909Y008755D01*
X010944Y008799D01*
X010981Y008841D01*
X011020Y008879D01*
X011063Y008915D01*
X011108Y008948D01*
X011108Y008947D01*
X011063Y008915D01*
X011021Y008879D01*
X010981Y008840D01*
X010944Y008799D01*
X010910Y008755D01*
X010879Y008709D01*
X010852Y008661D01*
X010828Y008611D01*
X010807Y008559D01*
X010790Y008507D01*
X010776Y008453D01*
X010767Y008398D01*
X010761Y008343D01*
X010759Y008287D01*
X010760Y008287D01*
X010762Y008343D01*
X010768Y008398D01*
X010777Y008453D01*
X010791Y008506D01*
X010808Y008559D01*
X010828Y008610D01*
X010853Y008660D01*
X010880Y008708D01*
X010911Y008754D01*
X010945Y008798D01*
X010982Y008839D01*
X011022Y008878D01*
X011064Y008914D01*
X011109Y008947D01*
X011109Y008946D01*
X011065Y008913D01*
X011022Y008877D01*
X010983Y008839D01*
X010946Y008797D01*
X010912Y008754D01*
X010881Y008708D01*
X010854Y008660D01*
X010829Y008610D01*
X010809Y008559D01*
X010792Y008506D01*
X010778Y008452D01*
X010769Y008398D01*
X010763Y008343D01*
X010761Y008287D01*
X010762Y008287D01*
X010764Y008343D01*
X010770Y008398D01*
X010779Y008452D01*
X010793Y008506D01*
X010810Y008558D01*
X010830Y008610D01*
X010854Y008659D01*
X010882Y008707D01*
X010913Y008753D01*
X010947Y008797D01*
X010983Y008838D01*
X011023Y008876D01*
X011065Y008912D01*
X011110Y008945D01*
X011110Y008944D01*
X011066Y008911D01*
X011024Y008876D01*
X010984Y008837D01*
X010947Y008796D01*
X010914Y008753D01*
X010883Y008707D01*
X010855Y008659D01*
X010831Y008609D01*
X010811Y008558D01*
X010794Y008505D01*
X010780Y008452D01*
X010771Y008398D01*
X010765Y008343D01*
X010763Y008287D01*
X010764Y008287D01*
X010766Y008343D01*
X010772Y008397D01*
X010781Y008452D01*
X010795Y008505D01*
X010812Y008558D01*
X010832Y008609D01*
X010856Y008658D01*
X010884Y008706D01*
X010914Y008752D01*
X010948Y008795D01*
X010985Y008837D01*
X011024Y008875D01*
X011067Y008911D01*
X011111Y008943D01*
X011112Y008942D01*
X011067Y008910D01*
X011025Y008874D01*
X010986Y008836D01*
X010949Y008795D01*
X010915Y008751D01*
X010884Y008706D01*
X010857Y008658D01*
X010833Y008608D01*
X010812Y008557D01*
X010796Y008505D01*
X010782Y008451D01*
X010773Y008397D01*
X010767Y008343D01*
X010765Y008287D01*
X010766Y008287D01*
X010768Y008342D01*
X010774Y008397D01*
X010783Y008451D01*
X010796Y008505D01*
X010813Y008557D01*
X010834Y008608D01*
X010858Y008657D01*
X010885Y008705D01*
X010916Y008751D01*
X010950Y008794D01*
X010986Y008835D01*
X011026Y008874D01*
X011068Y008909D01*
X011112Y008942D01*
X012067Y008287D02*
X012048Y008287D01*
X012049Y008287D02*
X012048Y008324D01*
X012043Y008361D01*
X012037Y008397D01*
X012027Y008432D01*
X012015Y008467D01*
X012000Y008501D01*
X012017Y008508D01*
X012017Y008509D01*
X012033Y008474D01*
X012045Y008438D01*
X012055Y008401D01*
X012062Y008364D01*
X012067Y008326D01*
X012068Y008287D01*
X012067Y008287D01*
X012066Y008326D01*
X012061Y008363D01*
X012054Y008401D01*
X012044Y008438D01*
X012032Y008474D01*
X012016Y008508D01*
X012015Y008508D01*
X012031Y008473D01*
X012043Y008437D01*
X012053Y008401D01*
X012060Y008363D01*
X012065Y008325D01*
X012066Y008287D01*
X012065Y008287D01*
X012064Y008325D01*
X012059Y008363D01*
X012052Y008400D01*
X012042Y008437D01*
X012030Y008473D01*
X012015Y008508D01*
X012014Y008507D01*
X012029Y008472D01*
X012041Y008437D01*
X012051Y008400D01*
X012058Y008363D01*
X012063Y008325D01*
X012064Y008287D01*
X012063Y008287D01*
X012062Y008325D01*
X012057Y008363D01*
X012050Y008400D01*
X012040Y008436D01*
X012028Y008472D01*
X012013Y008507D01*
X012012Y008506D01*
X012027Y008472D01*
X012039Y008436D01*
X012049Y008400D01*
X012056Y008363D01*
X012061Y008325D01*
X012062Y008287D01*
X012061Y008287D01*
X012060Y008325D01*
X012055Y008362D01*
X012048Y008399D01*
X012038Y008436D01*
X012026Y008471D01*
X012011Y008506D01*
X012010Y008505D01*
X012025Y008471D01*
X012038Y008436D01*
X012047Y008399D01*
X012054Y008362D01*
X012059Y008325D01*
X012060Y008287D01*
X012059Y008287D01*
X012058Y008325D01*
X012053Y008362D01*
X012046Y008399D01*
X012037Y008435D01*
X012024Y008471D01*
X012009Y008505D01*
X012008Y008504D01*
X012023Y008470D01*
X012036Y008435D01*
X012045Y008399D01*
X012052Y008362D01*
X012057Y008325D01*
X012058Y008287D01*
X012057Y008287D01*
X012056Y008325D01*
X012051Y008362D01*
X012044Y008399D01*
X012035Y008435D01*
X012022Y008470D01*
X012007Y008504D01*
X012006Y008504D01*
X012021Y008469D01*
X012034Y008434D01*
X012043Y008398D01*
X012050Y008362D01*
X012055Y008325D01*
X012056Y008287D01*
X012055Y008287D01*
X012054Y008325D01*
X012049Y008362D01*
X012042Y008398D01*
X012033Y008434D01*
X012020Y008469D01*
X012006Y008503D01*
X012005Y008503D01*
X012019Y008469D01*
X012032Y008434D01*
X012041Y008398D01*
X012048Y008361D01*
X012053Y008325D01*
X012054Y008287D01*
X012053Y008287D01*
X012052Y008325D01*
X012047Y008361D01*
X012040Y008398D01*
X012031Y008433D01*
X012019Y008468D01*
X012004Y008502D01*
X012003Y008502D01*
X012018Y008468D01*
X012030Y008433D01*
X012039Y008397D01*
X012046Y008361D01*
X012051Y008324D01*
X012052Y008287D01*
X012051Y008287D01*
X012050Y008324D01*
X012045Y008361D01*
X012039Y008397D01*
X012029Y008433D01*
X012017Y008468D01*
X012002Y008501D01*
X012001Y008501D01*
X012016Y008467D01*
X012028Y008433D01*
X012038Y008397D01*
X012044Y008361D01*
X012049Y008324D01*
X012050Y008287D01*
X012367Y008287D02*
X012348Y008287D01*
X012349Y008288D02*
X012347Y008342D01*
X012341Y008397D01*
X012332Y008451D01*
X012319Y008504D01*
X012302Y008557D01*
X012281Y008608D01*
X012257Y008657D01*
X012230Y008705D01*
X012199Y008750D01*
X012166Y008794D01*
X012129Y008834D01*
X012090Y008873D01*
X012048Y008908D01*
X012003Y008941D01*
X012014Y008956D01*
X012059Y008923D01*
X012102Y008887D01*
X012143Y008848D01*
X012180Y008806D01*
X012215Y008761D01*
X012246Y008715D01*
X012274Y008666D01*
X012298Y008615D01*
X012319Y008563D01*
X012337Y008510D01*
X012350Y008455D01*
X012360Y008400D01*
X012366Y008344D01*
X012368Y008288D01*
X012367Y008288D01*
X012365Y008344D01*
X012359Y008400D01*
X012349Y008455D01*
X012336Y008509D01*
X012319Y008563D01*
X012298Y008615D01*
X012273Y008665D01*
X012245Y008714D01*
X012214Y008761D01*
X012179Y008805D01*
X012142Y008847D01*
X012102Y008886D01*
X012059Y008922D01*
X012013Y008956D01*
X012013Y008955D01*
X012058Y008922D01*
X012101Y008885D01*
X012141Y008846D01*
X012179Y008804D01*
X012213Y008760D01*
X012244Y008714D01*
X012272Y008665D01*
X012297Y008614D01*
X012318Y008562D01*
X012335Y008509D01*
X012348Y008455D01*
X012358Y008399D01*
X012364Y008344D01*
X012366Y008288D01*
X012365Y008288D01*
X012363Y008344D01*
X012357Y008399D01*
X012347Y008454D01*
X012334Y008509D01*
X012317Y008562D01*
X012296Y008614D01*
X012271Y008664D01*
X012243Y008713D01*
X012212Y008760D01*
X012178Y008804D01*
X012140Y008846D01*
X012100Y008885D01*
X012058Y008921D01*
X012012Y008954D01*
X012012Y008953D01*
X012057Y008920D01*
X012100Y008884D01*
X012140Y008845D01*
X012177Y008803D01*
X012211Y008759D01*
X012243Y008713D01*
X012270Y008664D01*
X012295Y008614D01*
X012316Y008562D01*
X012333Y008509D01*
X012346Y008454D01*
X012356Y008399D01*
X012362Y008343D01*
X012364Y008288D01*
X012363Y008288D01*
X012361Y008343D01*
X012355Y008399D01*
X012345Y008454D01*
X012332Y008508D01*
X012315Y008561D01*
X012294Y008613D01*
X012270Y008664D01*
X012242Y008712D01*
X012211Y008758D01*
X012176Y008803D01*
X012139Y008844D01*
X012099Y008883D01*
X012056Y008919D01*
X012011Y008952D01*
X012011Y008951D01*
X012056Y008918D01*
X012098Y008882D01*
X012138Y008844D01*
X012175Y008802D01*
X012210Y008758D01*
X012241Y008711D01*
X012269Y008663D01*
X012293Y008613D01*
X012314Y008561D01*
X012331Y008508D01*
X012345Y008454D01*
X012354Y008399D01*
X012360Y008343D01*
X012362Y008288D01*
X012361Y008288D01*
X012359Y008343D01*
X012353Y008399D01*
X012344Y008454D01*
X012330Y008508D01*
X012313Y008561D01*
X012292Y008612D01*
X012268Y008663D01*
X012240Y008711D01*
X012209Y008757D01*
X012175Y008801D01*
X012138Y008843D01*
X012098Y008882D01*
X012055Y008918D01*
X012010Y008951D01*
X012010Y008950D01*
X012054Y008917D01*
X012097Y008881D01*
X012137Y008842D01*
X012174Y008801D01*
X012208Y008757D01*
X012239Y008710D01*
X012267Y008662D01*
X012291Y008612D01*
X012312Y008560D01*
X012329Y008507D01*
X012343Y008453D01*
X012352Y008399D01*
X012358Y008343D01*
X012360Y008288D01*
X012359Y008288D01*
X012357Y008343D01*
X012351Y008398D01*
X012342Y008453D01*
X012328Y008507D01*
X012311Y008560D01*
X012290Y008612D01*
X012266Y008662D01*
X012238Y008710D01*
X012207Y008756D01*
X012173Y008800D01*
X012136Y008841D01*
X012096Y008880D01*
X012054Y008916D01*
X012009Y008949D01*
X012008Y008948D01*
X012053Y008915D01*
X012096Y008879D01*
X012135Y008841D01*
X012172Y008799D01*
X012206Y008755D01*
X012237Y008709D01*
X012265Y008661D01*
X012289Y008611D01*
X012310Y008560D01*
X012327Y008507D01*
X012341Y008453D01*
X012350Y008398D01*
X012356Y008343D01*
X012358Y008288D01*
X012357Y008288D01*
X012355Y008343D01*
X012349Y008398D01*
X012340Y008453D01*
X012326Y008507D01*
X012309Y008559D01*
X012288Y008611D01*
X012264Y008661D01*
X012237Y008709D01*
X012206Y008755D01*
X012172Y008799D01*
X012135Y008840D01*
X012095Y008879D01*
X012053Y008915D01*
X012008Y008947D01*
X012007Y008947D01*
X012052Y008914D01*
X012094Y008878D01*
X012134Y008839D01*
X012171Y008798D01*
X012205Y008754D01*
X012236Y008708D01*
X012263Y008660D01*
X012288Y008610D01*
X012308Y008559D01*
X012325Y008506D01*
X012339Y008453D01*
X012348Y008398D01*
X012354Y008343D01*
X012356Y008288D01*
X012355Y008288D01*
X012353Y008343D01*
X012347Y008398D01*
X012338Y008452D01*
X012324Y008506D01*
X012307Y008559D01*
X012287Y008610D01*
X012262Y008660D01*
X012235Y008708D01*
X012204Y008754D01*
X012170Y008797D01*
X012133Y008839D01*
X012094Y008877D01*
X012051Y008913D01*
X012007Y008946D01*
X012006Y008945D01*
X012051Y008912D01*
X012093Y008876D01*
X012133Y008838D01*
X012169Y008797D01*
X012203Y008753D01*
X012234Y008707D01*
X012262Y008659D01*
X012286Y008610D01*
X012306Y008558D01*
X012323Y008506D01*
X012337Y008452D01*
X012346Y008398D01*
X012352Y008343D01*
X012354Y008288D01*
X012353Y008288D01*
X012351Y008343D01*
X012345Y008398D01*
X012336Y008452D01*
X012322Y008505D01*
X012305Y008558D01*
X012285Y008609D01*
X012261Y008659D01*
X012233Y008707D01*
X012202Y008753D01*
X012169Y008796D01*
X012132Y008837D01*
X012092Y008876D01*
X012050Y008911D01*
X012006Y008944D01*
X012005Y008943D01*
X012049Y008911D01*
X012092Y008875D01*
X012131Y008837D01*
X012168Y008795D01*
X012202Y008752D01*
X012232Y008706D01*
X012260Y008658D01*
X012284Y008609D01*
X012304Y008558D01*
X012321Y008505D01*
X012335Y008452D01*
X012344Y008397D01*
X012350Y008343D01*
X012352Y008288D01*
X012351Y008288D01*
X012349Y008343D01*
X012343Y008397D01*
X012334Y008452D01*
X012320Y008505D01*
X012304Y008557D01*
X012283Y008608D01*
X012259Y008658D01*
X012231Y008706D01*
X012201Y008751D01*
X012167Y008795D01*
X012130Y008836D01*
X012091Y008874D01*
X012049Y008910D01*
X012004Y008942D01*
X012048Y008909D01*
X012090Y008874D01*
X012130Y008835D01*
X012166Y008794D01*
X012200Y008751D01*
X012231Y008705D01*
X012258Y008657D01*
X012282Y008608D01*
X012303Y008557D01*
X012320Y008505D01*
X012333Y008451D01*
X012342Y008397D01*
X012348Y008342D01*
X012350Y008288D01*
X011099Y008508D02*
X011116Y008500D01*
X011116Y008501D02*
X011101Y008467D01*
X011089Y008432D01*
X011079Y008397D01*
X011073Y008361D01*
X011068Y008324D01*
X011067Y008287D01*
X011049Y008287D01*
X011048Y008287D01*
X011049Y008326D01*
X011054Y008364D01*
X011061Y008401D01*
X011071Y008438D01*
X011083Y008474D01*
X011099Y008509D01*
X011100Y008508D01*
X011084Y008474D01*
X011072Y008438D01*
X011062Y008401D01*
X011055Y008363D01*
X011050Y008326D01*
X011049Y008287D01*
X011050Y008287D01*
X011051Y008325D01*
X011056Y008363D01*
X011063Y008401D01*
X011073Y008437D01*
X011085Y008473D01*
X011101Y008508D01*
X011086Y008473D01*
X011074Y008437D01*
X011064Y008400D01*
X011057Y008363D01*
X011052Y008325D01*
X011051Y008287D01*
X011052Y008287D01*
X011053Y008325D01*
X011058Y008363D01*
X011065Y008400D01*
X011075Y008437D01*
X011087Y008472D01*
X011102Y008507D01*
X011103Y008507D01*
X011088Y008472D01*
X011076Y008436D01*
X011066Y008400D01*
X011059Y008363D01*
X011054Y008325D01*
X011053Y008287D01*
X011054Y008287D01*
X011055Y008325D01*
X011060Y008363D01*
X011067Y008400D01*
X011077Y008436D01*
X011089Y008472D01*
X011104Y008506D01*
X011105Y008506D01*
X011090Y008471D01*
X011078Y008436D01*
X011068Y008399D01*
X011061Y008362D01*
X011056Y008325D01*
X011055Y008287D01*
X011056Y008287D01*
X011057Y008325D01*
X011062Y008362D01*
X011069Y008399D01*
X011078Y008436D01*
X011091Y008471D01*
X011106Y008505D01*
X011107Y008505D01*
X011092Y008471D01*
X011079Y008435D01*
X011070Y008399D01*
X011063Y008362D01*
X011058Y008325D01*
X011057Y008287D01*
X011058Y008287D01*
X011059Y008325D01*
X011064Y008362D01*
X011071Y008399D01*
X011080Y008435D01*
X011093Y008470D01*
X011108Y008504D01*
X011109Y008504D01*
X011094Y008470D01*
X011081Y008435D01*
X011072Y008399D01*
X011065Y008362D01*
X011060Y008325D01*
X011059Y008287D01*
X011060Y008287D01*
X011061Y008325D01*
X011066Y008362D01*
X011073Y008398D01*
X011082Y008434D01*
X011095Y008469D01*
X011110Y008504D01*
X011110Y008503D01*
X011096Y008469D01*
X011083Y008434D01*
X011074Y008398D01*
X011067Y008362D01*
X011062Y008325D01*
X011061Y008287D01*
X011062Y008287D01*
X011063Y008325D01*
X011068Y008361D01*
X011075Y008398D01*
X011084Y008434D01*
X011097Y008469D01*
X011111Y008503D01*
X011112Y008502D01*
X011097Y008468D01*
X011085Y008433D01*
X011076Y008398D01*
X011069Y008361D01*
X011064Y008325D01*
X011063Y008287D01*
X011064Y008287D01*
X011065Y008324D01*
X011070Y008361D01*
X011077Y008397D01*
X011086Y008433D01*
X011098Y008468D01*
X011113Y008502D01*
X011114Y008501D01*
X011099Y008468D01*
X011087Y008433D01*
X011077Y008397D01*
X011071Y008361D01*
X011066Y008324D01*
X011065Y008287D01*
X011066Y008287D01*
X011067Y008324D01*
X011072Y008361D01*
X011078Y008397D01*
X011088Y008433D01*
X011100Y008467D01*
X011115Y008501D01*
X010749Y005587D02*
X010768Y005587D01*
X010767Y005586D02*
X010769Y005532D01*
X010775Y005477D01*
X010784Y005423D01*
X010797Y005370D01*
X010814Y005317D01*
X010835Y005266D01*
X010859Y005217D01*
X010886Y005169D01*
X010917Y005124D01*
X010951Y005080D01*
X010987Y005039D01*
X011026Y005001D01*
X011068Y004966D01*
X011113Y004933D01*
X011103Y004918D01*
X011102Y004918D01*
X011057Y004951D01*
X011014Y004987D01*
X010973Y005026D01*
X010936Y005068D01*
X010901Y005113D01*
X010870Y005159D01*
X010842Y005208D01*
X010818Y005259D01*
X010797Y005311D01*
X010779Y005364D01*
X010766Y005419D01*
X010756Y005474D01*
X010750Y005530D01*
X010748Y005586D01*
X010749Y005586D01*
X010751Y005530D01*
X010757Y005474D01*
X010767Y005419D01*
X010780Y005365D01*
X010797Y005311D01*
X010818Y005259D01*
X010843Y005209D01*
X010871Y005160D01*
X010902Y005113D01*
X010937Y005069D01*
X010974Y005027D01*
X011014Y004988D01*
X011057Y004952D01*
X011103Y004918D01*
X011103Y004919D01*
X011058Y004952D01*
X011015Y004989D01*
X010975Y005028D01*
X010937Y005070D01*
X010903Y005114D01*
X010872Y005160D01*
X010844Y005209D01*
X010819Y005260D01*
X010798Y005312D01*
X010781Y005365D01*
X010768Y005419D01*
X010758Y005475D01*
X010752Y005530D01*
X010750Y005586D01*
X010751Y005586D01*
X010753Y005530D01*
X010759Y005475D01*
X010769Y005420D01*
X010782Y005365D01*
X010799Y005312D01*
X010820Y005260D01*
X010845Y005210D01*
X010873Y005161D01*
X010904Y005114D01*
X010938Y005070D01*
X010976Y005028D01*
X011016Y004989D01*
X011059Y004953D01*
X011104Y004920D01*
X011104Y004921D01*
X011059Y004954D01*
X011016Y004990D01*
X010976Y005029D01*
X010939Y005071D01*
X010905Y005115D01*
X010873Y005161D01*
X010846Y005210D01*
X010821Y005260D01*
X010800Y005312D01*
X010783Y005365D01*
X010770Y005420D01*
X010760Y005475D01*
X010754Y005531D01*
X010752Y005586D01*
X010753Y005586D01*
X010755Y005531D01*
X010761Y005475D01*
X010771Y005420D01*
X010784Y005366D01*
X010801Y005313D01*
X010822Y005261D01*
X010846Y005210D01*
X010874Y005162D01*
X010905Y005116D01*
X010940Y005071D01*
X010977Y005030D01*
X011017Y004991D01*
X011060Y004955D01*
X011105Y004922D01*
X011105Y004923D01*
X011060Y004956D01*
X011018Y004992D01*
X010978Y005030D01*
X010941Y005072D01*
X010906Y005116D01*
X010875Y005163D01*
X010847Y005211D01*
X010823Y005261D01*
X010802Y005313D01*
X010785Y005366D01*
X010771Y005420D01*
X010762Y005475D01*
X010756Y005531D01*
X010754Y005586D01*
X010755Y005586D01*
X010757Y005531D01*
X010763Y005475D01*
X010772Y005420D01*
X010786Y005366D01*
X010803Y005313D01*
X010824Y005262D01*
X010848Y005211D01*
X010876Y005163D01*
X010907Y005117D01*
X010941Y005073D01*
X010978Y005031D01*
X011018Y004992D01*
X011061Y004956D01*
X011106Y004923D01*
X011107Y004924D01*
X011062Y004957D01*
X011019Y004993D01*
X010979Y005032D01*
X010942Y005073D01*
X010908Y005117D01*
X010877Y005164D01*
X010849Y005212D01*
X010825Y005262D01*
X010804Y005314D01*
X010787Y005367D01*
X010773Y005421D01*
X010764Y005475D01*
X010758Y005531D01*
X010756Y005586D01*
X010757Y005586D01*
X010759Y005531D01*
X010765Y005476D01*
X010774Y005421D01*
X010788Y005367D01*
X010805Y005314D01*
X010826Y005262D01*
X010850Y005212D01*
X010878Y005164D01*
X010909Y005118D01*
X010943Y005074D01*
X010980Y005033D01*
X011020Y004994D01*
X011062Y004958D01*
X011107Y004925D01*
X011108Y004926D01*
X011063Y004959D01*
X011020Y004995D01*
X010981Y005033D01*
X010944Y005075D01*
X010910Y005119D01*
X010879Y005165D01*
X010851Y005213D01*
X010827Y005263D01*
X010806Y005314D01*
X010789Y005367D01*
X010775Y005421D01*
X010766Y005476D01*
X010760Y005531D01*
X010758Y005586D01*
X010759Y005586D01*
X010761Y005531D01*
X010767Y005476D01*
X010776Y005421D01*
X010790Y005367D01*
X010807Y005315D01*
X010828Y005263D01*
X010852Y005213D01*
X010879Y005165D01*
X010910Y005119D01*
X010944Y005075D01*
X010981Y005034D01*
X011021Y004995D01*
X011063Y004959D01*
X011108Y004927D01*
X011109Y004927D01*
X011064Y004960D01*
X011022Y004996D01*
X010982Y005035D01*
X010945Y005076D01*
X010911Y005120D01*
X010880Y005166D01*
X010853Y005214D01*
X010828Y005264D01*
X010808Y005315D01*
X010791Y005368D01*
X010777Y005421D01*
X010768Y005476D01*
X010762Y005531D01*
X010760Y005586D01*
X010761Y005586D01*
X010763Y005531D01*
X010769Y005476D01*
X010778Y005422D01*
X010792Y005368D01*
X010809Y005315D01*
X010829Y005264D01*
X010854Y005214D01*
X010881Y005166D01*
X010912Y005120D01*
X010946Y005077D01*
X010983Y005035D01*
X011022Y004997D01*
X011065Y004961D01*
X011109Y004928D01*
X011110Y004929D01*
X011065Y004962D01*
X011023Y004997D01*
X010984Y005036D01*
X010947Y005077D01*
X010913Y005121D01*
X010882Y005167D01*
X010854Y005215D01*
X010830Y005264D01*
X010810Y005316D01*
X010793Y005368D01*
X010779Y005422D01*
X010770Y005476D01*
X010764Y005531D01*
X010762Y005586D01*
X010763Y005586D01*
X010765Y005531D01*
X010771Y005476D01*
X010780Y005422D01*
X010794Y005368D01*
X010811Y005316D01*
X010831Y005265D01*
X010855Y005215D01*
X010883Y005167D01*
X010914Y005121D01*
X010947Y005078D01*
X010984Y005037D01*
X011024Y004998D01*
X011066Y004963D01*
X011110Y004930D01*
X011111Y004931D01*
X011067Y004963D01*
X011024Y004999D01*
X010985Y005037D01*
X010948Y005078D01*
X010914Y005122D01*
X010884Y005168D01*
X010856Y005216D01*
X010832Y005265D01*
X010812Y005316D01*
X010795Y005369D01*
X010781Y005422D01*
X010772Y005477D01*
X010766Y005531D01*
X010764Y005586D01*
X010765Y005586D01*
X010767Y005531D01*
X010773Y005477D01*
X010782Y005422D01*
X010796Y005369D01*
X010813Y005317D01*
X010833Y005266D01*
X010857Y005216D01*
X010885Y005168D01*
X010915Y005123D01*
X010949Y005079D01*
X010986Y005038D01*
X011025Y005000D01*
X011067Y004964D01*
X011112Y004932D01*
X011068Y004965D01*
X011026Y005000D01*
X010986Y005039D01*
X010950Y005080D01*
X010916Y005123D01*
X010885Y005169D01*
X010858Y005217D01*
X010834Y005266D01*
X010813Y005317D01*
X010797Y005369D01*
X010783Y005423D01*
X010774Y005477D01*
X010768Y005532D01*
X010766Y005586D01*
X011049Y005587D02*
X011068Y005587D01*
X011067Y005587D02*
X011068Y005550D01*
X011073Y005513D01*
X011079Y005477D01*
X011089Y005442D01*
X011101Y005407D01*
X011116Y005373D01*
X011099Y005366D01*
X011099Y005365D01*
X011083Y005400D01*
X011071Y005436D01*
X011061Y005473D01*
X011054Y005510D01*
X011049Y005548D01*
X011048Y005587D01*
X011049Y005587D01*
X011050Y005548D01*
X011055Y005511D01*
X011062Y005473D01*
X011072Y005436D01*
X011084Y005400D01*
X011100Y005366D01*
X011101Y005366D01*
X011085Y005401D01*
X011073Y005437D01*
X011063Y005473D01*
X011056Y005511D01*
X011051Y005549D01*
X011050Y005587D01*
X011051Y005587D01*
X011052Y005549D01*
X011057Y005511D01*
X011064Y005474D01*
X011074Y005437D01*
X011086Y005401D01*
X011101Y005366D01*
X011102Y005367D01*
X011087Y005402D01*
X011075Y005437D01*
X011065Y005474D01*
X011058Y005511D01*
X011053Y005549D01*
X011052Y005587D01*
X011053Y005587D01*
X011054Y005549D01*
X011059Y005511D01*
X011066Y005474D01*
X011076Y005438D01*
X011088Y005402D01*
X011103Y005367D01*
X011104Y005368D01*
X011089Y005402D01*
X011077Y005438D01*
X011067Y005474D01*
X011060Y005511D01*
X011055Y005549D01*
X011054Y005587D01*
X011055Y005587D01*
X011056Y005549D01*
X011061Y005512D01*
X011068Y005475D01*
X011078Y005438D01*
X011090Y005403D01*
X011105Y005368D01*
X011106Y005369D01*
X011091Y005403D01*
X011078Y005438D01*
X011069Y005475D01*
X011062Y005512D01*
X011057Y005549D01*
X011056Y005587D01*
X011057Y005587D01*
X011058Y005549D01*
X011063Y005512D01*
X011070Y005475D01*
X011079Y005439D01*
X011092Y005403D01*
X011107Y005369D01*
X011108Y005370D01*
X011093Y005404D01*
X011080Y005439D01*
X011071Y005475D01*
X011064Y005512D01*
X011059Y005549D01*
X011058Y005587D01*
X011059Y005587D01*
X011060Y005549D01*
X011065Y005512D01*
X011072Y005475D01*
X011081Y005439D01*
X011094Y005404D01*
X011109Y005370D01*
X011110Y005370D01*
X011095Y005405D01*
X011082Y005440D01*
X011073Y005476D01*
X011066Y005512D01*
X011061Y005549D01*
X011060Y005587D01*
X011061Y005587D01*
X011062Y005549D01*
X011067Y005512D01*
X011074Y005476D01*
X011083Y005440D01*
X011096Y005405D01*
X011110Y005371D01*
X011111Y005371D01*
X011097Y005405D01*
X011084Y005440D01*
X011075Y005476D01*
X011068Y005513D01*
X011063Y005549D01*
X011062Y005587D01*
X011063Y005587D01*
X011064Y005549D01*
X011069Y005513D01*
X011076Y005476D01*
X011085Y005441D01*
X011097Y005406D01*
X011112Y005372D01*
X011113Y005372D01*
X011098Y005406D01*
X011086Y005441D01*
X011077Y005477D01*
X011070Y005513D01*
X011065Y005550D01*
X011064Y005587D01*
X011065Y005587D01*
X011066Y005550D01*
X011071Y005513D01*
X011077Y005477D01*
X011087Y005441D01*
X011099Y005406D01*
X011114Y005373D01*
X011115Y005373D01*
X011100Y005407D01*
X011088Y005441D01*
X011078Y005477D01*
X011072Y005513D01*
X011067Y005550D01*
X011066Y005587D01*
X012017Y005366D02*
X012000Y005374D01*
X012000Y005373D02*
X012015Y005407D01*
X012027Y005442D01*
X012037Y005477D01*
X012043Y005513D01*
X012048Y005550D01*
X012049Y005587D01*
X012067Y005587D01*
X012068Y005587D01*
X012067Y005548D01*
X012062Y005510D01*
X012055Y005473D01*
X012045Y005436D01*
X012033Y005400D01*
X012017Y005365D01*
X012016Y005366D01*
X012032Y005400D01*
X012044Y005436D01*
X012054Y005473D01*
X012061Y005511D01*
X012066Y005548D01*
X012067Y005587D01*
X012066Y005587D01*
X012065Y005549D01*
X012060Y005511D01*
X012053Y005473D01*
X012043Y005437D01*
X012031Y005401D01*
X012015Y005366D01*
X012030Y005401D01*
X012042Y005437D01*
X012052Y005474D01*
X012059Y005511D01*
X012064Y005549D01*
X012065Y005587D01*
X012064Y005587D01*
X012063Y005549D01*
X012058Y005511D01*
X012051Y005474D01*
X012041Y005437D01*
X012029Y005402D01*
X012014Y005367D01*
X012013Y005367D01*
X012028Y005402D01*
X012040Y005438D01*
X012050Y005474D01*
X012057Y005511D01*
X012062Y005549D01*
X012063Y005587D01*
X012062Y005587D01*
X012061Y005549D01*
X012056Y005511D01*
X012049Y005474D01*
X012039Y005438D01*
X012027Y005402D01*
X012012Y005368D01*
X012011Y005368D01*
X012026Y005403D01*
X012038Y005438D01*
X012048Y005475D01*
X012055Y005512D01*
X012060Y005549D01*
X012061Y005587D01*
X012060Y005587D01*
X012059Y005549D01*
X012054Y005512D01*
X012047Y005475D01*
X012038Y005438D01*
X012025Y005403D01*
X012010Y005369D01*
X012009Y005369D01*
X012024Y005403D01*
X012037Y005439D01*
X012046Y005475D01*
X012053Y005512D01*
X012058Y005549D01*
X012059Y005587D01*
X012058Y005587D01*
X012057Y005549D01*
X012052Y005512D01*
X012045Y005475D01*
X012036Y005439D01*
X012023Y005404D01*
X012008Y005370D01*
X012007Y005370D01*
X012022Y005404D01*
X012035Y005439D01*
X012044Y005475D01*
X012051Y005512D01*
X012056Y005549D01*
X012057Y005587D01*
X012056Y005587D01*
X012055Y005549D01*
X012050Y005512D01*
X012043Y005476D01*
X012034Y005440D01*
X012021Y005405D01*
X012006Y005370D01*
X012006Y005371D01*
X012020Y005405D01*
X012033Y005440D01*
X012042Y005476D01*
X012049Y005512D01*
X012054Y005549D01*
X012055Y005587D01*
X012054Y005587D01*
X012053Y005549D01*
X012048Y005513D01*
X012041Y005476D01*
X012032Y005440D01*
X012019Y005405D01*
X012005Y005371D01*
X012004Y005372D01*
X012019Y005406D01*
X012031Y005441D01*
X012040Y005476D01*
X012047Y005513D01*
X012052Y005549D01*
X012053Y005587D01*
X012052Y005587D01*
X012051Y005550D01*
X012046Y005513D01*
X012039Y005477D01*
X012030Y005441D01*
X012018Y005406D01*
X012003Y005372D01*
X012002Y005373D01*
X012017Y005406D01*
X012029Y005441D01*
X012039Y005477D01*
X012045Y005513D01*
X012050Y005550D01*
X012051Y005587D01*
X012050Y005587D01*
X012049Y005550D01*
X012044Y005513D01*
X012038Y005477D01*
X012028Y005441D01*
X012016Y005407D01*
X012001Y005373D01*
X012014Y004918D02*
X012003Y004934D01*
X012003Y004933D02*
X012048Y004966D01*
X012090Y005001D01*
X012129Y005040D01*
X012166Y005080D01*
X012199Y005124D01*
X012230Y005169D01*
X012257Y005217D01*
X012281Y005266D01*
X012302Y005317D01*
X012319Y005370D01*
X012332Y005423D01*
X012341Y005477D01*
X012347Y005532D01*
X012349Y005587D01*
X012367Y005587D01*
X012368Y005587D01*
X012366Y005530D01*
X012360Y005474D01*
X012350Y005419D01*
X012337Y005364D01*
X012320Y005311D01*
X012299Y005259D01*
X012274Y005208D01*
X012246Y005159D01*
X012215Y005113D01*
X012180Y005068D01*
X012143Y005026D01*
X012102Y004987D01*
X012059Y004951D01*
X012014Y004918D01*
X012013Y004918D01*
X012059Y004952D01*
X012102Y004988D01*
X012142Y005027D01*
X012179Y005069D01*
X012214Y005113D01*
X012245Y005160D01*
X012273Y005209D01*
X012298Y005259D01*
X012319Y005311D01*
X012336Y005365D01*
X012349Y005419D01*
X012359Y005475D01*
X012365Y005530D01*
X012367Y005587D01*
X012366Y005587D01*
X012364Y005530D01*
X012358Y005475D01*
X012348Y005419D01*
X012335Y005365D01*
X012318Y005312D01*
X012297Y005260D01*
X012272Y005209D01*
X012244Y005160D01*
X012213Y005114D01*
X012179Y005070D01*
X012141Y005028D01*
X012101Y004989D01*
X012058Y004952D01*
X012013Y004919D01*
X012012Y004920D01*
X012058Y004953D01*
X012100Y004989D01*
X012140Y005028D01*
X012178Y005070D01*
X012212Y005114D01*
X012243Y005161D01*
X012271Y005210D01*
X012296Y005260D01*
X012317Y005312D01*
X012334Y005365D01*
X012347Y005420D01*
X012357Y005475D01*
X012363Y005531D01*
X012365Y005587D01*
X012364Y005587D01*
X012362Y005531D01*
X012356Y005475D01*
X012346Y005420D01*
X012333Y005366D01*
X012316Y005312D01*
X012295Y005260D01*
X012270Y005210D01*
X012243Y005162D01*
X012211Y005115D01*
X012177Y005071D01*
X012140Y005029D01*
X012100Y004990D01*
X012057Y004954D01*
X012012Y004921D01*
X012011Y004922D01*
X012056Y004955D01*
X012099Y004991D01*
X012139Y005030D01*
X012176Y005071D01*
X012211Y005116D01*
X012242Y005162D01*
X012270Y005211D01*
X012294Y005261D01*
X012315Y005313D01*
X012332Y005366D01*
X012345Y005420D01*
X012355Y005475D01*
X012361Y005531D01*
X012363Y005587D01*
X012362Y005587D01*
X012360Y005531D01*
X012354Y005475D01*
X012345Y005420D01*
X012331Y005366D01*
X012314Y005313D01*
X012293Y005261D01*
X012269Y005211D01*
X012241Y005163D01*
X012210Y005116D01*
X012176Y005072D01*
X012138Y005031D01*
X012098Y004992D01*
X012056Y004956D01*
X012011Y004923D01*
X012010Y004923D01*
X012055Y004956D01*
X012098Y004992D01*
X012138Y005031D01*
X012175Y005073D01*
X012209Y005117D01*
X012240Y005163D01*
X012268Y005211D01*
X012292Y005262D01*
X012313Y005313D01*
X012330Y005366D01*
X012344Y005420D01*
X012353Y005475D01*
X012359Y005531D01*
X012361Y005587D01*
X012360Y005587D01*
X012358Y005531D01*
X012352Y005475D01*
X012343Y005421D01*
X012329Y005367D01*
X012312Y005314D01*
X012291Y005262D01*
X012267Y005212D01*
X012239Y005164D01*
X012208Y005117D01*
X012174Y005073D01*
X012137Y005032D01*
X012097Y004993D01*
X012054Y004957D01*
X012010Y004924D01*
X012009Y004925D01*
X012054Y004958D01*
X012096Y004994D01*
X012136Y005033D01*
X012173Y005074D01*
X012207Y005118D01*
X012238Y005164D01*
X012266Y005212D01*
X012290Y005262D01*
X012311Y005314D01*
X012328Y005367D01*
X012342Y005421D01*
X012351Y005476D01*
X012357Y005531D01*
X012359Y005587D01*
X012358Y005587D01*
X012356Y005531D01*
X012350Y005476D01*
X012341Y005421D01*
X012327Y005367D01*
X012310Y005314D01*
X012289Y005263D01*
X012265Y005213D01*
X012237Y005165D01*
X012207Y005119D01*
X012172Y005075D01*
X012135Y005033D01*
X012096Y004995D01*
X012053Y004959D01*
X012008Y004926D01*
X012008Y004927D01*
X012053Y004959D01*
X012095Y004995D01*
X012135Y005034D01*
X012172Y005075D01*
X012206Y005119D01*
X012237Y005165D01*
X012264Y005213D01*
X012288Y005263D01*
X012309Y005315D01*
X012326Y005367D01*
X012340Y005421D01*
X012349Y005476D01*
X012355Y005531D01*
X012357Y005587D01*
X012356Y005587D01*
X012354Y005531D01*
X012348Y005476D01*
X012339Y005421D01*
X012325Y005368D01*
X012308Y005315D01*
X012288Y005264D01*
X012263Y005214D01*
X012236Y005166D01*
X012205Y005120D01*
X012171Y005076D01*
X012134Y005035D01*
X012094Y004996D01*
X012052Y004960D01*
X012007Y004927D01*
X012007Y004928D01*
X012051Y004961D01*
X012094Y004997D01*
X012133Y005035D01*
X012170Y005077D01*
X012204Y005120D01*
X012235Y005166D01*
X012262Y005214D01*
X012287Y005264D01*
X012307Y005315D01*
X012324Y005368D01*
X012338Y005422D01*
X012347Y005476D01*
X012353Y005531D01*
X012355Y005587D01*
X012354Y005587D01*
X012352Y005531D01*
X012346Y005476D01*
X012337Y005422D01*
X012323Y005368D01*
X012306Y005316D01*
X012286Y005264D01*
X012262Y005215D01*
X012234Y005167D01*
X012203Y005121D01*
X012169Y005077D01*
X012133Y005036D01*
X012093Y004998D01*
X012051Y004962D01*
X012006Y004929D01*
X012006Y004930D01*
X012050Y004963D01*
X012092Y004998D01*
X012132Y005037D01*
X012169Y005078D01*
X012202Y005121D01*
X012233Y005167D01*
X012261Y005215D01*
X012285Y005265D01*
X012305Y005316D01*
X012322Y005369D01*
X012336Y005422D01*
X012345Y005476D01*
X012351Y005531D01*
X012353Y005587D01*
X012352Y005587D01*
X012350Y005531D01*
X012344Y005477D01*
X012335Y005422D01*
X012321Y005369D01*
X012304Y005316D01*
X012284Y005265D01*
X012260Y005216D01*
X012232Y005168D01*
X012202Y005122D01*
X012168Y005079D01*
X012131Y005037D01*
X012092Y004999D01*
X012049Y004963D01*
X012005Y004931D01*
X012004Y004932D01*
X012049Y004964D01*
X012091Y005000D01*
X012130Y005038D01*
X012167Y005079D01*
X012201Y005123D01*
X012232Y005168D01*
X012259Y005216D01*
X012283Y005266D01*
X012304Y005317D01*
X012320Y005369D01*
X012334Y005423D01*
X012343Y005477D01*
X012349Y005531D01*
X012351Y005587D01*
X012350Y005587D01*
X012348Y005532D01*
X012342Y005477D01*
X012333Y005423D01*
X012320Y005369D01*
X012303Y005317D01*
X012282Y005266D01*
X012258Y005217D01*
X012231Y005169D01*
X012200Y005123D01*
X012166Y005080D01*
X012130Y005039D01*
X012090Y005000D01*
X012048Y004965D01*
X012004Y004932D01*
D19*
X002542Y010186D02*
X002542Y010426D01*
X002225Y010458D01*
X002191Y010565D01*
X002139Y010664D01*
X002341Y010912D01*
X002171Y011081D01*
X001924Y010879D01*
X001824Y010931D01*
X001718Y010965D01*
X001685Y011282D01*
X001445Y011282D01*
X001413Y010965D01*
X001306Y010931D01*
X001207Y010879D01*
X000959Y011081D01*
X000790Y010912D01*
X000992Y010664D01*
X000940Y010565D01*
X000906Y010458D01*
X000589Y010426D01*
X000589Y010186D01*
X000906Y010153D01*
X000940Y010047D01*
X000992Y009947D01*
X000790Y009700D01*
X000959Y009530D01*
X000959Y009530D01*
X001207Y009732D01*
X001306Y009680D01*
X001448Y010021D01*
X001395Y010050D01*
X001348Y010088D01*
X001310Y010135D01*
X001281Y010188D01*
X001264Y010246D01*
X001258Y010306D01*
X001264Y010368D01*
X001283Y010429D01*
X001315Y010484D01*
X001356Y010531D01*
X001407Y010569D01*
X001464Y010596D01*
X001525Y010611D01*
X001588Y010612D01*
X001651Y010601D01*
X001709Y010578D01*
X001762Y010542D01*
X001806Y010497D01*
X001840Y010444D01*
X001863Y010385D01*
X001873Y010323D01*
X001870Y010260D01*
X001854Y010199D01*
X001826Y010142D01*
X001787Y010092D01*
X001739Y010051D01*
X001683Y010021D01*
X001824Y009680D01*
X001924Y009732D01*
X002171Y009530D01*
X002171Y009530D01*
X002341Y009700D01*
X002139Y009947D01*
X002191Y010047D01*
X002225Y010153D01*
X002542Y010186D01*
X002542Y010221D02*
X001860Y010221D01*
X001870Y010278D02*
X002542Y010278D01*
X002542Y010336D02*
X001870Y010336D01*
X001859Y010393D02*
X002542Y010393D01*
X002293Y010451D02*
X001836Y010451D01*
X001795Y010508D02*
X002209Y010508D01*
X002190Y010566D02*
X001726Y010566D01*
X001403Y010566D02*
X000941Y010566D01*
X000922Y010508D02*
X001336Y010508D01*
X001296Y010451D02*
X000838Y010451D01*
X000810Y010163D02*
X001294Y010163D01*
X001271Y010221D02*
X000589Y010221D01*
X000589Y010278D02*
X001261Y010278D01*
X001261Y010336D02*
X000589Y010336D01*
X000589Y010393D02*
X001272Y010393D01*
X001334Y010106D02*
X000921Y010106D01*
X000940Y010048D02*
X001398Y010048D01*
X001435Y009990D02*
X000969Y009990D01*
X000980Y009933D02*
X001411Y009933D01*
X001387Y009875D02*
X000933Y009875D01*
X000886Y009818D02*
X001363Y009818D01*
X001340Y009760D02*
X000839Y009760D01*
X000792Y009703D02*
X001171Y009703D01*
X001101Y009645D02*
X000844Y009645D01*
X000902Y009588D02*
X001030Y009588D01*
X001263Y009703D02*
X001316Y009703D01*
X001744Y009875D02*
X002198Y009875D01*
X002245Y009818D02*
X001767Y009818D01*
X001791Y009760D02*
X002292Y009760D01*
X002339Y009703D02*
X001960Y009703D01*
X002030Y009645D02*
X002287Y009645D01*
X002229Y009588D02*
X002101Y009588D01*
X001868Y009703D02*
X001815Y009703D01*
X001720Y009933D02*
X002151Y009933D01*
X002162Y009990D02*
X001696Y009990D01*
X001732Y010048D02*
X002191Y010048D01*
X002209Y010106D02*
X001797Y010106D01*
X001836Y010163D02*
X002321Y010163D01*
X002160Y010624D02*
X000971Y010624D01*
X000978Y010681D02*
X002153Y010681D01*
X002200Y010739D02*
X000931Y010739D01*
X000884Y010796D02*
X002247Y010796D01*
X002294Y010854D02*
X000837Y010854D01*
X000790Y010911D02*
X001168Y010911D01*
X001097Y010969D02*
X000847Y010969D01*
X000905Y011026D02*
X001027Y011026D01*
X001269Y010911D02*
X001862Y010911D01*
X001963Y010911D02*
X002341Y010911D01*
X002284Y010969D02*
X002034Y010969D01*
X002104Y011026D02*
X002226Y011026D01*
X001717Y010969D02*
X001414Y010969D01*
X001419Y011026D02*
X001711Y011026D01*
X001706Y011084D02*
X001425Y011084D01*
X001431Y011142D02*
X001700Y011142D01*
X001694Y011199D02*
X001437Y011199D01*
X001443Y011257D02*
X001688Y011257D01*
M02*
