G75*
G70*
%OFA0B0*%
%FSLAX24Y24*%
%IPPOS*%
%LPD*%
%AMOC8*
5,1,8,0,0,1.08239X$1,22.5*
%
%ADD10C,0.0000*%
%ADD11C,0.0640*%
%ADD12C,0.1340*%
%ADD13R,0.0780X0.0780*%
%ADD14C,0.0780*%
%ADD15C,0.2340*%
%ADD16C,0.2140*%
%ADD17R,0.0840X0.0840*%
%ADD18C,0.0840*%
D10*
X000210Y000805D02*
X000201Y014960D01*
X019774Y014960D01*
X019754Y000805D01*
X000210Y000805D01*
X001333Y006024D02*
X001335Y006074D01*
X001341Y006124D01*
X001351Y006174D01*
X001364Y006222D01*
X001381Y006270D01*
X001402Y006316D01*
X001426Y006360D01*
X001454Y006402D01*
X001485Y006442D01*
X001519Y006479D01*
X001556Y006514D01*
X001595Y006545D01*
X001636Y006574D01*
X001680Y006599D01*
X001726Y006621D01*
X001773Y006639D01*
X001821Y006653D01*
X001870Y006664D01*
X001920Y006671D01*
X001970Y006674D01*
X002021Y006673D01*
X002071Y006668D01*
X002121Y006659D01*
X002169Y006647D01*
X002217Y006630D01*
X002263Y006610D01*
X002308Y006587D01*
X002351Y006560D01*
X002391Y006530D01*
X002429Y006497D01*
X002464Y006461D01*
X002497Y006422D01*
X002526Y006381D01*
X002552Y006338D01*
X002575Y006293D01*
X002594Y006246D01*
X002609Y006198D01*
X002621Y006149D01*
X002629Y006099D01*
X002633Y006049D01*
X002633Y005999D01*
X002629Y005949D01*
X002621Y005899D01*
X002609Y005850D01*
X002594Y005802D01*
X002575Y005755D01*
X002552Y005710D01*
X002526Y005667D01*
X002497Y005626D01*
X002464Y005587D01*
X002429Y005551D01*
X002391Y005518D01*
X002351Y005488D01*
X002308Y005461D01*
X002263Y005438D01*
X002217Y005418D01*
X002169Y005401D01*
X002121Y005389D01*
X002071Y005380D01*
X002021Y005375D01*
X001970Y005374D01*
X001920Y005377D01*
X001870Y005384D01*
X001821Y005395D01*
X001773Y005409D01*
X001726Y005427D01*
X001680Y005449D01*
X001636Y005474D01*
X001595Y005503D01*
X001556Y005534D01*
X001519Y005569D01*
X001485Y005606D01*
X001454Y005646D01*
X001426Y005688D01*
X001402Y005732D01*
X001381Y005778D01*
X001364Y005826D01*
X001351Y005874D01*
X001341Y005924D01*
X001335Y005974D01*
X001333Y006024D01*
D11*
X007583Y006024D02*
X008183Y006024D01*
X008183Y005024D02*
X007583Y005024D01*
X007583Y007024D02*
X008183Y007024D01*
D12*
X001983Y006024D03*
D13*
X006723Y001487D03*
X009061Y001650D03*
X019111Y004183D03*
X015817Y012560D03*
D14*
X016817Y012460D03*
X017817Y012560D03*
X018817Y012460D03*
X019211Y011183D03*
X019111Y010183D03*
X019211Y009183D03*
X019111Y008183D03*
X019211Y007183D03*
X019111Y006183D03*
X019211Y005183D03*
X016061Y001550D03*
X015061Y001650D03*
X014061Y001550D03*
X013061Y001650D03*
X012061Y001550D03*
X011061Y001650D03*
X010061Y001550D03*
X005723Y001487D03*
X004723Y001487D03*
X003723Y001487D03*
D15*
X002132Y013034D03*
X012999Y013310D03*
D16*
X001723Y002313D03*
X018298Y002235D03*
D17*
X009361Y013376D03*
D18*
X007983Y013376D03*
X006605Y013376D03*
X005227Y013376D03*
M02*
